<svg width="1494" height="1107" fill="none" xmlns="http://www.w3.org/2000/svg"><g clip-path="url(#clip0_0_3)"><path d="M473.6-168.98c2.022-3.29 9.461-2.022 12.751 0 3.083 1.895 2.162 5.66.369 8.834l-.369.625c-5.776 6.363-10.364 7.61-16.658 12.257-6.177 4.563-13.032 8.273-19.995 9.144-5.394.674-7.521 2.309-8.43 3.441-.96 1.195-1.584 3.095-1.471 6.267.114 3.196.948 6.864 2.064 10.816.996 3.526 2.454 7.99 3.106 11.248.763 3.816.596 7.769.556 10.62-.043 3.14.019 5.633.642 8.065 1.079 4.206 4.346 10.09 17.949 17 10.587 5.378 14.839 17.068 16.08 28.987 1.274 12.226-.335 26.853-3.564 41.443-3.247 14.669-8.226 29.722-13.993 42.939-3.956 9.065-8.378 17.484-12.999 24.387-1.788 5.047-21.827 40.569-30.635 55.366-10.033 16.853-26.976.883-43.392 4.152-.79 2.101-1.445 4.413-1.945 6.975-.939 4.813-2.867 9.027-6.089 12.187-3.266 3.204-7.31 4.782-11.463 5.255-.435.05-.875.085-1.316.112-1.661 1.19-3.522 2.11-5.644 2.625-6.964 1.454-13.308-2.336-19.137-5.293-11.231-6.67-25.722-10.974-37.326-3.333-4.574 2.631-9.204 4.97-14.33 6.424-5.01 1.466-10.778 1.558-15.485-1.086-2.357-1.201-4.439-2.874-6.82-3.648-2.392-.817-4.94-.152-7.182 1.11a197.065 197.065 0 00-8.425 5.299c.568 46.728 39.969 87.59 60.184 102.527l.922 1.257c9.821 13.606 28.446 46.305 30.745 78.867 1.447 20.504 1.402 33.518 4.37 45.939 2.821 11.806 8.451 23.058 21.894 38.518 6.599 7.588 13.139 13.229 19.573 18.324 6.256 4.954 13.055 9.857 19.081 15.25 12.769 11.428 23.172 25.896 29.54 54.306a6.992 6.992 0 01-13.556 3.407l-.088-.349-.272-1.192c-5.758-24.83-14.58-36.473-24.949-45.753-5.625-5.034-11.469-9.191-18.437-14.708-6.79-5.377-14.059-11.621-21.441-20.111-14.52-16.698-21.474-29.916-24.945-44.442-3.323-13.91-3.368-29.094-4.717-48.204-2.036-28.841-19.006-59.003-28.071-71.581-1.953-3.975 0-4.88 0-9.811s-19.951-21.634-40.458-50.53c-13.835-19.495-15.826-37.93-14.805-47.979-6.322 4.486-12.431 9.316-18.29 14.358-4.991 4.371-9.81 8.951-13.918 14.149-3.708 4.862-8.693 12.234-3.717 17.251l.031.035c19.624 24.472 21.428 57.372 21.532 87.427-.173.956-.361 1.906-.56 2.849-.546 5.467-2.586 11.675-5.687 18.385-12.689 31.207-38.178 56.376-56.747 84.333-4.285 6.637-10.457 13.905-8.922 21.59 1.816 3.547 6.931 2.879 10.685 2.321 3.985-.678 7.871-1.916 11.767-3.105 11.123-16.499 11.533-49.507 38.327-50.816 11.455.541 17.133 11.986 21.318 21.009 4.12 9.579 6.709 19.742 8.42 29.986 1.665 10.25 2.465 20.731 1.743 31.094-.395 5.183-1.14 10.385-2.92 15.354-1.718 4.802-5.06 10.201-10.815 10.572-30.095-1.257-34.112-46.919-63.739-42.902-4.475 1.757-10.544 4.163-10.413 9.281.89 4.88 6.055 7.831 10.445 10.001l.04.021c30.271 20.221 41.014 61.791 30.834 95.814-10.3 35.257-43.986 57.527-78.002 66.928-18.072 4.998-35.837 10.443-54.733 10.614-4.745-.165-9.643-.77-13.463-3.783-3.895-3.058-4.738-8.375-4.438-12.97.74-9.497 3.995-18.235 7.023-27.032C63.79 544.872 77.01 509.929 82 472.948a270.359 270.359 0 002.212-22.453c1.394-25.192 1.442-50.33-1.077-75.225a314.31 314.31 0 00-7.489-43.524c-1.672-7.093-3.824-14.237-5.044-21.537-1.597-7.276.68-15.549 6.636-20.319 9.535-9.294 8.143-24.209 6.585-36.674-.9-6.446-2.232-12.813-3.483-19.221-.606-3.198-1.252-6.426-1.486-9.705-.015-1.636-.373-3.471 1.04-4.993.825-.705 2.039-.398 2.7-.134.912.37 1.447.706 2.26 1.247 7.322 4.775 16.244 6.571 24.917 7.611 4.371.478 8.786.692 13.166.521 2.175-.099 4.426-.263 6.464-.778.282-.075.534-.154.749-.235.276-.105.469-.193.668-.325.197-.128.263-.265.249-.282.004-.046-.093-.206-.306-.364-.829-.579-1.789-.874-2.911-1.218-7.82-2.582-13.608-8.905-17.836-15.663-1.999-3.448-3.927-7.244-3.685-11.455.079-2.142 1.837-4.208 3.99-4.494 2.073-.386 4.12.002 6.104.527 3.892 1.038 7.982 1.787 11.91 1.066 3.942-.539 7.219-4.101 6.681-8.083l-.002-.03c-.235-7.959.142-16.1 2.747-23.737 2.294-7.406 9.126-15.264 17.744-13.507 35.602-.078 77.533-11.338 92.795-46.357 3.154-8.865 11.993-16.554 21.864-15.08 9.487.656 18.665 3.149 28.067 2.66a52.686 52.686 0 007.695-.871c9.953-2.11 21.539-.226 28.603 7.664 7.109 7.66 10.041 18.06 11.495 28.104.56 3.927 1.711 7.95 4.293 10.878 1.616.255 3.026.31 4.217.175 1.653-.188 2.605-.708 3.254-1.344.694-.681 1.605-2.055 2.157-4.885 2.112-10.824 6.562-18.914 12.607-25.278 5.922-6.235 13.125-10.54 20.242-14.203 14.768-7.602 28.866-12.633 40.08-25.327 5.483-6.208 11.487-16.468 16.95-28.987 5.418-12.415 10.11-26.61 13.156-40.37 3.062-13.838 4.366-26.826 3.309-36.971-1.089-10.451-4.411-15.89-8.505-17.97-15.756-8.003-22.743-16.566-25.16-25.991-1.124-4.384-1.122-8.506-1.078-11.73.048-3.511.114-5.677-.288-7.686-.514-2.567-1.56-5.62-2.851-10.19-1.17-4.145-2.404-9.159-2.581-14.118-.178-4.983.684-10.717 4.544-15.523 3.911-4.867 9.942-7.602 17.596-8.56 3.476-.434 8.017-2.522 13.423-6.515 5.291-3.907 6.792-4.497 12.213-10.469zM178.452 432.688c-4.119-2.675-8.457-3.915-13.2-2.775 5.065-.28 9.38.798 13.2 2.775zm-4.193-19.015a26.963 26.963 0 01-2.09 2.839c.741-.559 1.426-1.536 2.09-2.839zm30.042-83.93c-4.949 7.936-10.694 16.211-16.702 24.528 5.986-7.985 11.716-16.095 16.702-24.528z" fill="#2872B2"/><path d="M76.41 322.3a6.15 6.15 0 00.493-1.644c1.117-7.345 11.892-6.741 12.181.683l8.521 219.135a13.115 13.115 0 01-8.194 12.673c-6.9 2.788-14.735-.716-17.257-7.717l-6.635-18.417-4.237-13.496a87.012 87.012 0 012.173-58.238 87.01 87.01 0 004.58-48.72l-3.414-17.625a91.428 91.428 0 016.734-55.672L76.41 322.3z" fill="#2872B2"/><path d="M289.734 191.236h-13.785v-9.493h13.785v9.493zm-6.891-4.726a.699.699 0 00-.643.427.707.707 0 00-.052.265v1.909h1.389v-1.909a.688.688 0 00-.203-.488.7.7 0 00-.491-.204zm9.511 14.612h-19.027v-9.493h19.027v9.493zm-14.358-7.329a.698.698 0 00-.644.425.68.68 0 00-.053.264v1.912h1.391v-1.912a.686.686 0 00-.203-.487.698.698 0 00-.491-.202zm9.691 0a.698.698 0 00-.491.202.686.686 0 00-.203.487v1.912h1.391v-1.912a.68.68 0 00-.204-.488.695.695 0 00-.493-.201zm-4.854-34.231l3.277 13.276h-6.555l3.278-13.276z" fill="#A7C3A1"/><path d="M282.86 157l.348 1.062h1.125l-.909.657.348 1.061-.912-.657-.91.657.346-1.061-.909-.657h1.125l.348-1.062zm12.554 55h-9.813v-5.162c0-.721-.289-1.412-.803-1.922a2.751 2.751 0 00-1.938-.796c-.727 0-1.424.286-1.938.796a2.707 2.707 0 00-.803 1.922V212h-9.81v-10.481h25.105V212zm-8.5-30.649h-8.145v-8.116h8.145v8.116zm-6.338-5.28a.695.695 0 00-.642.425.662.662 0 00-.052.264v3.684h1.391v-3.684a.688.688 0 00-.697-.689zm2.264 0a.695.695 0 00-.642.425.662.662 0 00-.052.264v3.684h1.391v-3.684a.67.67 0 00-.203-.489.688.688 0 00-.494-.2zm2.264 0a.68.68 0 00-.642.425.662.662 0 00-.052.264v3.684h1.391v-3.684a.67.67 0 00-.203-.489.688.688 0 00-.494-.2zM315 202.58a.505.505 0 00-.04.199V204h.04v8h-2.941v-2.757a1.7 1.7 0 00-1.708-1.787 1.72 1.72 0 00-1.242.529 1.682 1.682 0 00-.466 1.258V212h-3.216v-2.6a3.416 3.416 0 00-1.045-2.366 3.475 3.475 0 00-4.824 0 3.415 3.415 0 00-1.044 2.366v2.6h-2.702v-10.481H315v1.061zm-16.944-.313a.495.495 0 00-.497.492V204h.992v-1.241a.494.494 0 00-.495-.492zm2.919 0a.515.515 0 00-.514.512V204h1.031v-1.221a.514.514 0 00-.517-.512zm2.902 0a.519.519 0 00-.365.15.508.508 0 00-.151.362V204h1.033v-1.221a.514.514 0 00-.517-.512zm2.9 0a.518.518 0 00-.476.316.508.508 0 00-.039.196V204h1.031v-1.221a.51.51 0 00-.152-.362.522.522 0 00-.364-.15zm2.899 0a.518.518 0 00-.517.512V204h1.034v-1.221a.509.509 0 00-.319-.473.518.518 0 00-.198-.039zm2.899 0a.519.519 0 00-.516.512V204h1.033v-1.221a.507.507 0 00-.319-.473.518.518 0 00-.198-.039z" fill="#A7C3A1"/><path d="M269.829 197.462h3.08v3.626h-3.08V212H254v-14.538l8.004-4.02 7.825 4.02zm-12.71 11.107h1.55v-3.032h-1.55v3.032zm3.933 0h1.547v-3.032h-1.547v3.032zm3.93-3.032v3.032h1.55v-3.032h-1.55zm-7.863-2.363h1.55v-3.032h-1.55v3.032zm3.933 0h1.547v-3.032h-1.547v3.032zm3.932 0h1.548v-3.032h-1.548v3.032z" fill="#A7C3A1"/><path d="M599.121 957.296l7.872 4.037-20.084-2.523v-12.716l8.175-1.514v-2.624l5.349-.807.606 4.945-14.13 6.358 4.34 4.844h7.872z" fill="#407E40"/><path d="M586.909 952.452l4.34 4.844h7.872l7.872 4.037-20.084-2.523v-6.358zm0 0l14.13-6.358-.606-4.945-5.349.807v2.624l-8.175 1.514v6.358z" stroke="#C9EBC9" stroke-width=".5"/><path d="M584.891 958.306l-7.166-.909-.466-2.977-.467-2.977-.379-2.422h-1.11l-.303-2.927 9.891-2.22v14.432z" fill="#407E40"/><path d="M576.413 949.021h-1.11l-.303-2.927 9.891-2.22v4.339m-8.478.808l8.478-.808m-8.478.808l.379 2.422m8.099-3.23v3.23m0 0h-8.099m8.099 0v2.977m-8.099-2.977l.467 2.977m0 0l.466 2.977 7.166.909v-3.886m-7.632 0h7.632" stroke="#C9EBC9" stroke-width=".5"/><path d="M782.994 942.844v-9.577c-1.12 0-2.228.033-3.319.093v9.43l3.319.054zm-3.319-.054v-9.43c-1.2.067-2.38.168-3.531.296v9.076l3.531.058zm-3.531-.058v-9.076a68.121 68.121 0 00-4.379.635l1.342 8.391 3.037.05z" fill="#AA2929" fill-opacity=".5"/><path fill-rule="evenodd" clip-rule="evenodd" d="M838.152 950.429l-5.791 3.884-2.402-1.209-3.884-1.954-3.778-1.902-3.779-1.901-4.025-2.026-4.026-2.026-5.085-.083-4.378-.072-3.955-.065-3.602-.059-3.531-.058-3.464-.057-3.458-.057v-9.577c1.16 0 2.315.033 3.458.093a72.96 72.96 0 013.464.268 82.046 82.046 0 017.133 1.045 90.283 90.283 0 018.333 1.996 66.604 66.604 0 015.085 1.683c1.482.189 4.068.668 6.992 1.486 1.41.394 2.898.868 4.379 1.425a38.315 38.315 0 013.955 1.735c.19.098.378.197.565.297a152.697 152.697 0 016.709 3.857c2.402 1.465 4.207 2.661 5.085 3.277zm-66.387-16.138l1.342 8.391-1.342-.022-1.412.633-3.178 1.425-5.65 2.532-2.084-4.272 5.78-2.432-1.954-4.172a64.785 64.785 0 013.413-.977 69.245 69.245 0 015.085-1.106z" fill="#407E40"/><path d="M763.267 936.374c-2.661.844-4.709 1.698-5.909 2.331l2.083 4.273 5.78-2.432-1.954-4.172z" fill="#AA2929" fill-opacity=".5"/><path d="M810.467 943.295l-5.085-.083m5.085.083v-4.943m0 4.943l4.026 2.026m-31.499-12.054v9.577m0-9.577c-1.12 0-2.228.033-3.319.093m3.319-.093c1.16 0 2.315.033 3.458.093m24.015 4.992a66.604 66.604 0 00-5.085-1.683m5.085 1.683c1.482.189 4.068.668 6.992 1.486m-34.465 3.006l-3.319-.054m3.319.054l3.458.057m-6.777-9.541v9.43m0-9.43c-1.2.067-2.38.168-3.531.296m3.531 9.134l-3.531-.058m0-9.076v9.076m0-9.076a68.121 68.121 0 00-4.379.635m4.379 8.441l-3.037-.05m-1.342-8.391l1.342 8.391m-1.342-8.391a69.245 69.245 0 00-5.085 1.106m6.427 7.285l-1.342-.022-1.412.633m-3.673-7.896l3.673 7.896m-3.673-7.896a64.785 64.785 0 00-3.413.977m7.086 6.919l-3.178 1.425m-3.908-8.344c-2.661.844-4.709 1.698-5.909 2.331l2.083 4.273m3.826-6.604l1.954 4.172m1.954 4.172l-5.65 2.532-2.084-4.272m7.734 1.74l-1.954-4.172m0 0l-5.78 2.432m27.011-9.618v9.541m0-9.541a72.96 72.96 0 013.464.268m-3.464 9.273l3.464.057m0-9.33v9.33m0-9.33c1.199.122 2.379.27 3.531.438m-3.531 8.892l3.531.058m0-8.95v8.95m0-8.95a86.51 86.51 0 013.602.607m-3.602 8.343l3.602.059m0-8.402v8.402m0-8.402c1.381.262 2.704.547 3.955.843m-3.955 7.559l3.955.065m4.378-6.471v6.543m0-6.543a89.76 89.76 0 00-4.378-1.153m4.378 7.696l-4.378-.072m0-7.624v7.624m16.455-3.302l-2.966 5.483m2.966-5.483c1.41.394 2.898.868 4.379 1.425m-7.345 4.058l4.025 2.026m3.32-6.084l-3.32 6.084m3.32-6.084a38.315 38.315 0 013.955 1.735m-7.275 4.349l3.779 1.901m7.662 3.856l2.402 1.209 5.791-3.884c-.878-.616-2.683-1.812-5.085-3.277m-3.108 5.952l3.108-5.952m-3.108 5.952l-3.884-1.954m6.992-3.998a152.697 152.697 0 00-3.673-2.168m-3.319 6.166l3.319-6.166m-3.319 6.166l-3.778-1.902m7.097-4.264a144.028 144.028 0 00-3.036-1.689c-.187-.1-.375-.199-.565-.297m-3.496 6.25l3.496-6.25" stroke="#C9EBC9" stroke-width=".5"/><path d="M754.886 939.623c-1.969.701-4.36 1.732-6.921 3.053l2.189 4.346 6.745-3.056-2.013-4.343z" fill="#AA2929" fill-opacity=".5"/><path fill-rule="evenodd" clip-rule="evenodd" d="M738.43 957.844l-3.178-6.639a54.46 54.46 0 013.178-2.58 62.449 62.449 0 012.896-2.048 68.201 68.201 0 013.178-1.991l4.096 8.524-3.39 1.578-3.139 1.461-3.641 1.695zm13.913-6.477l6.568-3.057-2.012-4.344-6.745 3.056 2.189 4.345z" fill="#407E40"/><path d="M744.504 944.586l4.096 8.524 3.743-1.743-2.189-4.345-2.189-4.346a69.4 69.4 0 00-3.461 1.91z" fill="#AA2929" fill-opacity=".5"/><path d="M738.43 948.625a54.46 54.46 0 00-3.178 2.58l3.178 6.639 3.641-1.695m-3.641-7.524l3.641 7.524m-3.641-7.524a62.449 62.449 0 012.896-2.048m.745 9.572l3.139-1.461m0 0l-3.884-8.111m3.884 8.111l3.39-1.578m-7.274-6.533a68.201 68.201 0 013.178-1.991m0 0l4.096 8.524m-4.096-8.524a69.4 69.4 0 013.461-1.91m.635 10.434l3.743-1.743m0 0l6.568-3.057-2.012-4.344m-4.556 7.401l-2.189-4.345m-2.189-4.346c2.561-1.321 4.952-2.352 6.921-3.053l2.013 4.343m-8.934-1.29l2.189 4.346m0 0l6.745-3.056" stroke="#C9EBC9" stroke-width=".5"/><path fill-rule="evenodd" clip-rule="evenodd" d="M843.661 952.83l-2.26-1.06-4.874 3.285 3.546 5.261 3.588-7.486zm-7.416 10.089l-3.672-5.199-7.204 4.856 10.876.343z" fill="#407E40"/><path d="M838.787 963l1.286-2.684-3.546-5.261-3.954 2.665 3.672 5.199 2.542.081z" fill="#AA2929" fill-opacity=".5"/><path d="M836.527 955.055l4.874-3.285 2.26 1.06-3.588 7.486m-3.546-5.261l3.546 5.261m-3.546-5.261l-3.954 2.665m7.5 2.596L838.787 963l-2.542-.081m0 0l-10.876-.343 7.204-4.856m3.672 5.199l-3.672-5.199" stroke="#C9EBC9" stroke-width=".5"/><path d="M779.393 945.332l-2.825-.059-3.465 5.297 2.193 1.412h3.975l.122-6.65zm4.308.091l-4.308-.091-.122 6.65h4.327l.103-6.559z" fill="#AA2929" fill-opacity=".5"/><path fill-rule="evenodd" clip-rule="evenodd" d="M823.815 960.104l6.074-4.096-7.216-3.673-3.66-1.863v4.123h-5.156v-6.747l-3.672-1.869-.989-.021-4.237-.089-4.52-.095-4.026-.084-4.661-.098-3.955-.083-4.096-.086-.103 6.559h-8.302l-2.193-1.412-3.88 5.932 3.319 2.19 1.836.05 4.767.131 4.344.116 4.308.123 3.955.109 4.661.128 4.026.111 4.52.125 4.237.116 4.661.129 5.156.142 3.66.101 1.142.031z" fill="#407E40"/><path d="M819.013 950.472l-5.156-2.624v6.747h5.156v-4.123z" fill="#AA2929" fill-opacity=".5"/><path d="M822.673 952.335l7.216 3.673-6.074 4.096-1.142-.031m0-7.738v7.738m0-7.738l-3.66-1.863m3.66 9.601l-3.66-.101m0 0l-5.156-.142m5.156.142v-5.377m0-4.123l-5.156-2.624m5.156 2.624v4.123m-5.156-6.747l-3.672-1.869-.989-.021m4.661 1.89v5.335m0 6.647l-4.661-.129m4.661.129v-5.235m-4.661-8.637l-4.237-.089m4.237.089v6.377m0 7.366l-4.237-.116m4.237.116v-6.518m-4.237-7.314v13.716m0-13.716l-4.52-.095m4.52 13.811l-4.52-.125m0 0v-13.686m0 13.686l-4.026-.111m4.026-13.575l-4.026-.084m0 0v13.659m0-13.659l-4.661-.098m4.661 13.757l-4.661-.128m0 0v-13.629m0 13.629l-3.955-.109m3.955-13.52l-3.955-.083m0 0v13.603m0-13.603l-4.096-.086m4.096 13.689l-4.308-.123m.212-13.566l-4.308-.091m4.308.091l-.103 6.559m-.109 7.007l-4.344-.116m4.344.116l.109-7.007m-4.205-6.65l-2.825-.059-3.465 5.297m6.29-5.238l-.122 6.65m-.126 6.891l-4.767-.131m4.767.131l.126-6.891m-6.168-1.412l-3.88 5.932 3.319 2.19 1.836.05m-1.275-8.172l2.193 1.412m0 0l-.918 6.76m.918-6.76h3.975m0 0h4.327m0 .353h25.598m0 0v.848m0 0h4.661m0 0v1.412m0 0h5.156" stroke="#C9EBC9" stroke-width=".5"/><path d="M759.971 950.57l2.189 4.52 3.461 2.472-2.791 4.52-2.181 3.531-1.919 3.107-1.09 1.766h-13.63l-.387-.848-2.285-5.014-2.06-4.52 5.518-2.542 3.066-1.413 3.512-1.618 3.512-1.618 5.085-2.343z" fill="#407E40"/><path d="M762.16 955.09l-2.189-4.52-5.085 2.343m7.274 2.177l3.461 2.472-2.791 4.52m-.67-6.992l-4.52 3.547m-14.017 11.001l.387.848h7.262m-7.649-.848l4.907-3.85m-4.907 3.85l-2.285-5.014m16.302-5.987l5.19 3.445m-5.19-3.445l-2.754-5.724m2.754 5.724l-3.039 2.385m8.229 1.06l-2.181 3.531m0 0l-6.611-4.149m6.611 4.149l-1.919 3.107m-4.692-7.256l-2.766 2.171m2.766-2.171l.563-.442m4.129 7.698l-1.09 1.766h-6.368m7.458-1.766l-7.458-5.085m0 0v6.851m0-6.851l-3.41-7.486m3.41 7.486l-2.742 2.153m-.668-9.639l3.512-1.618m-3.512 1.618l-3.066 1.413m10.09-4.649l-3.512 1.618m3.227 6.491l-3.227-6.491m-2.844 11.257l-1.683-3.706m-2.051-4.52l-5.518 2.542 2.06 4.52m3.458-7.062l2.051 4.52m0 0l-5.509 2.542" stroke="#C9EBC9" stroke-width=".5"/><path d="M771.553 961.375l-3.531-2.33-2.848 4.449 5.3 3.249 1.079-5.368z" fill="#AA2929" fill-opacity=".5"/><path fill-rule="evenodd" clip-rule="evenodd" d="M764.773 994.851h-4.661v-23.447l2.848-4.449 6.633 4.166-.512 2.543-.414 2.542-.645 3.955-1.201 4.308-.211 5.085-1.837 5.297z" fill="#407E40"/><path d="M770.474 966.743l-5.3-3.249-2.214 3.461 6.633 4.166.881-4.378z" fill="#AA2929" fill-opacity=".5"/><path d="M760.112 971.404l2.848-4.449m-2.848 4.449l8.969 2.26m-8.969-2.26v4.802m6.498 13.348l-1.837 5.297h-4.661v-5.297m6.498 0l.211-5.085m-.211 5.085h-6.498m6.709-5.085l1.201-4.308m-1.201 4.308h-6.709m7.91-4.308l.645-3.955m-.645 3.955h-7.91m8.969-6.497l.512-2.543m-.512 2.543l-.414 2.542m1.807-9.463l1.079-5.368-3.531-2.33-2.848 4.449m5.3 3.249l-5.3-3.249m5.3 3.249l-.881 4.378m-4.419-7.627l-2.214 3.461m6.633 4.166l-6.633-4.166m5.707 9.251h-8.555m0 0v3.955m0 0v4.308m0 0v5.085" stroke="#C9EBC9" stroke-width=".5"/><path d="M749.165 986.658v-6.85h-4.449v6.85h4.449zm-5.155-6.85h-3.461l-.918 6.85h5.085v-6.85h-.706z" fill="#AA2929" fill-opacity=".5"/><path d="M738.677 978.668l-5.19 7.99h6.144l.918-6.85-1.872-1.14z" fill="#AA2929" fill-opacity=".5"/><path fill-rule="evenodd" clip-rule="evenodd" d="M757.64 972.957v13.701h-8.475v-6.85h-8.616l-1.872-1.14-3.001-1.826-.424.594-3.606 5.056-3.527-7.981.864-1.201 2.314-3.218 2.402-3.34 3.46-4.812 3.551 7.486 1.675 3.531h15.255z" fill="#407E40"/><path d="M731.646 982.492l1.841 4.166 5.19-7.99-3.001-1.826-.424.594-3.606 5.056z" fill="#AA2929" fill-opacity=".5"/><path d="M733.487 986.658l-1.841-4.166m1.841 4.166l5.19-7.99m-5.19 7.99h6.144m2.754-13.701l-1.675-3.531m1.675 3.531l-3.708 5.711m3.708-5.711h3.32m11.935 6.851v-6.851h-4.237m4.237 6.851v6.85h-4.237m4.237-6.85h-4.237m-12.854 0l-1.872-1.14m1.872 1.14h3.461m-3.461 0l-.918 6.85m-3.955-9.816l-.424.594m.424-.594l1.822-2.684m-1.822 2.684l3.001 1.826m-7.031 3.824l-3.527-7.981.864-1.201m2.663 9.182l3.606-5.056m5.458-8.01l-3.551-7.486-3.46 4.812m7.011 2.674l-.911 1.342m-4.547 6.668l-6.269-4.126m0 0l2.314-3.218m0 0l6.201 4.066m-6.201-4.066l2.402-3.34m3.799 7.406l2.301-3.39m-6.1-4.016l6.1 4.016m5.906 2.189l-1.695 6.851m1.695-6.851h3.46m-5.155 6.851h.706m4.449-6.851h4.238m-4.238 0v6.851m0 6.85h4.238m-4.238 0v-6.85m0 6.85h-4.449m8.687-13.701v6.851m0 6.85v-6.85m0 0h-4.238m0 0h-4.449m0 0v6.85m0 0h-5.085" stroke="#C9EBC9" stroke-width=".5"/><path d="M758.629 989.625v5.226h-36.513v-3.531l-1.503-4.449-1.039-3.178-1.06-3.037a719.086 719.086 0 015.438-11.795 85.16 85.16 0 013.049-5.861c1.141-1.993 2.06-3.385 2.531-4.026 0-.73.099-2.359.494-3.037.396-.678 2.236-2.213 3.107-2.895l2.755 5.932-1.548 2.189-3.345 4.732-3.865 5.466-1.977 2.797 1.216 2.896 1.217 2.895 1.335 3.179 1.305 3.107 1.424 3.39h26.979z" fill="#407E40"/><path d="M731.65 989.625h3.955m-3.955 0l-5.367 5.226m5.367-5.226l-1.424-3.39m-.694-27.261c0-.73.099-2.359.494-3.037.396-.678 2.236-2.213 3.107-2.895l2.755 5.932-1.548 2.189m-4.808-2.189c-.471.641-1.39 2.033-2.531 4.026m2.531-4.026l4.808 2.189m-10.388 7.698a719.086 719.086 0 00-5.438 11.795m5.438-11.795l3.178 2.5m-3.178-2.5a85.16 85.16 0 013.049-5.861m-8.487 17.656l1.06 3.037m-1.06-3.037l7.855-3.602m-4.253 14.266v3.531h4.167m-4.167-3.531l8.11-5.085m-8.11 5.085l-1.503-4.449m32.437 2.754h5.579v5.226h-5.579m0-5.226v5.226m0-5.226h-5.65m5.65 5.226h-5.65m0-5.226v5.226m0-5.226h-5.862m5.862 5.226h-5.862m0-5.226v5.226m0-5.226h-5.933m5.933 5.226h-5.933m0-5.226v5.226m0 0h-9.322m3.943-8.616l-1.305-3.107m0 0l-8.308 3.743m8.308-3.743l-1.335-3.179m-6.973 6.922l-1.039-3.178m8.012-3.744l-8.012 3.744m8.012-3.744l-1.217-2.895m0 0l-1.216-2.896 1.977-2.797m0 0l3.865-5.466m0 0L727.001 963m3.994 2.895l3.345-4.732" stroke="#C9EBC9" stroke-width=".5"/><path d="M693.889 968.095v12.212H671.08l-2.221 1.247-3.128 1.757-2.019 1.134-6.56-3.331-6.56-3.33 3.987-2.212 3.986-2.212 3.432-1.905 3.431-1.904 2.624-1.456h25.837z" fill="#407E40"/><path d="M671.08 980.307h3.835m-3.835 0v-12.212m0 12.212l-2.221 1.247m25.03-7.353v-6.106h-3.735m3.735 6.106v6.106h-3.735m3.735-6.106h-25.837m0 0l-2.624-4.65m2.624 4.65l-2.928 1.857m-7.972 5.056l6.56 3.331 2.019-1.134m-8.579-2.197l-6.56-3.33 3.987-2.212m2.573 5.542l2.387-1.513m-.974-6.241l3.583 4.975 3.583 4.976m-7.166-9.951l-3.986 2.212m3.986-2.212l3.432-1.905m3.734 11.856l3.128-1.757m-14.28-5.982l4.96 4.029m0 0l5.585-3.543m25.03-7.963v12.212m0-12.212h-3.936m3.936 12.212h-3.936m0-12.212v12.212m0-12.212h-3.532m3.532 12.212h-3.532m0-12.212v12.212m0-12.212h-3.936m3.936 12.212h-3.936m0-12.212v12.212m0-12.212h-3.835m3.835 12.212h-3.835m0-12.212v12.212m0-12.212h-3.835m0 0h-3.028l-2.624 1.456m0 0l-3.431 1.904m0 0l3.127 4.603m3.735 5.496l-3.735-5.496" stroke="#C9EBC9" stroke-width=".5"/><path d="M692.072 993.124h1.716l1.11-1.413 1.11-1.412v-22.204h6.56v26.745l-1.413.743-4.137 2.176-4.946 1.926-3.532-1.84-8.68-4.519 8.68-1.721 3.532-.701v2.22z" fill="#407E40"/><path d="M696.008 990.299v-3.735m0 3.735h6.56m-6.56 0l-1.11 1.412m-1.11 1.413h-1.716m1.716 0l3.23 4.635m-3.23-4.635l1.11-1.413m-2.826 1.413v-2.22l-3.532.701m3.532 1.519v6.561m0 0l4.946-1.926m-4.946 1.926l-3.532-1.84m7.468-26.117v-3.633h6.56v3.633m-6.56 0h6.56m-6.56 0v3.735m6.56-3.735v3.735m0 0h-6.56m6.56 0v3.734m-6.56-3.734v3.734m0 0h6.56m-6.56 0v3.633m6.56-3.633v3.633m0 0h-6.56m6.56 0v3.734m-6.56-3.734v3.734m0 0h6.56m0 0v3.735m0 0v4.541l-1.413.743m-4.137 2.176l4.137-2.176m-6.257-3.872l6.257 3.872m-12.615-3.978l-8.68 1.721 8.68 4.519m0-6.24v6.24" stroke="#C9EBC9" stroke-width=".5"/><path fill-rule="evenodd" clip-rule="evenodd" d="M693.99 988.886v-6.359h-16.552v9.285l6.156-1.088 3.331-.589 3.431-.607 3.634-.642zm-20.778.642l-6.977-3.771 5.047-3.23h1.93v7.001z" fill="#407E40"/><path d="M677.438 991.812v-9.285h-4.226v7.001l4.226 2.284z" fill="#AA2929" fill-opacity=".5"/><path d="M677.438 991.812l6.156-1.088m-6.156 1.088v-5.186m0 5.186l-4.226-2.284m17.144-7.001h3.634v6.359l-3.634.642m0-7.001v7.001m0-7.001h-3.431m3.431 7.001l-3.431.607m0-7.608v7.608m0-7.608h-3.331m3.331 7.608l-3.331.589m0-8.197h-6.156m6.156 0v4.099m0 4.098v-4.098m-6.156-4.099v4.099m0-4.099h-4.226m10.382 4.099h-6.156m-4.226 2.902l-6.977-3.771 5.047-3.23h1.93m0 7.001v-7.001" stroke="#C9EBC9" stroke-width=".5"/><path fill-rule="evenodd" clip-rule="evenodd" d="M671.685 994.638l-3.835.777-4.037.817-3.633.735-3.633.736-3.634.735-2.343.475-3.813.772-2.018 4.545 5.831 1.35 4.16.97 3.532-.97 3.533-.97 3.633-.99 3.936-.36 4.037-.37-1.716-8.252z" fill="#407E40"/><path d="M685.31 1001.8l-13.625-7.162 1.716 8.252 11.909-1.09z" fill="#AA2929" fill-opacity=".5"/><path d="M671.685 994.638l13.625 7.162-11.909 1.09m-1.716-8.252l1.716 8.252m-1.716-8.252l-3.835.777m-13.12 11.135l3.532-.97m-3.532.97l-1.817-8.112m1.817 8.112l-4.16-.97m14.858-1.96l3.936-.36m-3.936.36l-1.615-7.388m1.615 7.388l-3.633.99m11.606-1.72l-4.037.37m-1.514-7.845l1.514 7.845m-1.514-7.845l-4.037.817m0 0l-3.633.735m0 0l1.615 7.643m-1.615-7.643l-3.633.736m5.248 6.907l-3.533.97m-1.715-7.877l1.715 7.877m-1.715-7.877l-3.634.735m0 0l-2.343.475m0 6.667l-5.831-1.35 2.018-4.545 3.813-.772m0 6.667v-6.667" stroke="#C9EBC9" stroke-width=".5"/><path d="M648.877 997.162l6.055-10.598 3.254 1.615 4.114 2.041 6.055 3.005-8.881 1.795-5.248 1.061-5.349 1.081z" fill="#AA2929" fill-opacity=".5"/><path d="M658.186 988.179l-3.254-1.615-6.055 10.598 5.349-1.081m3.96-7.902l-3.96 7.902m3.96-7.902l4.114 2.041m-8.074 5.861l5.248-1.061m2.826-4.8l6.055 3.005-8.881 1.795m2.826-4.8l-2.826 4.8" stroke="#C9EBC9" stroke-width=".5"/><path d="M702.568 962.847v3.331h-35.121l-2.764 1.413-3.149 1.61-3.473 1.775-3.533 1.806-5.046 2.58-6.055-.404-4.845-2.566-4.3-2.278-4.48-2.374-3.331-1.764-4.642-1.009-9.992-1.11-2.22-2.826c2.12-.101 6.802-.424 8.579-.909 1.441-.393 3.053-.573 4.945-.513 1.022.032 2.127.135 3.33.312.486.071 1.03.245 1.615.496 1.3.556 2.807 1.489 4.34 2.508 1.44.957 2.903 1.991 4.239 2.859 1.131.736 2.17 1.353 3.028 1.706.319.132.658.251 1.009.359 1.274.391 2.715.633 4.037.776 1.441.155 2.742.192 3.532.177l3.218-1.665 3.219-1.666 3.353-1.735 3.473-1.797 4.096-2.119 4.844-.277 3.634-.208 3.734-.213 3.33-.191 3.23-.184 3.129-.179 3.128-.179 3.23-.184c1.603 0 2.981.199 4.138.531 3.038.87 4.541 2.649 4.541 4.111z" fill="#407E40"/><path d="M693.889 958.205v7.973m0-7.973c1.603 0 2.981.199 4.138.531m-4.138-.531l-3.23.184m-25.029 1.431l4.844-.277m-4.844.277l1.817 6.358m-1.817-6.358l-4.096 2.119m-13.263 6.863l3.218-1.665m-3.218 1.665l1.211 6.56m-1.211-6.56c-.79.015-2.091-.022-3.532-.177m-22.91-3.658l-9.992-1.11-2.22-2.826c2.12-.101 6.802-.424 8.579-.909 1.441-.393 3.053-.573 4.945-.513m-1.312 5.358l4.642 1.009m-4.642-1.009l1.312-5.358m3.33 6.367l3.331 1.764m-3.331-1.764l1.615-5.559m15.341 14.541l6.055.404m-6.055-.404l1.312-6.333m-1.312 6.333l-4.845-2.566m10.9 2.97l5.046-2.58m12.919-6.604h3.027m-3.027 0l-2.764 1.413m29.206-1.413h4.138m-4.138 0h-3.23m7.368-7.442c3.038.87 4.541 2.649 4.541 4.111v3.331h-4.541m0-7.442v7.442m-7.368-7.789v7.789m0-7.789l-3.128.179m3.128 7.61h-3.128m0-7.61v7.61m0-7.61l-3.129.179m3.129 7.431h-3.129m0-7.431v7.431m0-7.431l-3.23.184m3.23 7.247h-3.23m0-7.247v7.247m0-7.247l-3.33.191m3.33 7.056h-3.33m0-7.056v7.056m0-7.056l-3.734.213m3.734 6.843h-3.734m0-6.843v6.843m0-6.843l-3.634.208m3.634 6.635h-3.634m0-6.635v6.635m-8.94-4.239l3.149 5.652m-3.149-5.652l-3.473 1.797m6.622 3.855l-3.149 1.61m-3.473-5.465l3.473 5.465m-3.473-5.465l-3.353 1.735m6.826 3.73l-3.473 1.775m-3.353-5.505l3.353 5.505m-3.353-5.505l-3.219 1.666m6.572 3.839l-3.533 1.806m-3.039-5.645l3.039 5.645m-9.789-4.157c-1.322-.143-2.763-.385-4.037-.776m0 0c-.351-.108-.69-.227-1.009-.359-.858-.353-1.897-.97-3.028-1.706m4.037 2.065l-2.12 4.543m0 0l-4.3-2.278m2.383-4.33l-2.383 4.33m2.383-4.33c-1.336-.868-2.799-1.902-4.239-2.859m1.856 7.189l-4.48-2.374m2.624-4.815l-2.624 4.815m2.624-4.815c-1.533-1.019-3.04-1.952-4.34-2.508m0 0c-.585-.251-1.129-.425-1.615-.496a29.218 29.218 0 00-3.33-.312" stroke="#C9EBC9" stroke-width=".5"/><path d="M749.599 934.387l3.129 2.018c8.376-3.633 25.634-11.101 43.7-6.964 19.971 4.575 34.684 11.708 44.306 16.148l1.413-8.074-2.624-10.193C833.568 922.881 816.048 914 793.602 914c-28.057 0-47.334 12.111-49.655 15.441-1.857 2.665.774 4.407 2.321 4.946h3.331z" fill="#2872B2"/><path d="M614.136 945.577c.012-.886.075-1.535.21-1.67-.248-.198-.248-.221-.347-.258-.196-.062-.369-.161-.592-.271a4.11 4.11 0 00-1.625.42c-.445.21-.936.503-1.591.826-.899.444-2.293.831-2.98 1.541-.775.8-1.119 1.39-1.279 1.846-.16.456-.349.844-.344 1.571.013 2.014.048 2.648.309 3.159.347.681.691 1.443.948 1.835.259.395.569.861.9 1.318.295.407.409 1.129.985 1.922.295.406.464.838.9 1.145.628.442 1.025.719 2.046.626.678-.061 1.421-.109 2.13-.221.544-.087 1.227-.04 1.983-.358.529-.222 1.128-.302 2.008-.986.443-.345.81-.704 1.033-1.084.246-.42.549-.865.479-1.441-.061-.507.026-1.587-.531-1.601-.444-.01-.893.171-1.367.371-.382.161-.577.762-1.022.85a1.657 1.657 0 01-.69-.025c-.42-.099-1.014-.18-1.478-.296-.395-.099-.902-.116-1.244-.531-.482-.583-1.783-1.723-1.292-1.922.879-.355 3.169-.408 3.301-.886.024-.087.016-.196-.05-.271-.272-.308-.806-.62-.825-1.663-.036-2.007.018-3.449.025-3.946zm-22.033 6.658c-.169-.316-.276-.7-.276-.96.078 0 .154 0 .224-.008.069-.007.13-.023.2-.038.284-.077.657-.22 1.323-.446.407-.139.873-.446 1.406-.638.277-.1.582-.228.876-.346.464-.186 1.238-.43 1.946-.777.361-.177.58-.341 1.472-.616 1.319-.407 1.831-.624 2.39-.776 1.298-.353 1.899-.471 2.226-.668.471-.286 1.221-.623 1.237-.368.015.239.002.55-.062.808-.062.246-.176.579-.231.899-.061.362-.24.631-.261 1.495a54.55 54.55 0 00-.007 2.393c.023.733.083.901.076 1.166-.023.966-.044 1.311-.154 1.989-.023.145-.067.225-.264.237-.531.03-1.024.006-1.282-.055-.292-.069-.641-.111-.961-.207-.254-.077-1.096-.37-1.583-.669-.239-.147-.534-.363-1.49-.392-1.532-.046-1.9-.079-2.193-.162-.246-.069-.514-.11-.861-.292-.308-.162-.593-.437-1.5-.307-.376.054-.521.375-.954.416-.407.038-.73.005-.82-.117a.526.526 0 01-.092-.278c-.078-.662-.245-1.021-.385-1.283zm31.207 3.463c-2.113.652-2.599.915-2.942.915a1.03 1.03 0 00-.356.282 1.208 1.208 0 00-.22.339c-.044.119-.044.236 1.596.294 1.64.059 4.824.059 6.462.104 1.637.045 1.748.127 1.768.267.044.309.043.662.252.825a7.95 7.95 0 001.476.9c.502.236 1.377.287 1.444.828.059.472.074.961.327 1.06.15.058.395.091.56.013.531-.251 2.416-.564 3.511-.22.473.148 1.339.206 1.252.636-.045.22-.162.494-.385.559-.458.134-1.134.2-1.357.68-.102.221-.359.594-.145.693.761.353 1.929.14 2.479.205.25.03.509.127.708.341.399.428.886.685 1.683 1.062.842.398 1.521.783 2.183.573.279-.088.528-.214.618-.428.044-.104.063-.232-.002-.325-.28-.399-.909-.764-.824-1.372.016-.118.127-.191.252-.235.503-.176 1.397-.109 1.444-.653.059-.679.137-1.221.341-1.384.221-.176.415-.463.708-.516 1.058-.191 2.566-.211 2.995.076.442.296.882.75.869 1.255-.016.606-.287 1.132-.621 1.741-.073.133-.088.285.017.308.266.059.581-.036.916-.119.708-.176 1.237-.242 1.755-.354.546-.118 1.037-.136 1.564-.295.487-.147.93-.275 1.505-.472.517-.178 1.234-.391 1.785-.65.502-.236 1.29-.541 1.888-.826.62-.295 1.114-.617 1.726-.826.608-.207 1.296-.537 1.83-.753.693-.279 1.176-.472 1.711-.633.487-.147.946-.322 1.431-.398.472-.075.948-.171 1.416-.281.503-.118 1.742-.204 2.731-.25.959-.045 1.543-.143 2.094-.177.723-.045 1.318-.076 1.814-.193.503-.118 1.095-.159 1.638-.28.724-.162 1.296.135 3.13-.265.75-.164 1.512-.34 1.56-.873.074-.826.027-1.647.503-1.724.458-.074 1.107-.003 2.036-.724.19-.148.24-.27.204-.384-.074-.235-.232-.69-.68-.958-.221-.132-.672-.14-1.211-.206-.605-.073-1.141-.338-1.755-.235-.264.044-.477.158-.693.385-.575.605-.726 1.276-1.15 1.504-.192.102-.717.199-1.256.561-.589.397-1.141.446-1.405.848-.066.102-.098.226-.113-.067-.016-.293.127-1.217-.317-1.326-1.598-.395-2.179-.481-2.582-.789-.42-.322-.943-.837-1.405-1.183-.394-.296-.789-.695-1.454-.936-.542-.197-1.079-.386-1.977-.381-2.212.013-2.852.103-3.43.21-.53.099-1.139.415-2.391.196-.701-.122-1.149-.217-2.105-.357-.591-.086-1.13-.203-1.851-.197-1.475.013-2.036.024-2.806.248-1.06.308-2.131.87-2.732.638-.099-.038-.206-.142-.171-.234a.994.994 0 01.532-.555c1.176-.555 2.352-.893 2.931-.996.556-.099 1.197-.081 4.489-.234.794-.037 2.425.009 4.719-.074 1.027-.037 1.615-.227 2.273-.37.627-.136 1.034-.5 1.538-.714.493-.21.997-.312 1.663-.517.605-.187 1.256-.407 1.774-.691.652-.357 1.376-.673 1.217-1.096-.075-.197-.321-.467-.728-.887s-.622-1.196-1.308-1.268c-.579-.061-1.124-.056-1.502.013-.677.124-1.206.412-1.834.444-1.473.073-3.819-.134-5.46-.062-1.399.061-2.853.197-3.544.259-.555.049-1.764-.001-2.562.246-.555.173-1.102.184-1.675.296-.506.098-.993.229-2.046.357-.703.086-1.447.074-2.082.185a26.62 26.62 0 01-2.959.332c-1.625.088-2.862-.018-2.901.532-.048.666-.048 1.334.161 1.859.21.53.546.89 1.16 1.231.554.309 1.185.569 1.291 1.06.024.112.018.251-.076.332-.197.172-1.458.24-2.39.307-.518.037-1.065.232-1.749.481-.543.198-1.331.695-1.687.244-.332-.42-.638-.946-1.183-1.145-.854-.31-2.218-.77-2.981-.516l-.007.003c-.256.085-.54.18-.619.443-.049.162.004.424-.087.603-.309.616-.562 1.319-1.023 1.575-.444.247-2.818.385-4.312.455-.789.038-1.45.054-2.007.247-.606.21-1.31.348-1.849.543-.85.307-1.418.516-3.023 1.011z" fill="#339F33"/><path d="M484.466 485.444l.066.997a.978.978 0 00.093-.01l-.159-.987zm40.567-6.52l1 .013a.97.97 0 00-.015-.187l-.985.174zm-47.562 6.986l-.067-.998a.93.93 0 00-.074.008l.141.99zm-27.511-11.643l.351-.937a.684.684 0 00-.064-.021l-.287.958zm29.376 21.423l-.8-.601.8.601zm5.13 21.888l-.868.496a.955.955 0 00.133.182l.735-.678zm27.511 29.805l.83-.558a1.012 1.012 0 00-.095-.121l-.735.679zm24.713 36.791l-.83.557.02.029.81-.586zm-97.942-135.115l.994.11-.994-.11zm.488-4.597l.995.101a.979.979 0 00-.009-.265l-.986.164zm1.865-5.123l.707.707-.707-.707zm8.859-3.318l.223.975v-.001l-.223-.974zm3.731-.748l.17.985a.95.95 0 00.208-.06l-.378-.925zm10.724-10.837l.8.6c.02-.027.039-.055.056-.083l-.856-.517zm33.107-15.44l.451.892a1 1 0 00.291-.222l-.742-.67zm10.724-13.9l-.878-.48.878.48zm10.259 0l-1-.031v.048l1-.017zm.932 52.16l-1 .018c.001.052.006.104.015.156l.985-.174zm8.393 50.296l.916-.402-.916.402zm18.652 18.629l.707-.708-.707.708zm2.797 2.794l-.597.802h.001l.596-.802zm2.332 1.397l.554-.833a1.127 1.127 0 00-.095-.056l-.459.889zm12.123.932l.099.995-.099-.995zM161.796 178.076l.421-.907-.421.907zm-23.314-15.368l-.73-.684a1 1 0 00-.15 1.158l.88-.474zm13.522-14.437l.73.683a.995.995 0 00.265-.587l-.995-.096zm9.792-101.06l-.591-.806a.998.998 0 00-.404.71l.995.097zm78.424 115.496l.991-.134-.991.134zm156.118-147.63l.451-.892a.998.998 0 00-.451-.107v1zm-183.717.415l.109.994c.036-.004.072-.01.108-.018l-.217-.976zm-10.725 2.38l.382.924-.382-.924zm-1.398-49.366l.967-.253-.967.253zm-9.792-43.311l.98-.2a.994.994 0 00-.252-.486l-.728.686zm226.148 287.344l-.2.979a.996.996 0 00.396.001l-.196-.98zm44.297 25.613l.999.043.001-.043h-1zm78.336-47.502l-.321.947.321-.947zm29.843 8.849l.124.992-.124-.992zm20.983-9.538l-.299-.955.299.955zm28.909-3.037l-.149.989.149-.989zm.976.147l-.149.989h.001l.148-.989zm92.281-15.981l.135-.991a1 1 0 00-.692.16l.557.831zM490.061 84.002l-.94-.343c-.07.194-.079.404-.026.602l.966-.26zm18.652-51.228l-.883-.47a.985.985 0 00-.057.127l.94.343zM529.229-5.88l.883.468a1 1 0 00.103-.3l-.986-.168zm4.498-20.491l.941.337h.001l-.942-.337zm.631-1.397l-.832-.555.832.555zm36.371-59.611l.581.814.018-.014-.599-.8zm4.662-8.383l-.986-.167v.002l.986.165zm1.368-1.638a1 1 0 10-1.949-.449l.975.225.974.224zM315.67 188.322l.174-.985a.997.997 0 00-1.165.85l.991.135zm52.69 9.314l.277-.961a.905.905 0 00-.103-.024l-.174.985zm7.461 2.317l-.314.949.314-.949zm18.185 7.928l-.669.743c.133.119.295.201.469.237l.2-.98zm16.223-12.108l.981-.195-.981.195zm-8.296-28.408l.668-.744-.668.744zm-17.719-31.669l-.547.837.547-.837zm-40.567-28.408l-.899.438.899-.438zm-2.371-178.833l-1 .013 1-.013zm.574-32.147a1 1 0 00-2 .027l1-.013 1-.014zm-158.077-3.989a1 1 0 00-1.988.223l.994-.111.994-.112zm-13.118 97.144l-1-.025c-.004.176.038.35.122.504l.878-.48zm9.792-61.94l-.613-.79-.001.001.614.79zm.933-.754l-.645-.765.645.765zm4.663-5.3l.894.448a1 1 0 00.1-.559l-.994.112zm11.191 122.017l.862-.508-.862.508zm7.926 11.177l-.485.874.485-.874zm42.934 258.468l.772.635.011-.013-.783-.622zm-8.258-133.193l-.987.163c.01.061.026.12.047.177l.94-.34zm.762-14.437l.953.303a.996.996 0 00.038-.437l-.991.134zm74.606 114.565l.841-.541v-.001l-.841.542zm10.724 11.948l-.69.724.69-.724zm-80.681-101.127a1 1 0 00-.904-1.784l.452.892.452.892zm14.003 58.908l-.164.986.164-.986zm56.886 102.922l-.883.47a1 1 0 001.125.5l-.242-.97zm-77.869-204.446l-.998-.068c-.004.068-.002.135.007.202l.991-.134zm3.264-48.435l.998.067a1 1 0 00-.104-.516l-.894.449zm-2.475-5.122l-.912.41.009.02.903-.43zm-10.115-25.15l-.978.209c.005.026.012.05.019.076l.959-.284zm92.325 288.276l-.864.504.864-.504zm3.264 34.928l-.994.11a.907.907 0 00.014.091l.98-.201zm10.258 46.571l-.963.27.963-.27zm4.632 53.091l-.998.061c.031.514.448.92.962.938l.036-.999zm39.199 1.397l.999.034a1 1 0 00-.963-1.034l-.036 1zm-1.865 54.953l-1-.034a1 1 0 00.512.906l.488-.872zm30.308 16.95l-.004 1 .004-1zM324.53 347.736l-.391-.921a1.026 1.026 0 00-.119.061l.51.86zm23.78-14.113l.682.731-.682-.731zm51.4-97.333l-.98-.202v.001l.98.201zm4.853-26.4a1 1 0 00-1.996-.12l.998.06.998.06zm-6.754 34.316l.963.267.001-.001-.964-.266zm-6.134 15.834l.941.338-.941-.338zm-8.814 28.409l-.998-.06v.001l.998.059zm-.046 1.397l.841.541a1 1 0 00.159-.541h-1zm48.494-48.413l-.161.987h.001l.16-.987zm5.595.911l-.08.996.08-.996zm22.848 28.408l-.999-.043a.994.994 0 00.143.56l.856-.517zm123.1 182.092l-.723.69.01.011.713-.701zm77.724 27.477l.696.718-.696-.718zM499.2 532.68a1 1 0 10-1.493-1.331l.747.666.746.665zm-10.146 9.58l-.727-.687.727.687zm-21.841 19.561l-.618-.787a1.006 1.006 0 00-.301.392l.919.395zm-22.848 3.725l-.022-1 .022 1zm-28.91.204l.001-1-.001 1zm137.934-85.429l-.693-.721.693.721zm132.512-74.048l1 .023a1.025 1.025 0 00-.013-.183l-.987.16zm-.932 44.708l-.945-.327.945.327zm-4.197 9.78l.696.718.047-.049-.743-.669zm2.798-68.925l.987-.16a.918.918 0 01-.003-.02l-.984.18zm13.056-45.639l-.238.971c.032.008.064.014.097.019l.141-.99zm-21.916 59.145l.004 1-.004-1zm-53.623 3.654l-.013-1 .013 1zm46.163-84.688l.016-1h-.016v1zm2.331 6.52l-.942.336c.018.05.039.097.064.143l.878-.479zm53.919-5.588l.947-.322a1.059 1.059 0 00-.091-.196l-.856.518zM615.492 203.69l-.943.332.943-.332zm-17.974-27.477l-.837.547a.95.95 0 00.091.118l.746-.665zm67.4 177.901l-.371-.929.371.929zm4.663-5.123l.823.568c.017-.025.033-.051.048-.078l-.871-.49zm-58.752 6.986l-.412.911c.129.058.27.089.412.089v-1zm-29.842-13.506l.412-.911a1 1 0 00-1.076.163l.664.748zm-4.197 3.726l-.664-.748a1.014 1.014 0 00-.235.309l.899.439zm-8.393 15.368l-.841-.541.841.541zm44.297 61.94l.623.782.001-.001-.624-.781zm-1.017.931l.683.73-.683-.73zm-5.888 5.588l-.69-.724.69.724zm5.04 0l.711-.704a1.004 1.004 0 00-.41-.25l-.301.954zm-45.696 61.008l.437-.9-.015-.007-.422.907zm34.972-1.862l.671.741-.671-.741zm49.892-48.434l.707.707-.707-.707zm4.663-10.712l-.998-.063.998.063zm2.331-131.795l1 .018a.999.999 0 00-.076-.4l-.924.382zm-4.836-11.177l.911-.412v-.001l-.911.413zm-5.014-11.662a1 1 0 10-1.749.97l.875-.485.874-.485zm-45.638-8.83v-1h-.012l.012 1zm-80.201.932l-.494.869a.995.995 0 00.506.131l-.012-1zm-35.437 83.828l-.902.432c.046.095.106.182.179.258l.723-.69zm-10.259-21.423l-1-.015c-.002.155.031.307.098.447l.902-.432zm-1.443-18.163l.986-.165-.986.165zM373.49 333.623l.851-.525-.851.525zm60.617 101.65l.512-.859a1.008 1.008 0 00-.406-.136l-.106.995zm-4.31-57.874l-.956.293.956-.293zm-1.286-4.191l.956-.294a1.069 1.069 0 00-.083-.194l-.873.488zm-30.775-52.104l.856-.516-.016-.026-.84.542zm-8.331-12.63l-.821.57v.001l.821-.571zm43.393 78.705l-.956.293.956-.293zm4.573 14.903l-.978.208.978-.208zm1.865 22.354l1 .02v-.023l-1 .003zm-2.809-51.228l-.543-.84.543.84zm21.927-16.766l-.949-.317.949.317zm-221.301-83.827l-.952-.307a1.006 1.006 0 00-.028.505l.98-.198zm-2.983-33.997l-.899.438.899-.438zm-16.713-37.723l.886-.464-.886.464zm24.174 120.209l-.772-.636a1 1 0 00-.204.854l.976-.218zm8.859 39.53l.237.971a1 1 0 00.739-1.19l-.976.219zm-13.337 3.26l-.238-.972a1 1 0 00-.724 1.244l.962-.272zm4.478 46.105l-.955-.297a1 1 0 00.955 1.297v-1zm8.859 0l1 .018a.999.999 0 00-1-1.018v1zm-1.865 104.319l.758.652a1 1 0 00.242-.634l-1-.018zm-20.05 23.285l-.758-.653a1 1 0 00.245 1.511l.513-.858zm40.567 24.218l-.513.858a.987.987 0 00.49.141l.023-.999zm74.139 1.683l.042-.999-.019-.001-.023 1zm38.702 2.042l-.068.997.056.003.012-1zm12.123.111l-.007 1 .007-1zm22.411-.334a1 1 0 101.806.857l-.903-.428-.903-.429zm2.769-3.502l-.85-.527a.774.774 0 00-.053.098l.903.429zm14.921-42.846l.972-.235a1.02 1.02 0 00-.141-.322l-.831.557zm-5.596-12.574l-.991-.133.991.133zM546.948 98.905l.764-.645-.764.645zm-54.089-20.491l-.752.659a.998.998 0 00.67.337l.082-.996zm-7.927-9.048l-.797.604.045.055.752-.66zm-14.921-17.032l.675-.738-.675.738zM120.738 68.668a1 1 0 00-.884 1.794l.442-.897.442-.897zM247.126 56.99v-1a1.01 1.01 0 00-.394.08l.394.92zm152.009 0v1c.285 0 .557-.122.747-.335l-.747-.665zm331.784 80.833a1.001 1.001 0 00-1.838-.79l.919.395.919.395zm16.115 34.616a1 1 0 10-.068-1.999l.034.999.034 1zM610.829 686.5l-.81.587c.065.089.144.167.234.23l.576-.817zm154.671 109l.983-.185a.995.995 0 00-.407-.632l-.576.817zm8 42.5l-.983.185a.997.997 0 00.382.614l.601-.799zm48.5 36.5l-.601.799c.2.151.45.221.699.196L822 874.5zm35.5-3.5l.465-.885a1 1 0 00-.563-.11l.098.995zm68 61l.919-.394a.978.978 0 00-.035-.073l-.884.467zm-227.281 91.82l.062-.99-.062.99zm159.595-12.31l.36.93-.36-.93zM949.5 988l-.374.927 2.248.906-.955-2.227-.919.394zM666 795.5l.993-.119-.993.119zm-92.5 55l.916.401.096-.219-.014-.239-.998.057zm-10.5 24l-.916-.401-.066.15-.014.162.996.089zm-8.5 95.386l-.43.903.43-.903zm-70.034-484.442l.191-.982h-.002l-.002-.001-.006-.001-.013-.002a2.78 2.78 0 00-.404-.033 3.6 3.6 0 00-.887.106l.237.972.237.971a1.62 1.62 0 01.395-.049c.042 0 .07.003.082.004h.004l-.008-.001-.007-.001-.004-.001h-.003l-.001-.001.191-.981zm0 0l.159.987 40.567-6.52-.159-.987-.159-.988-40.567 6.52.159.988zm0 0l-.067-.998-.886.059.067.998.066.997.886-.059-.066-.997zm-.886.059l-.067-.998-6.109.407.067.998.066.997 6.109-.407-.066-.997zm-6.109.407l-.141-.99a17.62 17.62 0 00-1.251.221c-.31.065-.58.123-1.022.186-.906.129-2.539.282-6.504.515l.059.999.059.998c3.961-.233 5.67-.39 6.668-.532.51-.073.833-.142 1.149-.208.304-.063.61-.126 1.124-.199l-.141-.99zm-8.859.931l-.059-.999c-3.459.204-5.776-1.818-8.426-4.64-2.573-2.741-5.432-6.226-9.816-7.872l-.351.937-.352.936c3.844 1.442 6.347 4.477 9.061 7.368 2.638 2.809 5.533 5.531 10.002 5.268l-.059-.998zm-18.652-12.574l.287-.958c-1.728-.518-4.478-1.664-7.024-3.397-2.56-1.742-4.789-3.992-5.683-6.673l-.949.317-.949.316c1.094 3.28 3.736 5.842 6.456 7.694 2.735 1.861 5.675 3.089 7.575 3.659l.287-.958zm33.62 11.236l-.169-.986a2.274 2.274 0 00-1.215.588c-.327.313-.518.694-.64 1.055-.222.659-.3 1.557-.407 2.361-.228 1.712-.659 3.966-2.613 6.568l.8.601.8.6c2.242-2.987 2.745-5.623 2.995-7.505.132-.993.18-1.569.32-1.985.06-.176.11-.233.127-.249.006-.006.037-.04.171-.063l-.169-.985zm-4.244 10.187l-.8-.601c-1.287 1.715-1.455 4.112-1.161 6.5.298 2.428 1.101 5.074 2.017 7.494a69.069 69.069 0 002.788 6.308 71.424 71.424 0 001.389 2.632l.021.037a.044.044 0 00.006.01l.001.003.001.001.868-.496.868-.497-.001-.002-.005-.007a73.53 73.53 0 01-1.36-2.576c-.799-1.597-1.818-3.776-2.705-6.121-.891-2.353-1.633-4.829-1.903-7.03-.275-2.24-.035-3.976.776-5.055l-.8-.6zm5.13 21.888l-.735.678 27.511 29.805.735-.678.735-.679-27.511-29.805-.735.679zm-45.718-68.519l.994.11c.184-1.668.347-3.213.489-4.606l-.995-.101-.995-.101a515.649 515.649 0 01-.487 4.588l.994.11zm.488-4.597l.986-.164c-.113-.685-.004-2.663 1.586-4.252l-.707-.707-.707-.708c-2.14 2.138-2.341 4.815-2.145 5.995l.987-.164zm1.865-5.123l.707.707c.22-.22.612-.486 1.195-.778a17.786 17.786 0 012.053-.843c1.567-.548 3.411-1.037 5.127-1.429l-.223-.975-.223-.975c-1.754.401-3.677.909-5.341 1.491-.832.291-1.616.606-2.288.942-.659.331-1.272.711-1.714 1.152l.707.708zm8.859-3.318l.223.974a68.54 68.54 0 013.678-.737l-.17-.985-.17-.986c-1.268.218-2.53.471-3.784.759l.223.975zm3.731-.748l.378.925c.798-.326 2.19-1.278 4.036-3.011 1.875-1.76 4.283-4.387 7.11-8.151l-.8-.6-.8-.601c-2.769 3.688-5.101 6.225-6.878 7.894-1.806 1.695-2.979 2.436-3.424 2.618l.378.926zm10.724-10.837l.856.517c2.269-3.757 4.59-6.121 6.964-7.681 2.376-1.561 4.864-2.356 7.533-2.894 5.256-1.062 11.517-1.114 18.205-4.49l-.451-.892-.451-.893c-6.368 3.215-11.998 3.163-17.699 4.314-2.81.567-5.569 1.432-8.235 3.184-2.668 1.752-5.184 4.355-7.578 8.318l.856.517zm33.107-15.44l.742.67.001-.001.001-.001.004-.005.018-.02.068-.076.259-.29a166.746 166.746 0 003.992-4.671c2.33-2.832 5.067-6.373 6.517-9.027l-.878-.479-.878-.48c-1.348 2.469-3.972 5.878-6.305 8.716a164.056 164.056 0 01-3.942 4.612l-.254.284a3.088 3.088 0 01-.082.092l-.004.004-.001.001.742.671zm10.724-13.9l.878.479c1.186-2.173 3.36-3.069 5.405-3.398a13.57 13.57 0 013.653-.071l.049.007.01.002.155-.988.154-.988-.001-.001h-.002l-.007-.001a.401.401 0 00-.022-.003l-.074-.01a7.837 7.837 0 00-.266-.032 15.584 15.584 0 00-3.967.111c-2.33.375-5.231 1.463-6.843 4.413l.878.48zm-69.498 53.963l1 .019.079-3.991-1-.019-1-.02-.079 3.991 1 .02zm0 0l-.994-.11c-.445 4.019-1.218 9.033-2.149 14.437l.986.17.985.169c.934-5.417 1.715-10.478 2.166-14.556l-.994-.11zm79.648-57.932l-.996.086c.11 1.28.145 2.567.105 3.852l1 .031.999.031a34.821 34.821 0 00-.112-4.086l-.996.086zm.109 3.969l-1 .017.932 52.161 1-.018 1-.018-.932-52.16-1 .018zm.932 52.16l-.985.174 5.596 31.668.985-.174.985-.174-5.596-31.668-.985.174zm-1.041-56.129l.379.925 3.95-1.619-.379-.925-.379-.926-3.95 1.619.379.926zm0 0l.996-.084c-.135-1.61-.392-3.377-.843-4.986-.444-1.586-1.106-3.129-2.119-4.19l-.723.691-.723.69c.678.71 1.228 1.879 1.64 3.349.405 1.447.647 3.08.775 4.613l.997-.083zm6.637 87.797l-1-.013v.038l-.001.105v.398a82.256 82.256 0 00.296 6.345c.332 3.832 1.04 8.628 2.586 12.156l.916-.401.916-.402c-1.406-3.21-2.097-7.728-2.425-11.526a79.747 79.747 0 01-.289-6.181v-.38l.001-.096v-.03l-1-.013zm2.797 18.628l-.916.401c2.153 4.916 5.128 7.876 8.437 10.503 3.337 2.65 6.833 4.846 10.424 8.432l.707-.707.707-.708c-3.693-3.688-7.459-6.094-10.594-8.583-3.164-2.512-5.873-5.229-7.849-9.74l-.916.402zm18.652 18.629l-.707.707c.526.525.868.941 1.312 1.427.434.476.908.951 1.595 1.462l.597-.802.597-.803a8.702 8.702 0 01-1.312-1.205c-.372-.408-.809-.928-1.375-1.494l-.707.708zm2.797 2.794l-.596.802c.478.356 1.105.73 1.588 1.003.247.14.466.259.623.344l.187.099.051.027.015.007.003.002.002.001.459-.888.459-.889h-.001l-.002-.001a25.855 25.855 0 01-.809-.441c-.47-.267-1.009-.591-1.383-.869l-.596.803zm2.332 1.397c-.554.832-.554.832-.553.833l.002.001.003.002.007.005.018.011.049.03c.038.023.089.051.152.084.126.065.304.149.54.241.471.185 1.173.405 2.162.591 1.978.37 5.106.602 9.842.129l-.099-.995-.099-.995c-4.59.458-7.523.223-9.275-.105-.876-.164-1.456-.351-1.801-.487a3.51 3.51 0 01-.349-.155l-.058-.031-.002-.001.006.003.004.003.002.001a.003.003 0 00.002.001c0 .001.001.001-.553.834zm12.123.932l.099.995c4.711-.471 21.185-3.04 37.107-6.185 7.965-1.574 15.816-3.297 22.005-4.979 3.093-.841 5.792-1.677 7.889-2.486 1.049-.405 1.964-.809 2.711-1.211.732-.394 1.369-.821 1.802-1.293l-.737-.676-.737-.676c-.208.226-.613.527-1.276.884-.647.349-1.479.719-2.483 1.106-2.006.773-4.63 1.589-7.693 2.422-6.123 1.664-13.922 3.376-21.869 4.946-15.903 3.142-32.303 5.696-36.918 6.158l.1.995zM206.559 191.116l.252-.968h-.001l-.005-.002-.021-.005a3.936 3.936 0 00-.082-.021l-.319-.084-1.219-.32a1491.457 1491.457 0 01-18.213-4.92c-5.175-1.435-10.553-2.965-15.051-4.33-4.528-1.373-8.088-2.556-9.683-3.297l-.421.907-.421.907c1.747.811 5.452 2.034 9.944 3.397 4.521 1.371 9.916 2.907 15.097 4.344a1462.45 1462.45 0 0018.239 4.926l1.221.321.32.084.083.021.02.005.006.002h.001l.253-.967zm-44.763-13.04l.421-.907c-3.317-1.541-8.457-4.155-13.084-6.979-2.315-1.413-4.482-2.867-6.223-4.256-1.767-1.411-2.996-2.678-3.548-3.701l-.88.475-.88.474c.754 1.399 2.256 2.875 4.061 4.315 1.83 1.461 4.075 2.964 6.428 4.4 4.706 2.873 9.916 5.521 13.284 7.086l.421-.907zm-23.314-15.368l.73.683 13.522-14.437-.73-.683-.73-.684-13.522 14.437.73.684zm13.522-14.437l.995.096 9.792-101.059-.995-.096-.995-.097-9.792 101.059.995.097zm9.792-101.06l.59.808 27.977-20.47-.59-.807-.591-.807-27.977 20.47.591.807zm44.763 143.905l-.495.869 5.723 3.259.495-.869.495-.869-5.723-3.259-.495.869zm7.927-176.038v1h181.852v-2H214.486v1zm181.852 0l-.451.892 24.246 12.261.451-.892.451-.893-24.246-12.26-.451.892zm-181.852 0l-.966.26 13.522 50.105.966-.26.965-.26-13.522-50.106-.965.26zm0 0l-.217-.977-1.865.414.217.977.217.976 1.865-.414-.217-.976zm-1.865.414l-.109-.994h-.006l-.016.002a70.386 70.386 0 00-3.921.582c-2.198.392-4.968 1.002-7.056 1.866l.383.924.382.924c1.877-.777 4.469-1.358 6.643-1.745a67.66 67.66 0 013.522-.532l.215-.025.055-.006.013-.002h.004l-.109-.994zm-10.725 2.38l-.383-.924c-2.855 1.182-5.981 3.48-8.347 5.428a71.253 71.253 0 00-3.786 3.354 29.29 29.29 0 00-.288.279l-.016.015-.004.005h-.002v.001l.703.712.703.71h.001l.003-.003.013-.013.054-.053.216-.208a69.599 69.599 0 013.674-3.255c2.341-1.926 5.276-4.062 7.841-5.124l-.382-.924zm12.59-2.794l.951-.31-.001-.001-.001-.004-.005-.015-.02-.061-.077-.24-.3-.924a1358.356 1358.356 0 01-4.786-15.138c-2.897-9.343-6.388-20.968-8.782-30.132l-.967.253-.968.252c2.406 9.21 5.908 20.87 8.806 30.22a1408.041 1408.041 0 005.172 16.328l.02.06.005.016.002.004v.001l.951-.31zm-13.988-46.572l.967-.253c-2.186-8.368-4.63-19.18-6.53-27.907-.949-4.362-1.762-8.2-2.337-10.948-.287-1.374-.515-2.475-.672-3.233l-.179-.87-.046-.224-.011-.057a.052.052 0 01-.003-.014l-.001-.004-.98.199-.98.2.001.004a1.836 1.836 0 01.015.072l.046.227.18.872a1414 1414 0 003.013 14.202c1.901 8.732 4.352 19.576 6.549 27.986l.968-.252zm-9.792-43.311l.728-.686-4.82-5.122-.728.686-.728.685 4.82 5.122.728-.685zM461.151 203.69l-.196-.981-44.297 8.849.196.981.196.98 44.297-8.849-.196-.98zm-44.297 8.849l.2-.98-3.73-.761-.2.98-.2.98 3.73.76.2-.979zm44.297-8.849l.727.687 47.561-50.297-.726-.687-.727-.687-47.562 50.297.727.687zm0 0h-1v34.462h2V203.69h-1zm47.562-50.297l-.54.841c.99.636 3.232 2.593 5.459 4.775a66.58 66.58 0 013.059 3.183c.901 1.012 1.56 1.854 1.878 2.409l.868-.496.868-.497c-.429-.749-1.21-1.723-2.12-2.746a68.68 68.68 0 00-3.154-3.282c-2.218-2.173-4.593-4.268-5.778-5.029l-.54.842zm10.724 10.712l-.868.496c.362.633 1.191 2.353 2.454 4.777 1.239 2.38 2.852 5.35 4.71 8.341 1.856 2.986 3.971 6.018 6.22 8.51 2.231 2.473 4.677 4.509 7.213 5.368l.321-.947.321-.948c-2.049-.693-4.216-2.425-6.37-4.813-2.138-2.369-4.182-5.291-6.006-8.226-1.821-2.931-3.408-5.852-4.635-8.209-1.205-2.313-2.108-4.175-2.492-4.846l-.868.497zm20.05 26.545l-.321.947c2.232.755 4.443 1.768 6.725 2.86 2.267 1.084 4.614 2.252 7.047 3.271 4.888 2.048 10.243 3.55 16.516 2.763l-.124-.992-.124-.993c-5.789.726-10.77-.643-15.495-2.622-2.374-.995-4.652-2.129-6.957-3.231-2.289-1.095-4.593-2.154-6.946-2.951l-.321.948zm29.843 8.849l.124.992c4.687-.588 7.811-2.356 10.844-4.269 3.026-1.91 5.921-3.932 10.314-5.307l-.299-.954-.299-.955c-4.693 1.47-7.823 3.657-10.784 5.524-2.954 1.864-5.778 3.444-10.025 3.976l.125.993zm20.983-9.538l.299.954c8.801-2.755 18.891-4.445 28.461-3.002l.149-.989.149-.989c-9.978-1.504-20.392.265-29.357 3.071l.299.955zm28.909-3.037l-.149.989.976.147.149-.989.149-.989-.976-.147-.149.989zm.976.147l-.148.989c24.649 3.69 57.683 7.522 92.986-16.14l-.557-.83-.557-.831c-34.643 23.219-67.015 19.5-91.576 15.823l-.148.989zm-111.485-33.678l.676.736 46.155-42.38-.676-.736-.676-.737-46.155 42.38.676.737zm0 0l.966-.26-18.652-69.39-.966.259-.966.26 18.652 69.39.966-.259zm0-120.62l.883.47 20.516-38.655-.883-.468-.883-.47-20.516 38.655.883.469zM529.229-5.88l.986.168c.95-5.563 2.989-16.238 4.453-20.322l-.941-.337-.941-.338c-1.536 4.284-3.602 15.153-4.543 20.66l.986.169zm4.498-20.491l.942.336c.219-.613.399-.995.521-1.179l-.832-.554-.832-.555c-.266.399-.512.975-.741 1.615l.942.337zm.631-1.397l.832.555c.277-.416.853-1.541 1.625-3.09.791-1.585 1.837-3.715 3.072-6.204 2.476-4.988 5.734-11.467 9.34-18.147 3.607-6.682 7.554-13.55 11.405-19.32 3.874-5.803 7.576-10.379 10.678-12.591l-.581-.814-.581-.814c-3.427 2.444-7.301 7.3-11.18 13.11-3.9 5.843-7.881 12.772-11.501 19.48-3.622 6.709-6.892 13.212-9.371 18.207-1.242 2.503-2.279 4.615-3.07 6.2-.808 1.62-1.311 2.59-1.5 2.873l.832.555zm36.371-59.611l.599.8c1.418-1.062 4.255-4.258 5.049-9.019l-.986-.164-.986-.165c-.698 4.18-3.207 6.947-4.276 7.747l.6.8zm4.662-8.383l.986.166c.058-.341.186-.949.382-1.804l-.974-.224-.975-.225a37.71 37.71 0 00-.405 1.92l.986.167zM712.479 171.09l-.943-.333c-2.854 8.077-4.253 21.449-4.952 38.12-.7 16.711-.7 36.876-.7 58.615h2c0-21.753 0-41.871.698-58.531.7-16.698 2.099-29.782 4.84-37.538l-.943-.333zM315.67 188.322l-.174.984 52.69 9.314.174-.984.174-.985-52.69-9.314-.174.985zm52.69 9.314l-.277.961c1.979.57 4.601 1.372 7.424 2.305l.314-.949.314-.95a208.798 208.798 0 00-7.498-2.328l-.277.961zm7.461 2.317l-.314.949c3.549 1.173 7.402 2.546 10.692 3.921 3.339 1.395 5.949 2.732 7.138 3.801l.669-.743.668-.744c-1.478-1.329-4.399-2.779-7.704-4.16-3.356-1.402-7.261-2.793-10.835-3.974l-.314.95zm18.185 7.928l-.2.98 19.118 3.897.2-.98.2-.98-19.118-3.897-.2.98zm-84.864 28.409l-.783-.622-14.429 18.162.783.622.783.622 14.429-18.162-.783-.622zm103.982-24.512l.987-.161a478.335 478.335 0 00-2.901-16.039l-.981.195-.981.194a474.805 474.805 0 012.889 15.972l.987-.161zm-2.895-16.005l.981-.195c-1.256-6.323-2.702-12.883-4.155-18.155-.726-2.635-1.459-4.969-2.178-6.799-.36-.915-.722-1.722-1.086-2.384-.357-.648-.749-1.223-1.19-1.619l-.668.744-.669.743c.194.174.457.52.774 1.096.309.561.636 1.282.977 2.151.682 1.737 1.394 3.995 2.112 6.599 1.434 5.204 2.869 11.71 4.121 18.013l.981-.194zm-8.296-28.408l.668-.744c-.455-.41-.914-1.055-1.384-1.958-.466-.895-.915-1.988-1.376-3.246-.46-1.256-.921-2.648-1.418-4.143a175.555 175.555 0 00-1.612-4.689c-2.34-6.427-5.695-13.576-12.05-17.727l-.547.838-.547.837c5.768 3.767 8.942 10.356 11.265 16.736a172.759 172.759 0 011.593 4.636c.494 1.485.965 2.909 1.438 4.2.472 1.289.956 2.474 1.48 3.482.521 1 1.111 1.883 1.821 2.521l.669-.743zm-17.719-31.669l.547-.838c-3.106-2.028-6.67-3.686-10.352-5.303-3.705-1.626-7.522-3.208-11.247-5.112-7.423-3.792-14.32-8.786-18.616-17.594l-.899.439-.899.438c4.564 9.356 11.889 14.607 19.504 18.498 3.794 1.939 7.699 3.558 11.353 5.163 3.676 1.614 7.107 3.216 10.062 5.146l.547-.837zm-40.567-28.408l.899-.439c-1.039-2.128-1.874-5.411-2.517-9.743-.64-4.312-1.079-9.586-1.361-15.649-.563-12.126-.497-27.337-.182-44.189.63-33.674 2.253-73.886 1.79-108.827l-1 .014-1 .013c.463 34.899-1.158 75.022-1.789 108.763-.316 16.857-.383 32.123.183 44.319.284 6.098.727 11.445 1.38 15.85.651 4.385 1.522 7.914 2.698 10.326l.899-.438zM182.779-107.569l-.994.111 3.107 27.642.994-.111.994-.112-3.107-27.642-.994.112zm6.994 134.31h1c0-.303-.108-.653-.198-.917a17.015 17.015 0 00-.442-1.127 78.2 78.2 0 00-1.551-3.355c-1.301-2.684-3.099-6.204-5.092-10.023-3.987-7.64-8.769-16.504-11.958-22.336l-.877.48-.878.48c3.185 5.825 7.961 14.677 11.94 22.302 1.99 3.813 3.777 7.312 5.065 9.969a76.47 76.47 0 011.51 3.265c.177.415.306.745.39.99.1.293.091.346.091.273h1zm-19.118-37.278l1 .024v-.009l.001-.027.002-.109.011-.423.041-1.609a2704.098 2704.098 0 01.702-23.369c.224-6.45.481-12.957.75-17.976.135-2.51.272-4.64.409-6.2.068-.78.135-1.407.2-1.862.033-.229.063-.4.09-.52.033-.151.044-.141.006-.07l-.88-.475-.88-.475a2.308 2.308 0 00-.199.587c-.042.19-.08.416-.117.67a39.424 39.424 0 00-.213 1.971c-.139 1.594-.278 3.75-.413 6.267-.27 5.038-.528 11.56-.751 18.014-.224 6.455-.414 12.847-.547 17.624-.067 2.389-.12 4.374-.156 5.762l-.042 1.61-.01.425a5.867 5.867 0 01-.003.108l-.001.028v.009l1 .025zm2.332-52.625l.88.474c1.066-1.978 4.002-6.519 7.193-8.999l-.613-.79-.614-.789c-3.522 2.736-6.617 7.571-7.726 9.63l.88.474zm7.46-9.314l.613.79c.337-.262.658-.522.965-.781l-.645-.764-.645-.764c-.286.24-.586.484-.901.729l.613.79zm.933-.755l.645.764c2.833-2.391 4.416-4.626 4.912-5.616l-.894-.447-.894-.448c-.347.692-1.735 2.721-4.414 4.982l.645.765zm4.663-5.3l.994-.111-.157-1.397-.994.112-.994.111.157 1.397.994-.111zm3.73 105.273l-.985.174c.257 1.448 1.261 4.193 2.612 7.273 1.365 3.115 3.131 6.68 4.972 9.804l.862-.507.862-.508c-1.794-3.044-3.525-6.535-4.865-9.592-1.355-3.092-2.264-5.635-2.473-6.819l-.985.175zm7.461 16.744l-.862.507c.66 1.12 1.219 2.223 1.762 3.305.537 1.072 1.065 2.138 1.643 3.133 1.166 2.011 2.582 3.82 4.898 5.106l.485-.874.485-.875c-1.88-1.043-3.07-2.517-4.138-4.36-.541-.931-1.038-1.935-1.585-3.027-.543-1.082-1.129-2.238-1.826-3.423l-.862.508zm7.926 11.177l-.485.874c1.12.622 2.877 1.336 4.877 2.105 2.039.783 4.331 1.623 6.668 2.537 2.323.908 4.622 1.863 6.593 2.842 1.992.988 3.563 1.959 4.494 2.874l.701-.712.701-.713c-1.167-1.148-2.977-2.234-5.007-3.241-2.05-1.017-4.414-1.998-6.754-2.913-2.326-.91-4.696-1.78-6.679-2.541-2.022-.778-3.646-1.444-4.624-1.987l-.485.875zm89.553 199.789l.744-.668c-7.783-8.679-19.866-22.817-30.809-37.013-5.471-7.098-10.65-14.202-14.861-20.638-4.221-6.452-7.432-12.178-9.011-16.536l-.94.341-.94.34c1.66 4.585 4.978 10.47 9.218 16.95 4.249 6.495 9.461 13.642 14.95 20.764 10.979 14.243 23.095 28.42 30.904 37.127l.745-.667zm-54.877-74.514l.986-.164c-.994-5.989-.05-11.523.729-13.97l-.953-.303-.953-.304c-.863 2.712-1.847 8.567-.796 14.904l.987-.163zm.762-14.437l.991-.134-.378-2.794-.991.134-.991.134.378 2.794.991-.134zm54.115 88.951l-.721.693c4.01 4.167 13.705 15.106 20.371 25.462l.841-.541.841-.542c-6.764-10.507-16.556-21.551-20.612-25.766l-.72.694zm20.491 25.614l-.841.541c2.151 3.342 6.126 7.609 10.875 12.131l.69-.724.689-.725c-4.738-4.511-8.561-8.639-10.572-11.764l-.841.541zm10.724 11.948l-.69.724c10.604 10.094 25.394 21.765 33.665 27.93l.598-.802.597-.802c-8.244-6.144-22.962-17.761-33.481-27.775l-.689.725zm-81.133-102.019l-.452-.892-24.247 12.298.452.892.452.892 24.247-12.298-.452-.892zm-24.247 12.298l-.795.606c5.987 7.843 15.107 19.632 23.014 29.509 3.952 4.937 7.606 9.405 10.417 12.665 1.403 1.628 2.607 2.967 3.537 3.916.463.473.873.865 1.216 1.151.171.142.341.272.505.376.141.088.371.22.644.265l.164-.986.164-.987c.133.022.18.07.096.016a2.922 2.922 0 01-.292-.22 15.968 15.968 0 01-1.069-1.014c-.885-.904-2.056-2.205-3.45-3.823-2.787-3.232-6.423-7.677-10.371-12.609-7.893-9.861-17.004-21.637-22.985-29.472l-.795.607zm38.702 47.502l-.164.986c-.173-.029-.285-.099-.314-.117-.04-.026-.059-.044-.053-.039.01.009.048.048.12.134.139.169.335.437.591.814.508.749 1.198 1.851 2.05 3.266 1.701 2.827 4.013 6.853 6.731 11.684 5.434 9.66 12.472 22.508 19.442 35.349 6.97 12.84 13.87 25.669 19.028 35.288a7703.876 7703.876 0 017.958 14.876l.458.857.117.22.029.055.008.014.002.004.883-.469.882-.472-.002-.003-.008-.014-.029-.056-.118-.22-.457-.858-1.739-3.256a7437.132 7437.132 0 00-6.222-11.623 7956.74 7956.74 0 00-19.032-35.297c-6.971-12.843-14.015-25.702-19.457-35.375-2.72-4.835-5.044-8.882-6.76-11.735-.857-1.424-1.57-2.563-2.109-3.357a13.14 13.14 0 00-.704-.965 3.262 3.262 0 00-.314-.338 1.568 1.568 0 00-.215-.168 1.182 1.182 0 00-.438-.172l-.164.987zm-38.702-47.502l.737-.676c-1.963-2.14-5.292-5.501-8.37-8.017l-.633.775-.633.774c2.977 2.433 6.235 5.719 8.162 7.82l.737-.676zm19.672-39.586l.991-.134-1.953-14.436-.991.134-.991.134 1.953 14.436.991-.134zm-1.953-14.436l.998.067 3.264-48.435-.998-.067-.998-.068-3.264 48.435.998.068zm3.264-48.435l.894-.449a242.35 242.35 0 01-1.48-3.043l-.694-1.448-.214-.448-.058-.122a.555.555 0 01-.015-.032l-.004-.008-.001-.002-.903.43-.903.43h.001l.001.003.004.008a6.718 6.718 0 00.074.155l.214.449.695 1.45a272.265 272.265 0 001.495 3.075l.894-.448zm-2.475-5.122l.912-.41v-.001l-.001-.002-.005-.01-.016-.037a510.589 510.589 0 01-4.159-9.58c-2.243-5.32-4.75-11.558-5.887-15.394l-.959.285-.959.284c1.174 3.958 3.725 10.295 5.962 15.601a511.412 511.412 0 003.858 8.91l.253.565.066.148.017.038.004.01a.003.003 0 01.001.002h.001l.912-.41zm-10.115-25.15l.978-.208-.933-4.382-.978.209-.978.208.933 4.382.978-.208zm87.195 283.153c.242.97.241.97.239.971h-.003l-.006.002-.011.002-.021.005a.342.342 0 01-.08.01c-.017.001-.005-.002.035.006.078.015.291.074.634.302.697.464 1.887 1.602 3.479 4.329l.864-.504.863-.505c-1.671-2.861-3.047-4.285-4.098-4.985-.532-.354-.99-.529-1.363-.601a2.163 2.163 0 00-.477-.041 1.594 1.594 0 00-.242.026l-.029.006-.014.003-.006.002-.003.001c-.002 0-.003 0 .239.971zm5.13 5.123l-.864.504c1.49 2.55 1.962 6.512 2.021 10.347a77.53 77.53 0 01-.123 5.216c-.078 1.486-.169 2.764-.169 3.492h2c0-.658.084-1.819.166-3.387.081-1.536.155-3.396.125-5.351-.058-3.855-.518-8.287-2.293-11.326l-.863.505zm1.865 19.559h-1c0 1.448.357 5.353.704 8.823.176 1.751.351 3.415.482 4.64l.159 1.468.044.405a6.156 6.156 0 00.015.134l.001.007v.002l.994-.11.994-.111v-.002l-.001-.007a5.802 5.802 0 01-.015-.132l-.044-.404c-.038-.349-.093-.851-.158-1.463a693.375 693.375 0 01-.481-4.626c-.352-3.522-.694-7.302-.694-8.624h-1zm1.399 15.369l-.98.201.001.001.001.006.004.02.016.08.065.314.247 1.199c.215 1.037.524 2.53.903 4.35.757 3.639 1.795 8.589 2.915 13.83 2.235 10.465 4.807 22.145 6.123 26.84l.963-.27.963-.27c-1.295-4.62-3.852-16.225-6.093-26.717a2722.506 2722.506 0 01-3.815-18.168l-.247-1.197-.065-.313-.016-.08-.004-.021-.001-.005v-.001l-.98.201zm10.258 46.571l-.963.27c.309 1.101.659 3.32 1.033 6.511.371 3.164.758 7.215 1.155 11.933.792 9.436 1.616 21.511 2.409 34.438l.998-.061.998-.062c-.793-12.932-1.618-25.025-2.412-34.482-.397-4.728-.787-8.804-1.162-11.999-.371-3.169-.736-5.543-1.093-6.818l-.963.27zm4.632 53.091l-.036.999 39.199 1.397.036-.999.036-1-39.199-1.397-.036 1zm39.199 1.397l-1-.034-1.865 54.953 1 .034.999.034 1.865-54.953-.999-.034zm-1.865 54.953l-.488.872 30.308 16.95.488-.872.488-.873-30.308-16.95-.488.873zm-60.618-196.063l.51.86 8.394-4.981-.51-.86-.51-.86-8.394 4.981.51.86zm8.394-4.981l.391.92h.001l.003-.002.009-.004a.8.8 0 00.036-.015l.138-.059.524-.23a143.225 143.225 0 008.293-4.021c4.971-2.614 11.016-6.193 15.067-9.971l-.682-.731-.682-.732c-3.845 3.586-9.689 7.063-14.634 9.664a142.12 142.12 0 01-6.279 3.104 123.215 123.215 0 01-2.534 1.138l-.032.014-.008.003-.002.001.391.921zm23.78-14.113l.682.731c2.599-2.424 5.439-5.92 7.609-8.777a139.835 139.835 0 003.449-4.745 31.36 31.36 0 00.26-.377l.013-.021.004-.005.001-.001v-.001l-.827-.561-.828-.562v.001l-.001.001-.003.004-.012.019-.051.074-.2.291a138.174 138.174 0 01-3.397 4.673c-2.158 2.841-4.914 6.223-7.381 8.524l.682.732zm51.4-97.333l.979.201c1.344-6.537 3.658-23.013 3.874-26.601l-.998-.06-.998-.06c-.209 3.465-2.506 19.843-3.837 26.318l.98.202zm0 0l-.98-.201a119.307 119.307 0 01-1.885 7.85l.964.267.964.266c.729-2.638 1.368-5.3 1.917-7.982l-.98-.2zm-1.901 7.916l-.964-.268c-.744 2.684-1.696 5.032-2.755 7.514-1.056 2.475-2.224 5.094-3.356 8.25l.941.338.941.338c1.107-3.086 2.244-5.634 3.313-8.141 1.067-2.499 2.062-4.947 2.843-7.764l-.963-.267zm-6.134 15.834l-.941-.338c-1.958 5.455-4.09 11.248-5.769 16.336-1.666 5.049-2.935 9.541-3.102 12.351l.998.06.998.059c.149-2.506 1.325-6.751 3.005-11.844 1.668-5.054 3.785-10.807 5.752-16.286l-.941-.338zm-8.814 28.409l-.998-.059c-.032.54-.048 1.027-.048 1.456h2c0-.382.014-.829.044-1.338l-.998-.059zm16.849-52.159l-.161.987 31.599 5.143.161-.987.161-.987-31.599-5.143-.161.987zm31.599 5.143l-.16.987c1.92.312 1.868.616 5.675.92l.08-.996.08-.997c-3.813-.305-3.065-.503-5.515-.901l-.16.987zm5.595.911l-.08.996c3.936.314 14.06-.079 24.106-4.022l-.365-.931-.365-.931c-9.718 3.814-19.53 4.185-23.217 3.891l-.079.997zm24.247-4.192l-.999-.043-1.399 32.6.999.043.999.043 1.399-32.6-.999-.043zm-1.399 32.6l-.856.517c3.722 6.158 10.032 19.741 13.415 36.011l.979-.203.979-.204c-3.431-16.503-9.829-30.297-13.661-36.639l-.856.518zm1.399-32.6l-.38-.925c-.188.077-.38.153-.573.23l.367.93.367.93c.196-.078.397-.158.598-.24l-.379-.925zM634.61 505.469l.713-.702-51.758-52.625-.713.702-.713.701 51.758 52.625.713-.701zm0 0l.696.718 25.966-25.148-.696-.718-.696-.719-25.966 25.148.696.719zm-136.156 26.546l-.747-.666a484.999 484.999 0 01-9.38 10.224l.727.687.727.686a483.628 483.628 0 009.419-10.266l-.746-.665zm-9.4 10.245l-.727-.687c-4.343 4.602-9.772 9.465-14.128 13.187a295.585 295.585 0 01-5.436 4.534c-.679.552-1.222.988-1.595 1.285l-.427.34-.11.087-.027.021-.007.006-.002.001.618.787.618.786.001-.001.002-.001.007-.006.029-.023.113-.089.433-.345c.377-.301.925-.74 1.609-1.297a299.731 299.731 0 005.473-4.564c4.375-3.738 9.867-8.656 14.283-13.335l-.727-.686zm-21.841 19.561c-.919-.395-.918-.397-.917-.4l.002-.004.004-.01a.263.263 0 01.009-.017.302.302 0 01.015-.031c.01-.019.019-.033.026-.044.014-.021.02-.027.012-.018a1.45 1.45 0 01-.262.21c-.353.237-1.094.622-2.547 1.041-2.909.838-8.522 1.766-19.212 1.998l.022 1 .022.999c10.759-.233 16.57-1.167 19.722-2.075 1.578-.455 2.528-.913 3.107-1.302.292-.196.497-.379.642-.541a2.01 2.01 0 00.174-.227 1.09 1.09 0 00.058-.099c.009-.015.016-.03.023-.045l.01-.021.005-.01.002-.005c.001-.002.002-.005-.917-.399zm-22.848 3.725l-.022-1c-7.686.167-18.29.216-28.887.204l-.001 1-.001 1c10.6.012 21.223-.037 28.933-.205l-.022-.999zm-28.91.204l.001-1c-2.816-.003-5.631-.01-8.39-.02l-.004 1-.004 1c2.761.01 5.578.017 8.396.02l.001-1zm73.599-23.49l.694.72c21.436-20.655 42.881-41.302 64.334-61.939l-.693-.72-.693-.721c-21.454 20.637-42.9 41.284-64.336 61.94l.694.72zm196.847-135.987l-1-.024c-.079 3.362.185 6.823.529 10.351.346 3.547.77 7.139 1.027 10.853.514 7.403.353 15.128-2.433 23.201l.945.327.945.326c2.912-8.436 3.061-16.467 2.539-23.992-.261-3.75-.692-7.415-1.032-10.909-.343-3.512-.597-6.874-.52-10.11l-1-.023zm-.932 44.708l-.945-.327c-.682 1.976-1.372 4.005-2.066 5.736-.71 1.774-1.364 3.075-1.929 3.701l.743.67.743.669c.834-.926 1.6-2.55 2.3-4.296.716-1.788 1.425-3.873 2.099-5.827l-.945-.326zm-4.197 9.78l-.696-.719-20.196 19.56.696.719.696.718 20.196-19.56-.696-.718zm5.129-54.488l.987-.16-2.331-14.437-.987.16-.987.159 2.331 14.437.987-.159zm-2.331-14.437l.984-.18c-.136-.742-.141-1.814.198-2.644.163-.399.39-.709.691-.923.295-.21.728-.375 1.391-.375v-2c-1.017 0-1.87.261-2.55.745-.675.48-1.111 1.13-1.384 1.798-.532 1.304-.49 2.794-.314 3.758l.984-.179zm3.264-5.122v1c.677 0 1.52-.181 2.425-.468a24.89 24.89 0 003.104-1.252 39.317 39.317 0 007.212-4.491c2.389-1.879 4.638-4.13 6.204-6.638 1.569-2.512 2.485-5.334 2.096-8.307l-.991.13-.992.129c.311 2.383-.405 4.742-1.809 6.989-1.406 2.251-3.47 4.337-5.744 6.125a37.306 37.306 0 01-6.835 4.257 22.904 22.904 0 01-2.848 1.151c-.836.265-1.45.375-1.822.375v1zm20.05-20.026l.991-.13c-.349-2.677-.545-5.14-.814-7.507-.263-2.324-.592-4.504-1.207-6.409-.619-1.917-1.544-3.608-3.032-4.912-1.49-1.307-3.463-2.154-6.055-2.523l-.141.99-.141.99c2.304.328 3.886 1.053 5.019 2.046 1.135.996 1.9 2.332 2.447 4.024.55 1.704.862 3.716 1.123 6.019.256 2.261.468 4.863.818 7.541l.992-.129zm-10.258-20.491l.238-.972c-3.124-.765-8.141-2.286-12.997-4.35-4.898-2.082-9.461-4.647-11.838-7.436l-.761.649-.761.648c2.702 3.172 7.65 5.885 12.577 7.979 4.97 2.113 10.092 3.666 13.304 4.453l.238-.971zm-10.725 60.076l.083-.997c-4.227-.351-6.846-.952-11.278-.934l.004 1 .004 1c4.34-.017 6.59.552 11.104.927l.083-.996zm-11.191-.931l-.004-1c-4.078.015-8.618.85-12.369 1.664-1.862.403-3.6.818-4.933 1.114-1.405.313-2.319.482-2.744.482v2c.694 0 1.854-.235 3.178-.529 1.398-.311 3.044-.705 4.923-1.113 3.732-.809 8.098-1.604 11.953-1.618l-.004-1zm-20.05 3.26v-1c-1.941 0-20.701.231-33.586.394l.013 1 .013 1c12.897-.163 31.636-.394 33.56-.394v-1zm-33.573.394l-.013-1-5.595.072.013 1 .013 1 5.595-.072-.013-1zm46.163-84.688l-.942.336 2.331 6.52.942-.336.942-.337-2.331-6.52-.942.337zm2.331 6.52l-.878.479a83.802 83.802 0 011.666 3.218l.899-.437.899-.438a84.238 84.238 0 00-1.709-3.302l-.877.48zm-2.331-6.52v-1h-51.758v2h51.758v-1zm0 0l-.017 1 56.25.932.017-1 .016-1-56.25-.932-.016 1zm56.25.932l.856-.518c-1.957-3.237-13.875-22.011-16.475-57.304l-.997.074-.997.073c2.631 35.726 14.714 54.811 16.757 58.192l.856-.517zm-108.008-.932h-1v31.669h2v-31.669h-1zm0 0h1v-74.979h-2v74.979h1zm0-74.979h1c0-8.846 1.461-15.896 2.213-23.094.749-7.165.755-14.281-2.27-22.877l-.943.332-.943.332c2.892 8.219 2.898 15.01 2.167 22.005-.727 6.963-2.224 14.324-2.224 23.302h1zm0-45.639l.943-.332c-2.18-6.196-6.75-13.166-10.722-18.536a154.468 154.468 0 00-5.215-6.655 133.209 133.209 0 00-2.073-2.438l-.119-.135a.678.678 0 00-.031-.034l-.008-.009-.002-.003v-.001l-.747.666-.746.665v.001l.001.001.007.008.029.032.113.128.437.503a151.084 151.084 0 016.746 8.46c3.952 5.344 8.369 12.113 10.444 18.011l.943-.332zm0 120.618l.504-.864c-18.389-10.742-47.599-24.507-75.478-30.871-13.937-3.181-27.609-4.528-39.456-2.679-11.868 1.852-21.964 6.925-28.597 16.618l.825.565.825.564c6.242-9.121 15.775-13.979 27.255-15.771 11.499-1.795 24.893-.499 38.703 2.653 27.617 6.304 56.633 19.969 74.915 30.648l.504-.863zm0 31.669v1h40.567v-2h-40.567v1zm40.567 0v1c3.541 0 7.626-1.294 9.23-1.935l-.371-.928-.371-.929c-1.504.601-5.315 1.792-8.488 1.792v1zm8.859-1.863l.371.928c.596-.238 1.207-.771 1.72-1.283a23.486 23.486 0 001.602-1.812 44.816 44.816 0 001.754-2.333l.028-.04.008-.011.002-.003.001-.001-.823-.568-.823-.569v.001l-.002.002-.006.008-.024.036-.098.138a42.583 42.583 0 01-1.574 2.084 21.686 21.686 0 01-1.458 1.653c-.507.506-.868.769-1.049.841l.371.929zm4.663-5.123l.871.49.001-.001.002-.003a.066.066 0 01.006-.012l.025-.044.091-.164a58.307 58.307 0 001.302-2.506c.355-.73.719-1.526.996-2.249.26-.676.504-1.436.504-2.031h-2c0 .181-.106.623-.371 1.315a27.619 27.619 0 01-.927 2.089 55.39 55.39 0 01-1.256 2.417l-.086.156a.483.483 0 00-.029.051v.001l.871.491zm2.798-6.52h1v-5.588h-2v5.588h1zm0-5.588h1c0-.259-.073-.528-.133-.719a8.684 8.684 0 00-.268-.73 31.349 31.349 0 00-.811-1.783l-.899.437-.9.437c.302.621.569 1.201.759 1.665.095.233.165.423.209.566.053.172.043.192.043.127h1zm-56.887 19.094h-1v53.091h2v-53.091h-1zm0 0v-1h-4.663v2h4.663v-1zm-4.663 0l.412-.911-29.842-13.506-.412.911-.412.911 29.842 13.506.412-.911zm-29.842-13.506l-.664-.748-4.197 3.726.664.748.664.747 4.197-3.726-.664-.747zm-4.197 3.726l-.899-.439v.001l-.003.005a.178.178 0 01-.01.021l-.039.08-.154.313c-.135.272-.332.669-.58 1.162-.496.988-1.196 2.364-2.01 3.92-1.634 3.118-3.715 6.927-5.539 9.764l.841.541.841.541c1.875-2.916 3.99-6.79 5.628-9.918a250.564 250.564 0 002.611-5.124l.157-.317.04-.083.011-.021.003-.006v-.002l-.898-.438zm-8.393 15.368l-.841-.541c-5.478 8.519-14.719 17.72-22.644 24.825a269.647 269.647 0 01-10.181 8.671 229.702 229.702 0 01-3.949 3.125l-.219.167-.055.042a.101.101 0 00-.013.01.014.014 0 00-.004.003l.603.798.604.797.001-.001.004-.003.015-.011.058-.044.224-.172a196.393 196.393 0 003.989-3.156 271.461 271.461 0 0010.258-8.737c7.948-7.125 17.359-16.475 22.991-25.232l-.841-.541zm47.095 47.503h-1v4.657h2v-4.657h-1zm0 4.657h-1c0 2.269-.228 4.246-.663 5.809-.44 1.582-1.061 2.631-1.76 3.19l.625.781.624.781c1.167-.933 1.945-2.446 2.438-4.216.498-1.79.736-3.958.736-6.345h-1zm-2.798 9.78l-.623-.783c-.143.114-.528.469-1.078.984l.684.73.683.73c.283-.265.509-.475.675-.627l.2-.181.061-.053a.488.488 0 01.021-.018l-.623-.782zm-1.017.931l-.683-.731a1021.035 1021.035 0 00-5.895 5.595l.69.724.69.723c2.74-2.613 4.752-4.525 5.881-5.581l-.683-.73zm-5.888 5.588l.268.963c1.188-.33 2.317-.332 3.157-.248a8.568 8.568 0 011.246.219l.059.017.011.003c.001 0 .001 0 0 0h-.001l-.001-.001.301-.953.301-.954h-.001l-.002-.001-.003-.001-.01-.003a.422.422 0 01-.03-.009l-.1-.028a10.452 10.452 0 00-1.569-.279c-1.009-.101-2.4-.104-3.894.311l.268.964zm5.04 0l-.711.703 49.747 50.297.711-.703.711-.704-49.747-50.297-.711.704zm-5.04 0l-.69-.724c-10.209 9.741-30.453 29.185-52.403 50.3l.693.721.693.72c21.951-21.115 42.192-40.556 52.397-50.294l-.69-.723zm-52.4 50.297l-.843.538.002.002.003.006.013.019.045.07a29.044 29.044 0 00.828 1.175c.57.77 1.403 1.83 2.461 2.995 2.104 2.317 5.145 5.103 8.812 6.812l.423-.906.422-.907c-3.326-1.55-6.157-4.12-8.177-6.344a37.06 37.06 0 01-2.334-2.84 28.264 28.264 0 01-.765-1.086l-.037-.057-.008-.013-.002-.002-.843.538zm11.744 10.711l-.437.899c3.021 1.468 9.46 3.239 16.372 3.535 6.894.295 14.529-.866 19.708-5.555l-.671-.741-.671-.742c-4.593 4.159-11.569 5.327-18.28 5.04-6.693-.287-12.854-2.009-15.584-3.336l-.437.9zm34.972-1.862l.671.741c9.793-8.869 49.001-47.542 49.928-48.468l-.707-.707-.707-.708c-.937.936-40.107 39.571-49.856 48.4l.671.742zm49.892-48.434l.707.707c.043-.043.123-.106.3-.226.155-.106.388-.258.626-.433a7.07 7.07 0 001.65-1.688c1.122-1.606 2.081-4.257 2.378-9.01l-.998-.062-.998-.063c-.285 4.562-1.191 6.801-2.022 7.989a5.044 5.044 0 01-1.195 1.223c-.198.146-.368.255-.566.39-.177.12-.399.275-.589.465l.707.708zm4.663-10.712l.998.062c.584-9.343 1.556-90.118 2.333-131.839l-1-.018-1-.019c-.778 41.796-1.749 122.466-2.329 131.751l.998.063zm2.331-131.795l.924-.382a370.034 370.034 0 00-4.849-11.207l-.911.412-.911.412a372.268 372.268 0 014.823 11.147l.924-.382zm-4.836-11.177l.911-.413c-2.249-4.969-4.722-10.122-6.904-14.041-1.089-1.955-2.123-3.634-3.033-4.836-.454-.598-.902-1.112-1.335-1.486-.394-.34-.946-.716-1.589-.716v2c-.115 0-.038-.046.282.23.281.243.633.633 1.048 1.18.826 1.09 1.806 2.674 2.879 4.601 2.143 3.847 4.589 8.94 6.83 13.893l.911-.412zm0 0l.909-.418c-.515-1.121-2.405-4.904-5.923-11.244l-.874.485-.875.485c3.509 6.325 5.371 10.056 5.854 11.109l.909-.417zm-11.95-20.492v-1h-38.702v2h38.702v-1zm-38.702 0l-.012-1-80.201.932.012 1 .012 1 80.201-.932-.012-1zm-80.201.932l.494-.87c-8.754-4.972-22.299-12.397-34.491-18.511-6.093-3.056-11.863-5.793-16.534-7.733-2.333-.969-4.41-1.746-6.124-2.265-1.672-.507-3.131-.81-4.166-.723l.084.997.084.996c.619-.052 1.753.139 3.419.644 1.624.492 3.632 1.241 5.936 2.198 4.606 1.913 10.328 4.626 16.405 7.674 12.151 6.094 25.664 13.501 34.399 18.462l.494-.869zm118.903-.932l-.014 1 66.679.932.014-1 .014-1-66.679-.932-.014 1zM531.094 398.665l.723-.691-8.748-9.157-.723.691-.723.69 8.748 9.157.723-.69zm-15.387-16.107l.723-.691-29.842-31.238-.723.691-.723.69 29.842 31.238.723-.69zm-29.842-31.238l.902-.432-10.259-21.423-.902.432-.902.432 10.259 21.423.902-.432zm-10.259-21.423l1 .014c.091-6.263-.473-12.443-1.457-18.342l-.986.165-.986.164c.966 5.799 1.518 11.859 1.429 17.984l1 .015zm-1.443-18.163l.986-.165a118.656 118.656 0 00-.88-4.696l-.979.204-.979.203c.319 1.534.608 3.073.866 4.618l.986-.164zm41.544 70.824l-.723.69 6.639 6.95.723-.69.723-.691-6.639-6.95-.723.691zm-156.206-62.692l-.601.799c1.685 1.265 4.408 3.471 7.076 5.957 2.685 2.502 5.244 5.223 6.663 7.525l.851-.524.851-.525c-1.566-2.542-4.292-5.415-7.001-7.939-2.725-2.539-5.504-4.79-7.239-6.093l-.6.8zm13.989 13.757l-.851.524c.899 1.46 3.202 6.085 6.269 12.351 3.051 6.231 6.828 14.024 10.647 21.739 3.818 7.716 7.687 15.37 10.924 21.333 1.617 2.979 3.085 5.55 4.314 7.499a35.066 35.066 0 001.675 2.46c.483.634.959 1.175 1.405 1.499l.588-.809.588-.809c-.195-.142-.525-.482-.99-1.093a32.856 32.856 0 01-1.575-2.315c-1.195-1.895-2.638-4.421-4.248-7.387-3.218-5.927-7.072-13.554-10.889-21.265-3.816-7.711-7.587-15.49-10.642-21.731-3.038-6.206-5.398-10.954-6.364-12.521l-.851.525zm34.971 66.596l-.588.809c.505.367 1.2 1.14 2.069 2.327.851 1.162 1.811 2.639 2.855 4.332 2.096 3.399 4.463 7.556 6.928 11.688 2.45 4.104 4.982 8.157 7.352 11.238 1.185 1.54 2.353 2.868 3.473 3.845 1.095.955 2.265 1.682 3.45 1.809l.107-.994.106-.995c-.563-.06-1.346-.453-2.349-1.327-.978-.854-2.054-2.066-3.201-3.557-2.293-2.98-4.773-6.944-7.22-11.044-2.43-4.073-4.843-8.306-6.944-11.712-1.054-1.71-2.046-3.239-2.944-4.465-.879-1.202-1.729-2.199-2.506-2.763l-.588.809zm25.646 35.054l-.513.858c.362.216 1.167.951 2.024 2.453.842 1.477 1.705 3.646 2.223 6.654l.986-.17.985-.17c-.554-3.215-1.489-5.607-2.457-7.304-.953-1.672-1.971-2.724-2.736-3.18l-.512.859zm-4.31-57.874l.956-.294-1.286-4.191-.956.294-.956.293 1.286 4.191.956-.293zm-1.286-4.191l.873-.488c-3.892-6.972-11.593-20.01-18.314-31.294a5822.115 5822.115 0 00-11.473-19.17l-.744-1.236-.194-.322-.05-.083-.012-.02-.003-.006-.001-.001-.857.516-.856.516v.001l.004.006a.203.203 0 00.012.02l.049.083.194.322.744 1.235a5598.628 5598.628 0 0111.468 19.162c6.725 11.29 14.411 24.303 18.287 31.246l.873-.487zm-30.775-52.104l.84-.543-.001-.001a.022.022 0 01-.003-.005l-.013-.019a2.383 2.383 0 00-.049-.076l-.188-.292-.691-1.067c-.583-.899-1.386-2.136-2.27-3.487-1.763-2.699-3.854-5.868-5.135-7.711l-.821.571-.821.571c1.262 1.815 3.337 4.961 5.103 7.663.882 1.349 1.684 2.583 2.266 3.481l.689 1.065.188.29.049.076.012.019.004.005v.001l.001.001.84-.542zm-8.331-12.63l.821-.571c-2.56-3.683-4.855-6.746-6.736-8.897-.939-1.072-1.798-1.945-2.554-2.558a6.643 6.643 0 00-1.117-.753c-.355-.182-.766-.329-1.2-.329v2c-.008 0 .079.001.287.108.2.103.456.273.77.527.629.51 1.402 1.286 2.308 2.322 1.809 2.067 4.054 5.058 6.6 8.721l.821-.57zm40.392 68.925l-.956.293 3.001 9.78.956-.293.956-.294-3.001-9.78-.956.294zm3.001 9.78l-.956.293c1.829 5.959 3.293 8.91 4.551 14.818l.978-.208.978-.209c-1.278-5.999-2.852-9.307-4.595-14.988l-.956.294zm4.573 14.903l-.978.208c.895 4.203 1.359 9.726 1.596 14.234a188.27 188.27 0 01.242 7.314l.004.448.001.115v.038l1-.003 1-.004v-.041l-.001-.119-.004-.457a193.722 193.722 0 00-.245-7.396c-.238-4.527-.707-10.181-1.637-14.546l-.978.209zm1.865 22.354l-1-.02-.409 20.632 1 .02 1 .02.409-20.632-1-.02zm-9.439-47.037l.526.85a399.287 399.287 0 006.647-4.201l-.543-.84-.543-.84a391.19 391.19 0 01-6.613 4.18l.526.851zm6.63-4.191l.542.84c4.673-3.018 9.953-6.559 14.183-9.683 2.112-1.561 3.979-3.03 5.381-4.286.701-.627 1.301-1.215 1.762-1.746.441-.507.831-1.047 1.007-1.575l-.948-.316-.949-.317c-.045.136-.214.43-.62.896-.385.444-.918.97-1.586 1.568-1.334 1.195-3.144 2.622-5.236 4.167-4.18 3.089-9.421 6.603-14.079 9.612l.543.84zm21.927-16.766l.948.316c.383-1.146.831-3.626 1.286-6.613.461-3.026.943-6.674 1.381-10.23.438-3.556.832-7.026 1.116-9.694.28-2.624.465-4.563.465-4.981h-2c0 .28-.165 2.066-.453 4.769a635.454 635.454 0 01-1.113 9.662c-.436 3.546-.916 7.174-1.373 10.173-.463 3.038-.889 5.331-1.206 6.281l.949.317zm4.196-31.202h1c0-.194.109-.919.458-2.095a29.996 29.996 0 011.673-4.286c1.592-3.34 4.204-7.415 8.274-11.035l-.665-.747-.665-.748c-4.308 3.832-7.067 8.14-8.749 11.669a31.905 31.905 0 00-1.785 4.578c-.355 1.196-.541 2.159-.541 2.664h1zm-214.456-12.109l.902-.433a168.528 168.528 0 01-6.103-14.577c-2.051-5.675-3.626-11.266-3.626-14.795h-2c0 3.922 1.701 9.818 3.745 15.475a170.724 170.724 0 006.18 14.762l.902-.432zm-9.827-29.805h1c0-3.412-.488-7.221-1.234-10.91l-.98.199-.98.198c.729 3.605 1.194 7.275 1.194 10.513h1zm-1.214-10.711l.952.307c1.859-5.764 3.821-20.666-3.036-34.742l-.899.438-.899.438c6.573 13.493 4.677 27.837 2.93 33.252l.952.307zm-2.983-33.997l.899-.438c-2.956-6.068-5.941-13.215-8.79-20.001-2.839-6.765-5.55-13.191-7.936-17.748l-.886.464-.886.464c2.338 4.465 5.014 10.802 7.864 17.594 2.842 6.77 5.851 13.974 8.836 20.103l.899-.438zm-16.713-37.723l.886-.464c-.985-1.88-1.934-3.48-2.833-4.666-.45-.594-.905-1.107-1.364-1.505-.454-.392-.963-.717-1.524-.856l-.24.971-.241.97c.14.035.371.146.696.427.318.276.679.673 1.079 1.201.801 1.056 1.69 2.543 2.655 4.386l.886-.464zm30.737 112.236l-.772-.636-6.563 7.973.772.636.772.635 6.563-7.973-.772-.635zm-6.563 7.973l-.976.218 8.859 39.53.976-.218.976-.219-8.859-39.53-.976.219zm8.859 39.53l-.238-.972-13.337 3.26.238.972.237.971 13.337-3.26-.237-.971zm-13.337 3.26l-.962.272c1.482 5.241 3.486 13.833 4.673 22.542 1.193 8.76 1.531 17.45-.188 22.994l.955.297.955.296c1.863-6.006 1.454-15.09.259-23.857-1.201-8.816-3.227-17.501-4.73-22.816l-.962.272zm4.478 46.105v1h8.859v-2h-8.859v1zm8.859 0l-1-.018-1.865 104.319 1 .018 1 .018 1.865-104.319-1-.018zm-1.865 104.319l-.758-.653-20.05 23.285.758.653.758.652 20.05-23.285-.758-.652zm-20.05 23.285l-.513.858 40.567 24.218.513-.858.512-.859-40.566-24.218-.513.859zm40.567 24.218l-.023.999 74.139 1.683.023-.999.023-1-74.139-1.683-.023 1zm74.139 1.683l-.042.999c16.812.709 30.619 1.495 38.676 2.04l.068-.997.067-.998c-8.076-.547-21.901-1.333-38.727-2.043l-.042.999zm38.702 2.042l-.012 1c3.199.037 7.381.076 12.128.111l.007-1 .007-1c-4.745-.035-8.923-.074-12.119-.111l-.011 1zm12.123.111l-.007 1c4.353.031 8.706.055 13.059.073l.004-1 .004-1c-4.351-.018-8.702-.042-13.053-.073l-.007 1zm23.314.095l.903.428 1.866-3.93-.903-.429-.903-.429-1.866 3.931.903.429zm1.866-3.931l.85.526c3.053-4.927 7.464-12.988 10.789-21.19 1.663-4.101 3.063-8.261 3.882-12.096.816-3.817 1.076-7.407.372-10.321l-.972.235-.972.235c.601 2.487.407 5.732-.384 9.433-.786 3.683-2.143 7.725-3.779 11.763-3.274 8.075-7.628 16.035-10.636 20.888l.85.527zm14.921-42.846l.831-.557c-.593-.884-1.325-1.695-2.012-2.466-.703-.79-1.377-1.557-1.954-2.422-1.12-1.679-1.901-3.766-1.47-6.997l-.991-.132-.991-.133c-.501 3.755.423 6.325 1.788 8.371.665.998 1.428 1.861 2.125 2.643.713.8 1.343 1.503 1.843 2.249l.831-.556zm-5.596-12.574l.991.132c.348-2.607 1.628-9.035 3.2-16.991 1.566-7.93 3.412-17.329 4.874-25.817l-.985-.169-.986-.17c-1.457 8.46-3.298 17.836-4.865 25.768-1.562 7.905-2.861 14.426-3.22 17.114l.991.133zm126.357-395.388l.877-.482h-.001v-.001a.201.201 0 00-.013-.023l-.037-.067-.144-.259a133.36 133.36 0 00-2.422-4.126c-1.529-2.495-3.542-5.576-5.416-7.796l-.764.646-.764.645c1.771 2.098 3.719 5.071 5.239 7.55a129.636 129.636 0 012.521 4.309l.036.064.009.016.002.004v.001l.877-.481zm-7.92-12.108l.764-.646c-7.503-8.884-21.307-14.066-33.025-17.037-5.893-1.494-11.324-2.444-15.281-3.021a136.778 136.778 0 00-4.711-.608 86.958 86.958 0 00-1.294-.134l-.34-.032-.088-.007-.024-.002h-.007c-.001 0-.001-.001-.083.996l-.082.996h.006a1.734 1.734 0 01.101.01l.327.03c.289.027.715.07 1.265.13 1.099.122 2.688.315 4.642.6 3.908.57 9.269 1.508 15.077 2.98 11.685 2.964 24.926 8.027 31.989 16.39l.764-.645zm-62.016-29.54l.796-.604-.001-.002-.005-.007-.019-.024-.073-.096-.28-.364a221.6 221.6 0 00-4.662-5.818c-2.92-3.518-6.686-7.82-10.002-10.854l-.675.738-.675.737c3.209 2.937 6.903 7.15 9.813 10.656a221.313 221.313 0 014.618 5.763l.275.358.07.092.018.023.004.006h.001v.001l.797-.604zm-14.921-17.031l.675-.738c-8.11-7.419-20.6-13.721-30.979-18.153a232.643 232.643 0 00-13.309-5.194 193.494 193.494 0 00-5.129-1.742l-.288-.092-.074-.023-.019-.006-.005-.002h-.002l-.297.955-.297.955h.001l.004.001.018.006.07.022.279.088c.246.08.61.197 1.08.352.941.311 2.303.772 3.99 1.371a230.898 230.898 0 0113.193 5.149c10.346 4.417 22.569 10.612 30.414 17.788l.675-.737zm-349.715 17.23l-.442.898c8.001 3.938 16.914 10.178 24.222 15.473 3.638 2.635 6.892 5.047 9.398 6.79 1.253.872 2.344 1.593 3.22 2.1.437.253.84.464 1.196.615.328.139.723.274 1.108.274v-2c.035 0-.052 0-.329-.116a9.286 9.286 0 01-.973-.504c-.802-.464-1.838-1.147-3.08-2.011-2.486-1.729-5.7-4.111-9.366-6.768-7.3-5.289-16.339-11.624-24.512-15.647l-.442.897zm38.702 25.15v1c.193 0 .393-.046.525-.08.159-.04.346-.095.552-.162.415-.134.958-.328 1.609-.574 1.305-.492 3.09-1.206 5.258-2.099 4.338-1.785 10.24-4.296 16.969-7.199 13.46-5.806 30.248-13.19 44.502-19.503l-.405-.914-.405-.915c-14.251 6.312-31.033 13.693-44.484 19.496-6.727 2.902-12.616 5.407-16.938 7.186-2.163.89-3.926 1.595-5.203 2.077-.64.241-1.147.422-1.518.542-.186.06-.326.101-.424.126-.126.032-.115.019-.038.019v1zm69.01-29.531l.394.919 19.118-8.192-.394-.92-.394-.919-19.118 8.192.394.92zm19.118-8.192v1h152.009v-2H247.126v1zm152.009 0l.747.665c2.658-2.986 6.919-8.05 11.079-13.56 4.149-5.496 8.243-11.493 10.527-16.33l-.904-.427-.904-.427c-2.192 4.641-6.18 10.503-10.315 15.98-4.125 5.462-8.351 10.484-10.977 13.434l.747.665zM712.479 171.09l-.294.956c.817.251 1.54-.21 1.996-.597.509-.434 1.041-1.08 1.589-1.865 1.105-1.583 2.423-3.944 3.923-6.924 3.006-5.973 6.821-14.591 11.226-24.836l-.919-.395-.919-.395c-4.406 10.249-8.199 18.815-11.175 24.727-1.49 2.962-2.756 5.217-3.776 6.678-.514.736-.93 1.218-1.246 1.487-.371.315-.352.134-.111.208l-.294.956zm0 0l-.135.991c4.353.592 18.14.918 34.69.359l-.034-1-.034-.999c-16.557.559-30.187.225-34.352-.342l-.135.991zM723.5 325.24l-.947.322c2.025 5.95 6.211 15.394 12.213 24.467 5.991 9.058 13.864 17.859 23.303 22.374l.431-.903.431-.902c-8.961-4.285-16.588-12.737-22.497-21.672-5.899-8.918-10.012-18.205-11.987-24.008l-.947.322zM536.69 584.174l-.81.586 74.139 102.327.81-.587.81-.587L537.5 583.587l-.81.587zM765.5 795.5l-.983.185 8 42.5.983-.185.983-.185-8-42.5-.983.185zm56.5 79l.098.995 35.5-3.5-.098-.995-.098-.995-35.5 3.5.098.995zm35.5-3.5l-.465.885c8.194 4.304 21.437 12.518 34.471 23.14 13.044 10.632 25.801 23.615 33.11 37.442l.884-.467.884-.467c-7.491-14.173-20.485-27.357-33.615-38.058-13.141-10.711-26.498-18.997-34.804-23.36l-.465.885zm-159.281 152.82l-.062 1c41.648 2.59 67.06 5.14 89.309 4.22 22.321-.92 41.476-5.33 70.708-16.6l-.36-.93-.36-.93c-29.096 11.21-48.03 15.55-70.07 16.46-22.112.92-47.334-1.62-89.103-4.21l-.062.99zm159.595-12.31l.36.93c9.152-3.52 27.121-11.34 45.302-17.311 9.083-2.984 18.172-5.493 26.186-6.769 8.055-1.283 14.855-1.29 19.464.567l.374-.927.374-.927c-5.141-2.072-12.403-1.982-20.526-.688-8.164 1.3-17.368 3.845-26.496 6.844-18.24 5.994-36.364 13.861-45.398 17.351l.36.93zM511.977 547.383l-.83.557 24.713 36.791.83-.557.83-.558-24.713-36.791-.83.558zM206.559 191.116l.645.764 33.661-28.409-.645-.764-.645-.765-33.661 28.409.645.765zM490.061 84.002l.94.342 18.652-51.228-.94-.342-.94-.343-18.652 51.228.94.343zM309.142 236.29l.991.135 6.528-47.968-.991-.135-.991-.135-6.528 47.968.991.135zm0 0l-.654.756 69.477 60.076.654-.756.654-.757-69.477-60.076-.654.757zm32.134-307.835l1-.014-.426-32.133-1 .014-1 .013.426 32.133 1-.013zm-46.563 325.997l-.783-.622-46.619 58.679.783.622.783.622 46.619-58.679-.783-.622zm88.102 35.394l-.841-.541-4.196 6.519.841.542.841.541 4.196-6.52-.841-.541zm200.037 162.998l.723-.691-51.758-54.179-.723.691-.723.69 51.758 54.179.723-.69zm14.666-276.631l.837-.548-42.65-65.2-.837.548-.837.547 42.65 65.2.837-.547zM359.501 319.866l.776.631 19.118-23.5-.776-.631-.776-.631-19.118 23.5.776.631zM492.859 78.414l.752-.66-7.927-9.047-.752.659-.752.659 7.927 9.048.752-.66zM925.5 932l-.919.394 24 56 .919-.394.919-.394-24-56-.919.394zm-152-94l-.601.799 24.25 18.25.601-.799.601-.799-24.25-18.25-.601.799zm24.25 18.25l-.601.799 24.25 18.25.601-.799.601-.799-24.25-18.25-.601.799zm0 0l-.831-.557c-2.693 4.02-7.338 10.508-12.502 16.884-5.18 6.394-10.823 12.602-15.517 16.123l.6.8.6.8c4.906-3.679 10.679-10.055 15.871-16.464 5.206-6.428 9.887-12.966 12.61-17.029l-.831-.557zM610.829 686.5l-.576.817 64.671 45.576.576-.818.576-.817-64.671-45.575-.576.817zm64.671 45.575l-.576.818 90 63.424.576-.817.576-.817-90-63.425-.576.817zm0 0l-.951-.309c-2.096 6.443-5.082 17.343-7.245 29.144-2.16 11.784-3.515 24.557-2.297 34.709l.993-.119.993-.119c-1.182-9.848.129-22.384 2.278-34.11 2.146-11.709 5.109-22.522 7.18-28.887l-.951-.309zM666 795.5l-.993.119c1.507 12.558 2.742 21.329 2.681 27.242-.031 2.953-.388 5.051-1.108 6.504-.686 1.386-1.728 2.237-3.339 2.669l.259.966.259.966c2.139-.573 3.66-1.787 4.614-3.714.921-1.861 1.283-4.324 1.314-7.37.064-6.084-1.201-15.059-2.694-27.501l-.993.119zm-2.5 37.5l-.259-.966c-.565.151-1.177.031-1.938-.499-.784-.544-1.626-1.46-2.556-2.707-1.882-2.524-3.818-5.966-6.224-9.624-2.357-3.583-5.1-7.258-8.441-9.908-3.365-2.67-7.37-4.326-12.192-3.79l.11.994.11.994c4.178-.464 7.673.944 10.729 3.369 3.082 2.445 5.683 5.897 8.013 9.44 2.282 3.469 4.377 7.153 6.292 9.721.969 1.299 1.965 2.422 3.016 3.153 1.073.746 2.289 1.14 3.599.789L663.5 833zM632 806.5l-.11-.994c-9.053 1.006-23.48 3.641-35.781 7.03-6.146 1.693-11.804 3.586-16.006 5.576-2.097.993-3.876 2.031-5.178 3.108-1.276 1.056-2.245 2.274-2.417 3.656l.992.124.992.124c.078-.618.562-1.415 1.708-2.363 1.12-.927 2.732-1.882 4.759-2.842 4.048-1.916 9.578-3.773 15.682-5.455 12.199-3.361 26.522-5.976 35.469-6.97l-.11-.994zM573.5 825l-.992-.124c-.813 6.505-.339 19.864-.006 25.681l.998-.057.998-.057c-.334-5.849-.793-19.024-.006-25.319L573.5 825zm0 25.5l-.916-.401-10.5 24 .916.401.916.401 10.5-24-.916-.401zm-38.442 111.321l-.314.95c6.042 2.003 12.486 4.761 19.326 8.018l.43-.903.43-.903c-6.878-3.275-13.405-6.071-19.557-8.111l-.315.949zm19.442 8.065l-.43.903c9.356 4.456 19.408 9.823 30.159 15.445 10.742 5.616 22.164 11.476 34.218 16.896 24.107 10.82 50.784 19.89 79.71 21.69l.062-1 .062-.99c-28.591-1.78-55.019-10.75-79.014-21.53-11.997-5.388-23.376-11.226-34.111-16.839-10.726-5.608-20.826-11.001-30.226-15.478l-.43.903zM563 874.5l-.996-.089-8.5 95.386.996.089.996.089 8.5-95.386-.996-.089z" fill="#6D9C6D"/><path d="M962.5 489.5l.175-.984-.059-.009-.116.993zm118 35l-.51.859.51-.859zm95.5 32l-.05-.998.05.998zm106.5 51.5l.86-.511c-.01-.009-.01-.017-.02-.025l-.84.536zm-524-236.5l-.431.903c22.85 10.928 48.09 32.493 56.978 60.401l.953-.304.953-.303c-9.112-28.613-34.872-50.527-58.022-61.599l-.431.902zm57.5 61l-.953.304c2.333 7.326 7.717 13.984 15.646 19.986 7.931 6.004 18.464 11.397 31.205 16.182 25.483 9.57 59.947 16.767 100.486 21.522l.116-.994.116-.993c-40.461-4.745-74.747-11.918-100.014-21.408-12.634-4.744-22.976-10.055-30.702-15.903-7.727-5.85-12.78-12.195-14.947-18.999l-.953.303zm146.5 57l-.175.985c14.059 2.496 36.83 7.24 59.425 13.356 22.63 6.124 44.97 13.596 58.24 21.518l.51-.859.51-.858c-13.53-8.078-36.11-15.607-58.74-21.732-22.658-6.134-45.487-10.89-59.595-13.394l-.175.984zm118 35l-.51.859c8.3 4.957 13.94 9.633 18.86 13.832 4.91 4.191 9.18 7.969 14.67 10.997 11.01 6.082 26.75 9.063 62.53 7.311l-.05-.999-.05-.998c-35.72 1.748-50.98-1.271-61.47-7.064-5.26-2.91-9.37-6.537-14.33-10.769-4.95-4.222-10.69-8.984-19.14-14.027l-.51.858zm95.5 32l.05.999c56.74-2.777 94.07 32.915 105.61 51.038l.84-.537.84-.536c-11.8-18.543-49.73-54.785-107.39-51.962l.05.998zM949.5 988l-.374.927c8.332 3.358 15.828 7.122 23.043 10.743 7.202 3.61 14.138 7.09 21.285 9.83 14.346 5.51 29.556 8.04 49.786 2.98l-.24-.97-.24-.97c-19.77 4.95-34.56 2.48-48.589-2.9-7.04-2.7-13.886-6.13-21.105-9.757-7.207-3.617-14.774-7.418-23.192-10.81l-.374.927zm93.5 23.51l.24.97c10.17-2.54 20.41-8.15 31.45-15.05 11.1-6.928 22.98-15.132 36.63-23.064 27.21-15.82 61.16-30.366 108.18-30.366v-2c-47.48 0-81.78 14.704-109.19 30.637-13.67 7.944-25.69 16.241-36.68 23.097-11.03 6.886-21.04 12.346-30.87 14.806l.24.97zM1219.5 943v1c37.98 0 95.66-14.885 152.22-33.425 56.61-18.553 112.24-40.815 146.18-55.659l-.4-.916-.4-.916c-33.89 14.823-89.46 37.061-146 55.591C1314.53 927.218 1257.12 942 1219.5 942v1zm63-335l-.86.512c10.73 18.018 32.11 44.942 61.45 67.271 29.35 22.332 66.73 40.12 109.42 39.717l-.01-1-.01-1c-42.11.397-79.06-17.148-108.18-39.308-29.13-22.162-50.34-48.888-60.95-66.703l-.86.511zm170 106.5l.01 1c42.44-.4 70.19-3.82 87.65-7.952 8.72-2.065 14.91-4.316 19.08-6.475 2.09-1.08 3.7-2.148 4.87-3.176 1.17-1.019 1.96-2.044 2.33-3.051l-.94-.346-.94-.346c-.21.576-.74 1.339-1.77 2.238-1.01.892-2.47 1.875-4.47 2.904-3.98 2.059-9.99 4.263-18.63 6.306-17.25 4.085-44.84 7.498-87.2 7.898l.01 1z" fill="url(#paint0_linear_0_3)"/><path d="M-21.5 940.5c20-8.167 74.2-17.1 131 12.5 71 37 133.5 8.5 167 5.5s103.5 25 161 9.5c46-12.4 80-12 97.558-6.179 6.098 2.022 12.583 4.799 19.442 8.065" stroke="url(#paint1_linear_0_3)" stroke-width="2"/><path d="M511.977 547.383l.83-.558a1.124 1.124 0 00-.079-.103l-.751.661zm24.713 36.791l-.83.557.02.029.81-.586zm-37.485-52.82a1 1 0 00-1.502 1.321l.751-.66.751-.661zM610.829 686.5l-.81.587c.065.089.144.167.234.23l.576-.817zm154.671 109l.983-.185a.995.995 0 00-.407-.632l-.576.817zm8 42.5l-.983.185a.997.997 0 00.382.614l.601-.799zm48.5 36.5l-.601.799c.2.151.45.221.699.196L822 874.5zm35.5-3.5l.465-.885a1 1 0 00-.563-.11l.098.995zm68 61l.919-.394a.978.978 0 00-.035-.073l-.884.467zm-227.281 91.82l.062-.99-.062.99zm159.595-12.31l.36.93-.36-.93zM949.5 988l-.374.928 2.248.905-.955-2.227-.919.394zM666 795.5l.993-.119-.993.119zm-92.5 55l.916.401.096-.219-.014-.239-.998.057zm-10.5 24l-.916-.401-.066.15-.014.162.996.089zm-8.5 95.386l-.996-.089-.062.693.628.299.43-.903zm-17.81-385.712l-.81.586 74.139 102.327.81-.587.81-.587L537.5 583.587l-.81.587zM765.5 795.5l-.983.185 8 42.5.983-.185.983-.185-8-42.5-.983.185zm56.5 79l.098.995 35.5-3.5-.098-.995-.098-.995-35.5 3.5.098.995zm35.5-3.5l-.465.885c8.194 4.304 21.437 12.518 34.471 23.14 13.045 10.632 25.801 23.615 33.11 37.442l.884-.467.884-.467c-7.491-14.173-20.484-27.357-33.615-38.058-13.141-10.711-26.498-18.997-34.804-23.36l-.465.885zm-159.281 152.82l-.062 1c41.648 2.59 67.06 5.14 89.309 4.22 22.321-.92 41.476-5.33 70.708-16.6l-.36-.93-.36-.93c-29.096 11.21-48.03 15.55-70.07 16.46-22.112.92-47.334-1.62-89.103-4.21l-.062.99zm159.595-12.31l.36.93c9.152-3.52 27.121-11.34 45.302-17.311 9.083-2.984 18.172-5.493 26.186-6.769 8.055-1.283 14.855-1.29 19.464.568l.374-.928.374-.928c-5.141-2.071-12.403-1.981-20.526-.687-8.164 1.3-17.368 3.845-26.496 6.844-18.24 5.994-36.364 13.861-45.398 17.351l.36.93zM511.977 547.383l-.83.557 24.713 36.791.83-.557.83-.558-24.713-36.791-.83.558zM925.5 932l-.919.394 24 56 .919-.394.919-.394-24-56-.919.394zm-152-94l-.601.799 24.25 18.25.601-.799.601-.799-24.25-18.25-.601.799zm24.25 18.25l-.601.799 24.25 18.25.601-.799.601-.799-24.25-18.25-.601.799zm0 0l-.831-.557c-2.693 4.02-7.338 10.508-12.502 16.884-5.18 6.394-10.823 12.602-15.517 16.123l.6.8.6.8c4.906-3.679 10.679-10.055 15.871-16.464 5.206-6.428 9.887-12.966 12.61-17.029l-.831-.557zM769.5 889.5l-.6-.8c-4.872 3.654-17.513 15.841-29.272 27.67-5.894 5.929-11.589 11.792-16.011 16.488-2.21 2.348-4.106 4.407-5.551 6.04-1.424 1.609-2.464 2.862-2.911 3.567L716 943l.845.535c.345-.545 1.271-1.676 2.718-3.311a277.917 277.917 0 015.51-5.995c4.407-4.679 10.089-10.528 15.974-16.449 11.799-11.871 24.325-23.934 29.053-27.48l-.6-.8zm-158.671-203l-.576.817 64.671 45.576.576-.818.576-.817-64.671-45.575-.576.817zm64.671 45.575l-.576.818 90 63.424.576-.817.576-.817-90-63.425-.576.817zm0 0l-.951-.309c-2.096 6.443-5.082 17.343-7.245 29.144-2.16 11.784-3.515 24.557-2.297 34.709l.993-.119.993-.119c-1.182-9.848.129-22.384 2.278-34.11 2.146-11.709 5.109-22.522 7.18-28.887l-.951-.309zM666 795.5l-.993.119c1.507 12.558 2.742 21.329 2.681 27.242-.031 2.953-.388 5.051-1.108 6.504-.686 1.386-1.728 2.237-3.339 2.669l.259.966.259.966c2.139-.573 3.66-1.787 4.614-3.714.921-1.861 1.283-4.324 1.314-7.37.064-6.084-1.201-15.059-2.694-27.501l-.993.119zm-2.5 37.5l-.259-.966c-.565.151-1.177.031-1.938-.499-.784-.544-1.626-1.46-2.556-2.707-1.882-2.525-3.818-5.966-6.224-9.624-2.357-3.583-5.1-7.258-8.441-9.908-3.365-2.67-7.37-4.326-12.192-3.79l.11.994.11.994c4.178-.464 7.673.944 10.729 3.369 3.082 2.445 5.683 5.897 8.013 9.44 2.282 3.469 4.377 7.153 6.292 9.721.969 1.299 1.965 2.422 3.016 3.153 1.073.746 2.289 1.14 3.599.789L663.5 833zM632 806.5l-.11-.994c-9.053 1.006-23.48 3.641-35.781 7.03-6.146 1.693-11.804 3.586-16.006 5.576-2.097.993-3.876 2.031-5.178 3.108-1.276 1.056-2.245 2.274-2.417 3.656l.992.124.992.124c.078-.618.562-1.415 1.708-2.363 1.12-.927 2.732-1.882 4.759-2.842 4.048-1.916 9.578-3.773 15.682-5.455 12.199-3.361 26.522-5.976 35.469-6.97l-.11-.994zM573.5 825l-.992-.124c-.813 6.505-.339 19.864-.006 25.681l.998-.057.998-.057c-.334-5.849-.793-19.024-.006-25.319L573.5 825zm0 25.5l-.916-.401-10.5 24 .916.401.916.401 10.5-24-.916-.401zm-19 119.386l-.43.903c9.356 4.456 19.408 9.823 30.159 15.445 10.742 5.616 22.164 11.476 34.218 16.896 24.107 10.83 50.784 19.89 79.71 21.69l.062-1 .062-.99c-28.591-1.78-55.019-10.75-79.014-21.53-11.997-5.388-23.376-11.226-34.111-16.839-10.726-5.608-20.826-11.001-30.226-15.478l-.43.903zM563 874.5l-.996-.089-8.5 95.386.996.089.996.089 8.5-95.386-.996-.089zm-51.023-327.117l.751-.661-13.523-15.368-.751.661-.751.66 13.523 15.368.751-.66z" fill="#fff"/><circle cx="761.5" cy="867.5" r="9.5" fill="#fff"/><path d="M760.588 867.12h1.824c1.051 0 1.52-.469 1.52-1.52v-2.367a3.401 3.401 0 00-.608-.236v-.133a1.824 1.824 0 00-3.648 0v.133c-.21.059-.413.138-.608.236v2.367c0 1.051.469 1.52 1.52 1.52zm-.304-4.256a1.216 1.216 0 012.432 0v.019a3.062 3.062 0 00-.304-.019h-1.824c-.103 0-.204.009-.304.019v-.019z" fill="#2B702B"/><path d="M764.54 863.631v1.969c0 1.392-.736 2.128-2.128 2.128h-1.824c-1.392 0-2.128-.736-2.128-2.128v-1.969a3.337 3.337 0 00-1.216 2.577v5.472a1.522 1.522 0 001.52 1.52h5.472a1.522 1.522 0 001.52-1.52v-5.472c0-.998-.446-1.943-1.216-2.577zm-1.52 7.137h-.304v.304a.304.304 0 11-.608 0v-.304h-2.128a.304.304 0 110-.608h3.04a.304.304 0 110 .608zm3.648-2.432h-.304v3.617a1.522 1.522 0 001.216-1.489v-1.216a.914.914 0 00-.912-.912zm-11.248.912v1.216a1.522 1.522 0 001.216 1.489v-3.617h-.304a.914.914 0 00-.912.912z" fill="#2B702B"/><circle cx="738" cy="895" r="10" fill="#fff"/><g clip-path="url(#clip1_0_3)"><path d="M743.45 892.603a.34.34 0 00.339-.339v-.36a2.696 2.696 0 00-2.693-2.693h-6.192a2.696 2.696 0 00-2.693 2.693v.36c0 .187.151.339.339.339h.339v7.508h-.339a.339.339 0 100 .679h10.9a.34.34 0 000-.679h-.339v-7.508h.339zm-1.017 7.508h-1.365v-1.118l.561-.294a.342.342 0 00.141-.419l-.727-1.801a1.15 1.15 0 00-1.07-.724.973.973 0 00.683-.284v-.001a.97.97 0 10-.688.285 1.154 1.154 0 00-1.071.724l-.727 1.801a.342.342 0 00.141.419l.561.294v1.118h-2.509v-3.693h1.099a.34.34 0 00.34-.339v-2.454a.34.34 0 00-.34-.34h-2.877a.34.34 0 00-.339.34v2.454a.34.34 0 00.339.339h1.099v3.693h-2.117v-7.508h8.866v7.508z" fill="#2B702B"/></g><circle cx="798" cy="892" r="10" fill="#fff"/><path d="M804.799 896.919l-.341-8.11a1.53 1.53 0 00-1.52-1.448h-1.103v-.882c0-.926-.758-1.679-1.69-1.679-.932 0-1.691.753-1.691 1.679v.882h-1.103c-.672 0-1.255.386-1.446.91h2.735c.596 0 1.165.228 1.604.643a2.3 2.3 0 01.727 1.558l.322 6.404a2.176 2.176 0 01-.508 1.524h2.583a1.425 1.425 0 001.431-1.481zm-3.766-9.558h-1.776v-.882c0-.486.398-.882.888-.882.489 0 .888.396.888.882v.882z" fill="#2B702B"/><path d="M800.169 890.512a1.544 1.544 0 00-1.529-1.444h-5.587c-.803 0-1.489.648-1.529 1.444l-.322 6.404c-.02.394.118.766.388 1.047.27.282.637.437 1.033.437h6.447c.397 0 .764-.155 1.034-.437.27-.281.408-.653.388-1.047l-.323-6.404zm-2.632 1.515c0 .925-.758 1.679-1.69 1.679a1.688 1.688 0 01-1.691-1.679v-1.28a.4.4 0 01.402-.399.4.4 0 01.401.399v1.28c0 .486.398.882.888.882s.888-.396.888-.882v-1.28a.4.4 0 01.401-.399.4.4 0 01.401.399v1.28z" fill="#2B702B"/><circle cx="575" cy="1007" r="10" fill="#fff"/><path d="M581.799 1011.92l-.341-8.11a1.532 1.532 0 00-1.52-1.45h-1.103v-.88c0-.93-.758-1.68-1.69-1.68-.932 0-1.691.75-1.691 1.68v.88h-1.103c-.672 0-1.255.39-1.446.91h2.735c.596 0 1.165.23 1.604.64.439.42.697.97.727 1.56l.322 6.41c.029.56-.151 1.09-.508 1.52h2.583c.396 0 .764-.15 1.035-.44.272-.28.412-.65.396-1.04zm-3.766-9.56h-1.776v-.88c0-.49.398-.88.888-.88.489 0 .888.39.888.88v.88z" fill="#2B702B"/><path d="M577.169 1005.51c-.04-.79-.726-1.44-1.529-1.44h-5.587c-.803 0-1.489.65-1.529 1.44l-.322 6.41c-.02.39.118.76.388 1.04s.637.44 1.033.44h6.447c.397 0 .764-.16 1.034-.44s.408-.65.388-1.04l-.323-6.41zm-2.632 1.52a1.691 1.691 0 01-3.381 0v-1.28a.402.402 0 01.803 0v1.28a.888.888 0 001.776 0v-1.28a.401.401 0 01.802 0v1.28z" fill="#2B702B"/><circle cx="844" cy="888" r="10" fill="#fff"/><path d="M843.845 880.4a.32.32 0 00-.085.009 1.882 1.882 0 00-1.415 1.812c0 .87.605 1.602 1.419 1.811v.461c-.523.807-1.696 1.347-2.794 2.028-.559.348-1.099.739-1.503 1.251a3.048 3.048 0 00-.667 1.945c0 1.056.306 1.821.646 2.34h9.106c.34-.519.648-1.284.648-2.34 0-.795-.264-1.434-.668-1.945-.405-.512-.943-.903-1.502-1.251-1.096-.68-2.27-1.219-2.794-2.026v-.401a1.888 1.888 0 001.822-1.386c.119-.229-.168-.453-.365-.285a1.184 1.184 0 01-.748.267 1.173 1.173 0 01-1.181-1.172 1.177 1.177 0 01.266-.74c.134-.172.006-.371-.185-.378zm-4.337 12.126a.71.71 0 00-.708.704v.935a.236.236 0 00.235.235h9.928a.238.238 0 00.219-.145.233.233 0 00.018-.09v-.935a.712.712 0 00-.71-.704h-8.982z" fill="#2B702B"/><circle cx="850" cy="865" r="10" fill="#fff"/><path d="M847.856 867.338v-3.624H845v3.624c0 1.273.68 2.454 1.789 3.093l3.211 1.856v-3.299l-1.784-1.031a.706.706 0 01-.36-.619z" fill="#2B702B"/><path d="M849.995 870.859l3.216-1.856A3.582 3.582 0 00855 865.91v-7.196h-5v2.856h2.139v4.335c0 .253-.134.49-.356.619L850 867.555v3.304h-.005z" fill="#2B702B"/><path d="M849.995 863.714v-5l-4.995 5h4.995z" fill="#184E18"/><circle cx="839" cy="912" r="10" fill="#fff"/><path d="M843.81 914.359l-.448-2.415a2.42 2.42 0 00-2.373-2h-1.519c.047-1.278-.486-3.239-2.828-3.926a.417.417 0 00-.376.069.432.432 0 00-.171.345v.838l-2.265 1.149a1.328 1.328 0 00.017 2.367l1.037.501-.512 3.128-.069-.026a1.27 1.27 0 00-1.629.777c-.235.67.11 1.409.772 1.646l1.152.419c1.412.51 2.893.769 4.403.769 1.506 0 2.987-.259 4.399-.769l1.156-.419c.32-.112.576-.35.721-.661a1.29 1.29 0 00.047-.985 1.268 1.268 0 00-1.514-.807zm-6.473.764a1.742 1.742 0 011.668-1.291c.346 0 .679.103.965.298.285.198.507.475.635.799l.137.345c-1.139.19-2.304.19-3.448.005l.043-.156zm7.168.661a.43.43 0 01-.235.216l-1.156.419a12.167 12.167 0 01-8.226 0l-1.156-.419a.423.423 0 01-.252-.54.416.416 0 01.392-.285c.047 0 .099.009.141.026l1.157.415c2.461.889 5.201.889 7.663 0l1.152-.415a.417.417 0 01.537.259.407.407 0 01-.017.324z" fill="#2B702B"/><circle cx="865" cy="899" r="10" fill="#fff"/><path d="M871.573 897.231l-6.233-4.504c-.227-.169-.453-.169-.68 0l-6.233 4.504c-.453.281-.17 1.013.34 1.013h1.133v6.193c0 .338.227.563.567.563h9.066c.34 0 .567-.225.567-.563v-6.193h1.133c.51 0 .793-.732.34-1.013zM865 903.874c-1.87 0-3.4-1.52-3.4-3.378s1.53-3.378 3.4-3.378c1.87 0 3.4 1.52 3.4 3.378s-1.53 3.378-3.4 3.378z" fill="#2B702B"/><path d="M865.85 899.652v-1.689h-1.7v1.689h-1.7v1.689h1.7v1.689h1.7v-1.689h1.7v-1.689h-1.7z" fill="#2B702B"/></g><defs><linearGradient id="paint0_linear_0_3" x1="701" y1="494" x2="1516.5" y2="712.513" gradientUnits="userSpaceOnUse"><stop stop-color="#6D9C6D"/><stop offset="1" stop-color="#6D9C6D" stop-opacity="0"/></linearGradient><linearGradient id="paint1_linear_0_3" x1="-1" y1="952.631" x2="554.5" y2="952.631" gradientUnits="userSpaceOnUse"><stop stop-color="#6D9C6D" stop-opacity="0"/><stop offset=".5" stop-color="#6D9C6D" stop-opacity=".25"/><stop offset="1" stop-color="#6D9C6D"/></linearGradient><clipPath id="clip0_0_3"><path fill="#fff" d="M0 0h1494v1107H0z"/></clipPath><clipPath id="clip1_0_3"><path fill="#fff" transform="translate(732.211 889.211)" d="M0 0h11.579v11.579H0z"/></clipPath></defs></svg>