<svg width="29" height="29" fill="none" xmlns="http://www.w3.org/2000/svg"><path d="M28.1 8.48c.467 0 .847-.38.847-.847v-.9A6.741 6.741 0 0022.214 0H6.734A6.741 6.741 0 000 6.734v.899c0 .468.38.848.848.848h.848v18.77H.848a.848.848 0 000 1.696H28.1a.848.848 0 000-1.696h-.848V8.481h.848zm-2.545 18.771h-3.411v-2.796l1.402-.735a.848.848 0 00.352-1.046l-1.817-4.504a2.88 2.88 0 00-2.676-1.81 2.418 2.418 0 001.708-.71 2.426 2.426 0 10-1.72.71 2.88 2.88 0 00-2.676 1.81L14.9 22.674a.848.848 0 00.352 1.046l1.403.736v2.795H10.38V18.02h2.749c.468 0 .848-.38.848-.848v-6.137a.848.848 0 00-.848-.848H5.936a.848.848 0 00-.848.848v6.137c0 .468.38.848.848.848h2.749v9.231H3.392V8.481h22.163v18.77z" fill="#2B702B"/></svg>