<svg width="1494" height="727" fill="none" xmlns="http://www.w3.org/2000/svg"><g clip-path="url(#clip0_0_103)"><path d="M1040.2 396h6.4c0 .96.41 1.773 1.24 2.44.85.64 2.04.96 3.56.96s2.67-.28 3.44-.84c.77-.587 1.16-1.307 1.16-2.16 0-.853-.36-1.56-1.08-2.12-.72-.587-1.76-.88-3.12-.88h-3v-5h2.8c1.23 0 2.2-.28 2.92-.84.72-.56 1.08-1.213 1.08-1.96 0-.853-.37-1.56-1.12-2.12-.75-.587-1.84-.88-3.28-.88-1.36 0-2.4.307-3.12.92-.72.587-1.08 1.347-1.08 2.28h-6.4c0-2.693.96-4.893 2.88-6.6 1.95-1.733 4.59-2.6 7.92-2.6 3.28 0 5.87.8 7.76 2.4 1.89 1.6 2.84 3.6 2.84 6 0 1.84-.64 3.32-1.92 4.44a6.65 6.65 0 01-1.88 1.16v.2c.8.347 1.49.787 2.08 1.32 1.41 1.253 2.12 2.88 2.12 4.88 0 2.427-.97 4.44-2.92 6.04-1.92 1.573-4.61 2.36-8.08 2.36-3.52 0-6.27-.867-8.24-2.6-1.97-1.733-2.96-4-2.96-6.8zm26.6 9v-23.6h16.8v5.8h-10.4v3.2h9.8v5.6h-9.8v3.2h10.4v5.8h-16.8zm21.6 0v-23.6h9.6l3.8 12.6h.8l3.8-12.6h9.6V405h-6.4v-12.4h-.8l-4 12.4h-5.2l-4-12.4h-.8V405h-6.4zm33.2 0v-23.6h16.8v5.8H1128v3.2h9.8v5.6h-9.8v3.2h10.4v5.8h-16.8zm19.01.2V399h.6c.9 0 1.57-.213 2-.64.45-.427.72-1.147.8-2.16l1.2-14.8h17.4V405h-6.4v-17.4h-5.2l-.8 10.4c-.19 2.32-.92 4.107-2.2 5.36-1.28 1.227-3.08 1.84-5.4 1.84h-2zm27.6-.2v-23.6h6.4v6.8h5c2.4 0 4.36.787 5.88 2.36 1.54 1.547 2.32 3.56 2.32 6.04s-.78 4.507-2.32 6.08c-1.52 1.547-3.48 2.32-5.88 2.32h-11.4zm6.4-6.2h4.6c.61 0 1.13-.213 1.56-.64.42-.427.64-.947.64-1.56a2.15 2.15 0 00-.64-1.56c-.43-.427-.95-.64-1.56-.64h-4.6v4.4zm17.19 6.2v-23.6h6.4v8.4h7.6v-8.4h6.4V405h-6.4v-8.6h-7.6v8.6h-6.4zm47.02 0v-23.6h6.4V405h-6.4zm-21 0v-23.6h6.4v6.8h4.4c2.4 0 4.36.787 5.88 2.36 1.54 1.547 2.32 3.56 2.32 6.04s-.78 4.507-2.32 6.08c-1.52 1.547-3.48 2.32-5.88 2.32h-10.8zm6.4-6.2h4c.61 0 1.13-.213 1.56-.64.42-.427.64-.947.64-1.56a2.15 2.15 0 00-.64-1.56c-.43-.427-.95-.64-1.56-.64h-4v4.4zm26.6 6.2v-23.6h16.8v5.8h-10.4v3.2h9.8v5.6h-9.8v3.2h10.4v5.8h-16.8zm32.59 0v-5.8h3.4c.69 0 1.16-.267 1.4-.8l.2-.4-8.6-16.6h7l4.4 9.2h.8l4-9.2h7l-9.2 19.8c-1.1 2.533-3.1 3.8-6 3.8h-4.4zm34.59 0v-7.6c-.48.293-.95.533-1.4.72-1.15.453-2.41.68-3.8.68-5.33 0-8-2.867-8-8.6v-8.8h6.4v8c0 2.133 1.07 3.2 3.2 3.2 1.04 0 1.93-.2 2.68-.6.29-.133.6-.333.92-.6v-10h6.4V405h-6.4zm9 0l8-23.6h8.8l8 23.6h-7l-1.2-4h-8.4l-1.2 4h-7zm9.8-9.6h5.2l-2.2-7.2h-.8l-2.2 7.2zm32.62.2h6.4c-.35 1.84-.99 3.48-1.92 4.92-2.14 3.253-5.16 4.88-9.08 4.88-3.34 0-6.11-1.133-8.32-3.4-2.19-2.293-3.28-5.227-3.28-8.8 0-3.573 1.09-6.493 3.28-8.76 2.21-2.293 4.98-3.44 8.32-3.44 3.89 0 6.92 1.6 9.08 4.8.93 1.387 1.57 2.987 1.92 4.8h-6.4c-.22-.667-.51-1.227-.88-1.68-.94-1.147-2.18-1.72-3.72-1.72-1.42 0-2.64.56-3.68 1.68-1.02 1.12-1.52 2.56-1.52 4.32 0 1.76.5 3.2 1.52 4.32 1.04 1.12 2.26 1.68 3.68 1.68 1.6 0 2.84-.6 3.72-1.8.37-.48.66-1.08.88-1.8zm14.59 9.4v-17.4h-6.2v-6.2h18.8v6.2h-6.2V405h-6.4zm16.19 0v-23.6h6.4v9.8l6-9.8h7.4l-7.2 11.6 7.8 12h-7.4l-6.6-10.2V405h-6.4zm22.19 0v-23.6h6.4v12.2h.8l6.4-12.2h7.2V405h-6.4v-12.2h-.8l-6.4 12.2h-7.2zm-377.97 69v-10.482h6.15c1.25 0 2.09-.482 2.53-1.446l.36-.723-15.54-30h12.65l7.95 16.627h1.44l7.23-16.627h12.65l-16.62 35.784c-1.98 4.578-5.59 6.867-10.85 6.867h-7.95zm98.77-6.651c-4.72 4.916-10.55 7.374-17.49 7.374-6.94 0-12.77-2.458-17.49-7.374-4.73-4.915-7.09-11.132-7.09-18.65 0-7.518 2.36-13.735 7.09-18.651 4.72-4.915 10.55-7.373 17.49-7.373 6.94 0 12.77 2.458 17.49 7.373 4.73 4.916 7.09 11.133 7.09 18.651 0 7.518-2.36 13.735-7.09 18.65zm-26.82-7.879c2.51 2.699 5.62 4.048 9.33 4.048s6.79-1.349 9.25-4.048c2.51-2.747 3.76-6.337 3.76-10.771 0-4.434-1.25-8-3.76-10.699-2.46-2.747-5.54-4.12-9.25-4.12s-6.82 1.373-9.33 4.12c-2.45 2.699-3.68 6.265-3.68 10.699s1.23 8.024 3.68 10.771zm37.54-1.735h11.56c0 1.735.75 3.205 2.25 4.41 1.54 1.156 3.68 1.735 6.43 1.735 2.75 0 4.82-.507 6.22-1.519 1.39-1.06 2.09-2.361 2.09-3.903 0-1.542-.65-2.819-1.95-3.831-1.3-1.061-3.18-1.591-5.64-1.591h-5.42V444h5.06c2.22 0 3.98-.506 5.28-1.518 1.3-1.012 1.95-2.193 1.95-3.542 0-1.542-.67-2.82-2.02-3.832-1.35-1.06-3.33-1.59-5.93-1.59-2.46 0-4.34.554-5.64 1.663-1.3 1.06-1.95 2.433-1.95 4.12h-11.57c0-4.867 1.74-8.843 5.21-11.928 3.51-3.132 8.29-4.698 14.31-4.698 5.93 0 10.6 1.445 14.02 4.337 3.43 2.892 5.14 6.506 5.14 10.843 0 3.326-1.16 6-3.47 8.025-1.06.915-2.2 1.614-3.4 2.096v.361c1.44.627 2.7 1.422 3.76 2.386 2.55 2.265 3.83 5.205 3.83 8.819 0 4.386-1.76 8.024-5.28 10.916-3.47 2.843-8.34 4.265-14.6 4.265-6.36 0-11.33-1.566-14.89-4.699-3.57-3.132-5.35-7.229-5.35-12.289zM1201.98 474v-50.602h34.7v10.482h-23.13v9.759h21.68v10.12h-21.68v9.759h23.13V474h-34.7zm43.35 0v-50.602h23.49c4.92 0 8.92 1.614 12 4.843s4.63 7.518 4.63 12.867c0 5.35-1.55 9.639-4.63 12.868-3.08 3.229-7.08 4.843-12 4.843h-11.93V474h-11.56zm11.56-26.386h11.21c1.68 0 3.06-.578 4.12-1.734 1.11-1.205 1.66-2.796 1.66-4.772 0-1.975-.55-3.542-1.66-4.698-1.06-1.205-2.44-1.808-4.12-1.808h-11.21v13.012zM1283.32 474l17.35-50.602h16.63L1334.65 474H1322l-3.26-10.12h-19.52l-3.25 10.12h-12.65zm19.16-20.241h13.01l-5.78-18.072h-1.45l-5.78 18.072zM171.2 95h6.4c0 .96.413 1.773 1.24 2.44.853.64 2.04.96 3.56.96s2.667-.28 3.44-.84c.773-.587 1.16-1.307 1.16-2.16 0-.853-.36-1.56-1.08-2.12-.72-.587-1.76-.88-3.12-.88h-3v-5h2.8c1.227 0 2.2-.28 2.92-.84.72-.56 1.08-1.213 1.08-1.96 0-.853-.373-1.56-1.12-2.12-.747-.587-1.84-.88-3.28-.88-1.36 0-2.4.307-3.12.92-.72.587-1.08 1.347-1.08 2.28h-6.4c0-2.693.96-4.893 2.88-6.6 1.947-1.733 4.587-2.6 7.92-2.6 3.28 0 5.867.8 7.76 2.4 1.893 1.6 2.84 3.6 2.84 6 0 1.84-.64 3.32-1.92 4.44a6.65 6.65 0 01-1.88 1.16v.2c.8.347 1.493.787 2.08 1.32 1.413 1.253 2.12 2.88 2.12 4.88 0 2.427-.973 4.44-2.92 6.04-1.92 1.573-4.613 2.36-8.08 2.36-3.52 0-6.267-.867-8.24-2.6-1.973-1.733-2.96-4-2.96-6.8zm26.6 9V80.4h16.8v5.8h-10.4v3.2h9.8V95h-9.8v3.2h10.4v5.8h-16.8zm21.602 0V80.4h9.6l3.8 12.6h.8l3.8-12.6h9.6V104h-6.4V91.6h-.8l-4 12.4h-5.2l-4-12.4h-.8V104h-6.4zm33.203 0V80.4h16.8v5.8h-10.4v3.2h9.8V95h-9.8v3.2h10.4v5.8h-16.8zm19.001.2V98h.6c.907 0 1.574-.213 2-.64.454-.427.72-1.147.8-2.16l1.2-14.8h17.4V104h-6.4V86.6h-5.2l-.8 10.4c-.186 2.32-.92 4.107-2.2 5.36-1.28 1.227-3.08 1.84-5.4 1.84h-2zm27.6-.2V80.4h6.4v6.8h5c2.4 0 4.36.787 5.88 2.36 1.547 1.547 2.32 3.56 2.32 6.04s-.773 4.507-2.32 6.08c-1.52 1.547-3.48 2.32-5.88 2.32h-11.4zm6.4-6.2h4.6a2.12 2.12 0 001.56-.64c.427-.427.64-.947.64-1.56 0-.613-.213-1.133-.64-1.56a2.12 2.12 0 00-1.56-.64h-4.6v4.4zM322.8 104V80.4h6.4v8.4h7.6v-8.4h6.4V104h-6.4v-8.6h-7.6v8.6h-6.4zm47.016 0V80.4h6.4V104h-6.4zm-21 0V80.4h6.4v6.8h4.4c2.4 0 4.36.787 5.88 2.36 1.546 1.547 2.32 3.56 2.32 6.04s-.774 4.507-2.32 6.08c-1.52 1.547-3.48 2.32-5.88 2.32h-10.8zm6.4-6.2h4c.613 0 1.133-.213 1.56-.64.426-.427.64-.947.64-1.56 0-.613-.214-1.133-.64-1.56a2.124 2.124 0 00-1.56-.64h-4v4.4zm26.607 6.2V80.4h16.8v5.8h-10.4v3.2h9.8V95h-9.8v3.2h10.4v5.8h-16.8zm32.583 0v-5.8h3.4c.694 0 1.16-.267 1.4-.8l.2-.4-8.6-16.6h7l4.4 9.2h.8l4-9.2h7l-9.2 19.8c-1.093 2.533-3.093 3.8-6 3.8h-4.4zm34.592 0v-7.6c-.48.293-.946.533-1.4.72-1.146.453-2.413.68-3.8.68-5.333 0-8-2.867-8-8.6v-8.8h6.4v8c0 2.133 1.067 3.2 3.2 3.2 1.04 0 1.934-.2 2.68-.6.294-.133.6-.333.92-.6v-10h6.4V104h-6.4zm9.005 0l8-23.6h8.8l8 23.6h-7l-1.2-4h-8.4l-1.2 4h-7zm9.8-9.6h5.2l-2.2-7.2h-.8l-2.2 7.2zm32.614.2h6.4c-.346 1.84-.986 3.48-1.92 4.92-2.133 3.253-5.16 4.88-9.08 4.88-3.333 0-6.106-1.133-8.32-3.4-2.186-2.293-3.28-5.227-3.28-8.8 0-3.573 1.094-6.493 3.28-8.76 2.214-2.293 4.987-3.44 8.32-3.44 3.894 0 6.92 1.6 9.08 4.8.934 1.387 1.574 2.987 1.92 4.8h-6.4c-.213-.667-.506-1.227-.88-1.68-.933-1.147-2.173-1.72-3.72-1.72-1.413 0-2.64.56-3.68 1.68-1.013 1.12-1.52 2.56-1.52 4.32 0 1.76.507 3.2 1.52 4.32 1.04 1.12 2.267 1.68 3.68 1.68 1.6 0 2.84-.6 3.72-1.8.374-.48.667-1.08.88-1.8zm14.591 9.4V86.6h-6.2v-6.2h18.8v6.2h-6.2V104h-6.4zm16.19 0V80.4h6.4v9.8l6-9.8h7.4l-7.2 11.6 7.8 12h-7.4l-6.6-10.2V104h-6.4zm22.188 0V80.4h6.4v12.2h.8l6.4-12.2h7.2V104h-6.4V91.8h-.8l-6.4 12.2h-7.2zm-377.964 69v-10.482h6.144c1.253 0 2.097-.482 2.53-1.446l.362-.723-15.542-30h12.65l7.952 16.627h1.446l7.229-16.627h12.65l-16.626 35.784c-1.976 4.578-5.59 6.867-10.844 6.867h-7.951zm54.169.361v-11.204h1.445c3.47 0 5.398-1.928 5.783-5.784l2.892-33.975h35.422V173h-11.567v-39.398h-13.373l-2.169 25.663c-.385 4.578-1.831 8.072-4.337 10.482s-6 3.614-10.482 3.614h-3.614zm55.668-.361v-50.602h34.699v10.482h-23.133v9.759h21.687v10.12h-21.687v9.759h23.133V173h-34.699zm77.321-19.157h11.566c-.771 3.711-2.144 7.037-4.12 9.976-4.289 6.603-10.627 9.904-19.012 9.904-6.94 0-12.771-2.458-17.494-7.374-4.723-4.915-7.085-11.132-7.085-18.65 0-7.518 2.362-13.735 7.085-18.651 4.723-4.915 10.554-7.373 17.494-7.373 8.193 0 14.482 3.253 18.867 9.759 1.88 2.795 3.301 6.048 4.265 9.759H362.58c-.53-1.591-1.277-2.964-2.241-4.121-2.313-2.795-5.422-4.192-9.325-4.192-3.711 0-6.82 1.373-9.326 4.12-2.457 2.699-3.686 6.265-3.686 10.699s1.229 8.024 3.686 10.771c2.506 2.699 5.615 4.048 9.326 4.048 4.144 0 7.301-1.446 9.47-4.337.963-1.253 1.662-2.699 2.096-4.338zM374.575 173l17.35-50.602h16.626L425.901 173H413.25l-3.253-10.12h-19.518L387.226 173h-12.651zm19.157-20.241h13.012l-5.783-18.072h-1.446l-5.783 18.072z" fill="#C9EBC9"/><path d="M147.5 282.5l39 20L87 290v-63l40.5-7.5v-13l26.5-4 3 24.5-70 31.5 21.5 24h39z" fill="#407E40"/><path d="M87 258.5l21.5 24h39l39 20L87 290v-31.5zm0 0l70-31.5-3-24.5-26.5 4v13L87 227v31.5z" stroke="#C9EBC9"/><path d="M77 287.5L41.5 283l-2.31-14.75-2.31-14.75-1.88-12h-5.5L28 227l49-11v71.5z" fill="#407E40"/><path d="M35 241.5h-5.5L28 227l49-11v21.5m-42 4l42-4m-42 4l1.88 12m40.12-16v16m0 0H36.88m40.12 0v14.75M36.88 253.5l2.31 14.75m0 0L41.5 283l35.5 4.5v-19.25m-37.81 0H77" stroke="#C9EBC9"/><path d="M1058.45 210.9v-47.449c-5.56 0-11.05.162-16.45.463v46.716l16.45.27zm-16.45-.27v-46.716c-5.94.331-11.79.83-17.49 1.466v44.963l17.49.287zm-17.49-.287V165.38c-7.49.836-14.75 1.908-21.7 3.147l6.65 41.569 15.05.247z" fill="#AA2929" fill-opacity=".5"/><path fill-rule="evenodd" clip-rule="evenodd" d="M1331.71 248.474l-28.69 19.244-11.9-5.987-19.24-9.684-18.72-9.419-18.72-9.42-19.94-10.036-19.95-10.037-25.19-.413-21.69-.357-19.6-.321-17.84-.293-17.49-.288-17.16-.282-17.13-.281v-47.449c5.74 0 11.46.163 17.13.463 5.79.307 11.52.758 17.16 1.328 5.94.601 11.78 1.335 17.49 2.17 6.12.896 12.08 1.91 17.84 3.004 6.85 1.3 13.4 2.714 19.6 4.18a441.307 441.307 0 0121.69 5.713c10.53 3.064 19.15 6.019 25.19 8.334 7.34.94 20.16 3.311 34.64 7.363 6.99 1.954 14.36 4.299 21.69 7.062 6.67 2.512 13.31 5.37 19.6 8.595.94.482 1.87.973 2.8 1.472 5.22 2.82 10.26 5.627 15.04 8.364a746.08 746.08 0 0118.2 10.744c11.9 7.258 20.84 13.179 25.19 16.231zm-328.9-79.947l6.65 41.569-6.65-.11-6.993 3.137-15.745 7.058-27.991 12.548-10.321-21.168 28.633-12.047-9.68-20.667a319.08 319.08 0 0116.91-4.843 343.876 343.876 0 0125.187-5.477z" fill="#407E40"/><path d="M960.713 178.847c-13.181 4.179-23.329 8.41-29.275 11.546l10.322 21.168 28.633-12.047-9.68-20.667z" fill="#AA2929" fill-opacity=".5"/><path d="M1194.55 213.135l-25.19-.413m25.19.413v-24.492m0 24.492l19.95 10.037m-156.05-59.721V210.9m0-47.449c-5.56 0-11.05.162-16.45.463m16.45-.463c5.74 0 11.46.163 17.13.463m118.97 24.729c-6.04-2.315-14.66-5.27-25.19-8.334m25.19 8.334c7.34.94 20.16 3.311 34.64 7.363M1058.45 210.9l-16.45-.27m16.45.27l17.13.281M1042 163.914v46.716m0-46.716c-5.94.331-11.79.83-17.49 1.466m17.49 45.25l-17.49-.287m0-44.963v44.963m0-44.963c-7.49.836-14.75 1.908-21.7 3.147m21.7 41.816l-15.05-.247m-6.65-41.569l6.65 41.569m-6.65-41.569a343.876 343.876 0 00-25.187 5.477m31.837 36.092l-6.65-.11-6.993 3.137m-18.194-39.119l18.194 39.119m-18.194-39.119a319.08 319.08 0 00-16.91 4.843m35.104 34.276l-15.745 7.058m-19.359-41.334c-13.181 4.179-23.329 8.41-29.275 11.546l10.322 21.168m18.953-32.714l9.68 20.667m9.679 20.667l-27.991 12.548-10.321-21.168m38.312 8.62l-9.679-20.667m0 0l-28.633 12.047m133.82-47.647v47.267m0-47.267c5.79.307 11.52.758 17.16 1.328m-17.16 45.939l17.16.282m0-46.221v46.221m0-46.221c5.94.601 11.78 1.335 17.49 2.17m-17.49 44.051l17.49.288m0-44.339v44.339m0-44.339c6.12.896 12.08 1.91 17.84 3.004m-17.84 41.335l17.84.293m0-41.628v41.628m0-41.628c6.85 1.3 13.4 2.714 19.6 4.18m-19.6 37.448l19.6.321m21.69-32.056v32.413m0-32.413a441.307 441.307 0 00-21.69-5.713m21.69 38.126l-21.69-.357m0-37.769v37.769m81.52-16.359l-14.69 27.166m14.69-27.166c6.99 1.954 14.36 4.299 21.69 7.062m-36.38 20.104l19.94 10.036m16.44-30.14l-16.44 30.14m16.44-30.14c6.67 2.512 13.31 5.37 19.6 8.595m-36.04 21.545l18.72 9.42m37.96 19.103l11.9 5.987 28.69-19.244c-4.35-3.052-13.29-8.973-25.19-16.231m-15.4 29.488l15.4-29.488m-15.4 29.488l-19.24-9.684m34.64-19.804a746.08 746.08 0 00-18.2-10.744m-16.44 30.548l16.44-30.548m-16.44 30.548l-18.72-9.419m35.16-21.129a698.388 698.388 0 00-15.04-8.364c-.93-.499-1.86-.99-2.8-1.472m-17.32 30.965l17.32-30.965" stroke="#C9EBC9"/><path d="M919.192 194.941c-9.754 3.474-21.599 8.58-34.289 15.125l10.846 21.529 33.415-15.136-9.972-21.518z" fill="#AA2929" fill-opacity=".5"/><path fill-rule="evenodd" clip-rule="evenodd" d="M837.668 285.212l-15.745-32.889a266.373 266.373 0 0115.745-12.782 307.087 307.087 0 0114.346-10.148 336.993 336.993 0 0115.744-9.865l20.294 42.23-16.795 7.818-15.55 7.239-18.039 8.397zm68.928-32.087l32.539-15.148-9.971-21.518-33.415 15.136 10.847 21.53z" fill="#407E40"/><path d="M867.758 219.528l20.294 42.23 18.544-8.633-10.847-21.53-10.846-21.529a348.386 348.386 0 00-17.145 9.462z" fill="#AA2929" fill-opacity=".5"/><path d="M837.668 239.541a266.373 266.373 0 00-15.745 12.782l15.745 32.889 18.039-8.397m-18.039-37.274l18.039 37.274m-18.039-37.274a307.087 307.087 0 0114.346-10.148m3.693 47.422l15.55-7.239m0 0l-19.243-40.183m19.243 40.183l16.795-7.818m-36.038-32.365a336.993 336.993 0 0115.744-9.865m0 0l20.294 42.23m-20.294-42.23a348.386 348.386 0 0117.145-9.462m3.149 51.692l18.544-8.633m0 0l32.539-15.148-9.971-21.518m-22.568 36.666l-10.847-21.53m-10.846-21.529c12.69-6.545 24.535-11.651 34.289-15.125l9.972 21.518m-44.261-6.393l10.846 21.529m0 0l33.415-15.136" stroke="#C9EBC9"/><path fill-rule="evenodd" clip-rule="evenodd" d="M1359 260.37l-11.2-5.248-24.14 16.272 17.57 26.064L1359 260.37zm-36.74 49.986l-18.19-25.756-35.69 24.054 53.88 1.702z" fill="#407E40"/><path d="M1334.86 310.754l6.37-13.296-17.57-26.064-19.59 13.206 18.19 25.756 12.6.398z" fill="#AA2929" fill-opacity=".5"/><path d="M1323.66 271.394l24.14-16.272 11.2 5.248-17.77 37.088m-17.57-26.064l17.57 26.064m-17.57-26.064l-19.59 13.206m37.16 12.858l-6.37 13.296-12.6-.398m0 0l-53.88-1.702 35.69-24.054m18.19 25.756l-18.19-25.756" stroke="#C9EBC9"/><path d="M1040.6 223.226l-13.99-.294-17.17 26.242 10.87 6.997H1040l.6-32.945zm21.35.449l-21.35-.449-.6 32.945h21.44l.51-32.496z" fill="#AA2929" fill-opacity=".5"/><path fill-rule="evenodd" clip-rule="evenodd" d="M1260.68 296.408l30.09-20.293-35.75-18.194-18.13-9.23v20.426h-25.54v-33.426l-18.2-9.26-4.89-.103-21-.441-22.39-.47-19.94-.419-23.1-.485-19.59-.412-20.29-.426-.51 32.496h-41.13l-10.87-6.997-19.221 29.39 16.441 10.847 9.1.25 23.61.651 21.53.573 21.34.608 19.59.539 23.1.637 19.94.549 22.39.617 21 .578 23.09.636 25.54.704 18.13.5 5.66.155z" fill="#407E40"/><path d="M1236.89 248.691l-25.54-13v33.426h25.54v-20.426z" fill="#AA2929" fill-opacity=".5"/><path d="M1255.02 257.921l35.75 18.194-30.09 20.293-5.66-.155m0-38.332v38.332m0-38.332l-18.13-9.23m18.13 47.562l-18.13-.5m0 0l-25.54-.704m25.54.704v-26.636m0-20.426l-25.54-13m25.54 13v20.426m-25.54-33.426l-18.2-9.26-4.89-.103m23.09 9.363v26.428m0 32.93l-23.09-.636m23.09.636v-25.932m-23.09-42.789l-21-.441m21 .441v31.593m0 36.492l-21-.578m21 .578v-32.294m-21-36.232v67.948m0-67.948l-22.39-.47m22.39 68.418l-22.39-.617m0 0v-67.801m0 67.801l-19.94-.549m19.94-67.252l-19.94-.419m0 0v67.671m0-67.671l-23.1-.485m23.1 68.156l-23.1-.637m0 0v-67.519m0 67.519l-19.59-.539m19.59-66.98l-19.59-.412m0 0v67.392m0-67.392l-20.29-.426m20.29 67.818l-21.34-.608m1.05-67.21l-21.35-.449m21.35.449l-.51 32.496m-.54 34.714l-21.53-.573m21.53.573l.54-34.714m-20.84-32.945l-13.99-.294-17.17 26.242m31.16-25.948l-.6 32.945m-.63 34.141l-23.61-.651m23.61.651l.63-34.141m-30.56-6.997l-19.221 29.39 16.441 10.847 9.1.25m-6.32-40.487l10.87 6.997m0 0l-4.55 33.49m4.55-33.49H1040m0 0h21.44m0 1.75h126.82m0 0v4.198m0 0h23.09m0 0v6.998m0 0h25.54" stroke="#C9EBC9"/><path d="M944.384 249.174l10.846 22.392 17.145 12.247-13.828 22.392-10.802 17.495-9.506 15.395-5.402 8.747h-67.528l-1.913-4.199-11.323-24.842-10.206-22.393 27.338-12.595 15.187-6.998 17.4-8.017 17.4-8.017 25.192-11.607z" fill="#407E40"/><path d="M955.23 271.566l-10.846-22.392-25.192 11.607m36.038 10.785l17.145 12.247-13.828 22.392m-3.317-34.639l-22.393 17.576m-69.441 54.501l1.913 4.199h35.979m-37.892-4.199l24.306-19.077m-24.306 19.077l-11.323-24.842m80.764-29.659l25.71 17.063m-25.71-17.063l-13.645-28.361m13.645 28.361l-15.054 11.815m40.764 5.248L947.745 323.7m0 0l-32.752-20.553m32.752 20.553l-9.506 15.395m-23.246-35.948l-13.705 10.756m13.705-10.756l2.79-2.19m20.456 38.138l-5.402 8.747h-31.549m36.951-8.747l-36.951-25.192m0 0v33.939m0-33.939l-16.896-37.088m16.896 37.088l-13.586 10.663m-3.31-47.751l17.4-8.017m-17.4 8.017l-15.187 6.998m49.987-23.032l-17.4 8.017m15.991 32.159l-15.991-32.159m-14.09 55.768l-8.334-18.361m-10.163-22.392l-27.338 12.595 10.206 22.393m17.132-34.988l10.163 22.392m0 0l-27.295 12.596" stroke="#C9EBC9"/><path d="M1001.77 302.706l-17.499-11.546-14.108 22.043 26.253 16.095 5.354-26.592z" fill="#AA2929" fill-opacity=".5"/><path fill-rule="evenodd" clip-rule="evenodd" d="M968.176 468.553h-23.093V352.39l14.108-22.042 32.862 20.643-2.534 12.596-2.054 12.596-3.194 19.593-5.948 21.344-1.05 25.191-9.097 26.242z" fill="#407E40"/><path d="M996.416 329.298l-26.253-16.095-10.972 17.145 32.862 20.643 4.363-21.693z" fill="#AA2929" fill-opacity=".5"/><path d="M945.083 352.39l14.108-22.042m-14.108 22.042l44.436 11.197m-44.436-11.197v23.793m32.19 66.128l-9.097 26.242h-23.093v-26.242m32.19 0l1.05-25.191m-1.05 25.191h-32.19m33.24-25.191l5.948-21.344m-5.948 21.344h-33.24m39.188-21.344l3.194-19.593m-3.194 19.593h-39.188m44.436-32.189l2.534-12.596m-2.534 12.596l-2.054 12.596m8.951-46.885l5.354-26.592-17.499-11.546-14.108 22.043m26.253 16.095l-26.253-16.095m26.253 16.095l-4.363 21.693m-21.89-37.788l-10.972 17.145m32.862 20.643l-32.862-20.643m28.274 45.835h-42.382m0 0v19.593m0 0v21.344m0 0v25.191" stroke="#C9EBC9"/><path d="M890.851 427.966v-33.939h-22.043v33.939h22.043zm-25.542-33.939h-17.144l-4.549 33.939h25.192v-33.939h-3.499z" fill="#AA2929" fill-opacity=".5"/><path d="M838.887 388.38l-25.711 39.586h30.44l4.549-33.939-9.278-5.647z" fill="#AA2929" fill-opacity=".5"/><path fill-rule="evenodd" clip-rule="evenodd" d="M932.837 360.088v67.878h-41.986v-33.939h-42.686l-9.278-5.647-14.864-9.048-2.1 2.943-17.868 25.048-17.47-39.537 4.277-5.948 11.468-15.948 11.896-16.543 17.144-23.841 17.593 37.088 8.299 17.494h75.575z" fill="#407E40"/><path d="M804.055 407.323l9.121 20.643 25.711-39.586-14.864-9.048-2.1 2.943-17.868 25.048z" fill="#AA2929" fill-opacity=".5"/><path d="M813.176 427.966l-9.121-20.643m9.121 20.643l25.711-39.586m-25.711 39.586h30.44m13.646-67.878l-8.299-17.494m8.299 17.494l-18.375 28.292m18.375-28.292h16.445m59.13 33.939v-33.939h-20.993m20.993 33.939v33.939h-20.993m20.993-33.939h-20.993m-63.679 0l-9.278-5.647m9.278 5.647h17.144m-17.144 0l-4.549 33.939m-19.593-48.634l-2.1 2.943m2.1-2.943l9.026-13.296m-9.026 13.296l14.864 9.048m-34.832 18.943l-17.47-39.537 4.277-5.948m13.193 45.485l17.868-25.048m27.04-39.681l-17.593-37.088-17.144 23.841m34.737 13.247l-4.513 6.648m-22.527 33.033l-31.061-20.437m0 0l11.468-15.948m0 0l30.719 20.146M802.33 345.89l11.896-16.543m18.823 36.689l11.401-16.794m-30.224-19.895l30.224 19.895m29.257 10.846l-8.398 33.939m8.398-33.939h17.144m-25.542 33.939h3.499m22.043-33.939h20.993m-20.993 0v33.939m0 33.939h20.993m-20.993 0v-33.939m0 33.939h-22.043m43.036-67.878v33.939m0 33.939v-33.939m0 0h-20.993m0 0h-22.043m0 0v33.939m0 0h-25.192" stroke="#C9EBC9"/><path d="M937.736 442.661v25.892H756.844v-17.494l-7.445-22.043-5.151-15.745L739 398.226c3.965-8.864 14.905-32.96 26.941-58.431 5.353-11.327 10.58-21.137 15.105-29.041 5.651-9.871 10.205-16.77 12.536-19.944 0-3.615.49-11.686 2.45-15.045 1.959-3.359 11.079-10.963 15.395-14.345l13.645 29.39-7.668 10.847-16.573 23.442-19.145 27.08-9.797 13.857 6.027 14.345 6.026 14.346 6.614 15.745 6.468 15.395 7.055 16.794h133.657z" fill="#407E40"/><path d="M804.079 442.661h19.594m-19.594 0l-26.591 25.892m26.591-25.892l-7.055-16.794m-3.442-135.057c0-3.615.49-11.686 2.45-15.045 1.959-3.359 11.079-10.963 15.395-14.345l13.645 29.39-7.668 10.847m-23.822-10.847c-2.331 3.174-6.885 10.073-12.536 19.944m12.536-19.944l23.822 10.847m-51.463 38.138c-12.036 25.471-22.976 49.567-26.941 58.431m26.941-58.431l15.745 12.384m-15.745-12.384c5.353-11.327 10.58-21.137 15.105-29.041M739 398.226l5.248 15.045M739 398.226l38.916-17.845m-21.072 70.678v17.494h20.644m-20.644-17.494l40.18-25.192m-40.18 25.192l-7.445-22.043m160.696 13.645h27.641v25.892h-27.641m0-25.892v25.892m0-25.892h-27.991m27.991 25.892h-27.991m0-25.892v25.892m0-25.892h-29.041m29.041 25.892h-29.041m0-25.892v25.892m0-25.892h-29.39m29.39 25.892h-29.39m0-25.892v25.892m0 0h-46.185m19.536-42.686l-6.468-15.395m0 0l-41.157 18.544m41.157-18.544l-6.614-15.745m-34.543 34.289l-5.151-15.745m39.694-18.544l-39.694 18.544m39.694-18.544l-6.026-14.346m0 0l-6.027-14.345 9.797-13.857m0 0l19.145-27.08m0 0l-19.785-14.345m19.785 14.345l16.573-23.442" stroke="#C9EBC9"/><path d="M617 336v60.5H504l-11 6.178-15.5 8.706-10 5.616-32.5-16.5-32.5-16.5 19.75-10.96L442 362.081l17-9.434 17-9.433L489 336h128z" fill="#407E40"/><path d="M504 396.5h19m-19 0V336m0 60.5l-11 6.178m124-36.428V336h-18.5m18.5 30.25v30.25h-18.5m18.5-30.25H489m0 0l-13-23.036m13 23.036l-14.504 9.199M435 400.5l32.5 16.5 10-5.616M435 400.5L402.5 384l19.75-10.96M435 400.5l11.825-7.5M442 362.081l17.75 24.651 17.75 24.652M442 362.081l-19.75 10.959M442 362.081l17-9.434m18.5 58.737l15.5-8.706m-70.75-29.638L446.825 393m0 0l27.671-17.551M598.5 336v60.5m0-60.5H579m19.5 60.5H579m0-60.5v60.5m0-60.5h-17.5m17.5 60.5h-17.5m0-60.5v60.5m0-60.5H542m19.5 60.5H542m0-60.5v60.5m0-60.5h-19m19 60.5h-19m0-60.5v60.5m0-60.5h-19m0 0h-15l-13 7.214m0 0l-17 9.433m0 0l15.496 22.802M493 402.678l-18.504-27.229" stroke="#C9EBC9"/><path d="M608 460h8.5l5.5-7 5.5-7V336H660v132.5l-7 3.68-20.5 10.779L608 492.5l-17.5-9.112-43-22.388 43-8.529L608 449v11z" fill="#407E40"/><path d="M627.5 446v-18.5m0 18.5H660m-32.5 0l-5.5 7m-5.5 7H608m8.5 0l16 22.959M616.5 460l5.5-7m-14 7v-11l-17.5 3.471M608 460v32.5m0 0l24.5-9.541M608 492.5l-17.5-9.112M627.5 354v-18H660v18m-32.5 0H660m-32.5 0v18.5M660 354v18.5m0 0h-32.5m32.5 0V391m-32.5-18.5V391m0 0H660m-32.5 0v18m32.5-18v18m0 0h-32.5m32.5 0v18.5M627.5 409v18.5m0 0H660m0 0V446m0 0v22.5l-7 3.68m-20.5 10.779L653 472.18M622 453l31 19.18m-62.5-19.709l-43 8.529 43 22.388m0-30.917v30.917" stroke="#C9EBC9"/><path fill-rule="evenodd" clip-rule="evenodd" d="M617.5 439v-31.5h-82v46l30.5-5.393 16.5-2.918 17-3.006 18-3.183zm-102.937 3.183L480 423.5l25-16h9.563v34.683z" fill="#407E40"/><path d="M535.5 453.5v-46h-20.937v34.683L535.5 453.5z" fill="#AA2929" fill-opacity=".5"/><path d="M535.5 453.5l30.5-5.393m-30.5 5.393v-25.697m0 25.697l-20.937-11.317M599.5 407.5h18V439l-18 3.183m0-34.683v34.683m0-34.683h-17m17 34.683l-17 3.006m0-37.689v37.689m0-37.689H566m16.5 37.689l-16.5 2.918m0-40.607h-30.5m30.5 0v20.303m0 20.304v-20.304M535.5 407.5v20.303m0-20.303h-20.937M566 427.803h-30.5m-20.937 14.38L480 423.5l25-16h9.563m0 34.683V407.5" stroke="#C9EBC9"/><path fill-rule="evenodd" clip-rule="evenodd" d="M507 467.5l-19 3.846-20 4.049-18 3.643-18 3.644-18 3.644-11.608 2.35L383.5 492.5l-10 22.5 28.892 6.712L423 526.5l17.5-4.788 17.5-4.787L476 512l19.5-1.784 20-1.827L507 467.5z" fill="#407E40"/><path d="M574.5 503L507 467.5l8.5 40.889 59-5.389z" fill="#AA2929" fill-opacity=".5"/><path d="M507 467.5l67.5 35.5-59 5.389M507 467.5l8.5 40.889M507 467.5l-19 3.846M423 526.5l17.5-4.788M423 526.5l-9-40.174m9 40.174l-20.608-4.788M476 512l19.5-1.784M476 512l-8-36.605M476 512l-18 4.925m57.5-8.536l-20 1.827m-7.5-38.87l7.5 38.87m-7.5-38.87l-20 4.049m0 0l-18 3.643m0 0l8 37.887m-8-37.887l-18 3.644m26 34.243l-17.5 4.787m-8.5-39.03l8.5 39.03m-8.5-39.03l-18 3.644m0 0l-11.608 2.35m0 33.036L373.5 515l10-22.5 18.892-3.824m0 33.036v-33.036" stroke="#C9EBC9"/><path d="M394 480l30-52.5 16.121 8 20.379 10.113 30 14.887-44 8.891-26 5.254L394 480z" fill="#AA2929" fill-opacity=".5"/><path d="M440.121 435.5l-16.121-8-30 52.5 26.5-5.355m19.621-39.145L420.5 474.645m19.621-39.145l20.379 10.113m-40 29.032l26-5.254m14-23.778l30 14.887-44 8.891m14-23.778l-14 23.778" stroke="#C9EBC9"/><path d="M660 310v16.5H486l-13.692 7-15.6 7.975-17.208 8.797-17.5 8.947L397 372l-30-2-24-12.714L321.697 346 299.5 334.241 283 325.5l-23-5-49.5-5.5-11-14c10.5-.5 33.7-2.1 42.5-4.5 7.141-1.948 15.126-2.842 24.5-2.545 5.065.16 10.537.668 16.5 1.545 2.404.354 5.098 1.217 8 2.459 6.441 2.756 13.907 7.377 21.5 12.425 7.135 4.743 14.383 9.862 21 14.165 5.603 3.644 10.754 6.703 15 8.451a57.902 57.902 0 005 1.778c6.312 1.939 13.449 3.138 20 3.844 7.14.77 13.583.955 17.5.878l15.944-8.25 15.944-8.25 16.612-8.596 17.208-8.904L477 295l24-1.371 18-1.029 18.5-1.057 16.5-.943 16-.914 15.5-.886 15.5-.886 16-.914c7.94 0 14.771.988 20.5 2.629C652.551 293.94 660 302.757 660 310z" fill="#407E40"/><path d="M617 287v39.5m0-39.5c7.94 0 14.771.988 20.5 2.629M617 287l-16 .914M477 295l24-1.371M477 295l9 31.5m-9-31.5l-20.292 10.5M391 339.5l15.944-8.25M391 339.5l6 32.5m-6-32.5c-3.917.077-10.36-.108-17.5-.878M260 320.5l-49.5-5.5-11-14c10.5-.5 33.7-2.1 42.5-4.5 7.141-1.948 15.126-2.842 24.5-2.545M260 320.5l23 5m-23-5l6.5-26.545M283 325.5l16.5 8.741M283 325.5l8-27.541M367 370l30 2m-30-2l6.5-31.378M367 370l-24-12.714M397 372l25-12.781m64-32.719h15m-15 0l-13.692 7m144.692-7h20.5m-20.5 0h-16m36.5-36.871C652.551 293.94 660 302.757 660 310v16.5h-22.5m0-36.871V326.5M601 287.914V326.5m0-38.586l-15.5.886m15.5 37.7h-15.5m0-37.7v37.7m0-37.7l-15.5.886m15.5 36.814H570m0-36.814V326.5m0-36.814l-16 .914m16 35.9h-16m0-35.9v35.9m0-35.9l-16.5.943M554 326.5h-16.5m0-34.957V326.5m0-34.957L519 292.6m18.5 33.9H519m0-33.9v33.9m0-33.9l-18 1.029m18 32.871h-18m0-32.871V326.5m-44.292-21l15.6 28m-15.6-28l-17.208 8.904m32.808 19.096l-15.6 7.975M439.5 314.404l17.208 27.071M439.5 314.404L422.888 323m33.82 18.475l-17.208 8.797M422.888 323l16.612 27.272M422.888 323l-15.944 8.25m32.556 19.022l-17.5 8.947m-15.056-27.969L422 359.219m-48.5-20.597c-6.551-.706-13.688-1.905-20-3.844m0 0a57.902 57.902 0 01-5-1.778c-4.246-1.748-9.397-4.807-15-8.451m20 10.229L343 357.286m0 0L321.697 346m11.803-21.451L321.697 346m11.803-21.451c-6.617-4.303-13.865-9.422-21-14.165M321.697 346L299.5 334.241m13-23.857l-13 23.857m13-23.857c-7.593-5.048-15.059-9.669-21.5-12.425m0 0c-2.902-1.242-5.596-2.105-8-2.459-5.963-.877-11.435-1.385-16.5-1.545" stroke="#C9EBC9"/><path d="M-72 336C6.514 438.391 399.272 622.223 736.333 643.173 1149.6 668.86 1454.38 602.502 1527 582.167" stroke="#fff" stroke-opacity=".1" stroke-width="40"/><path d="M893 169l15.5 10c41.5-18 127-55 216.5-34.5 98.94 22.662 171.83 58 219.5 80l7-40-13-50.5c-29.5-22-116.3-66-227.5-66-139 0-234.5 60-246 76.5-9.2 13.2 3.833 21.833 11.5 24.5H893z" fill="#2872B2"/><path d="M221.89 224.439c.06-4.39.369-7.606 1.039-8.271-1.23-.981-1.228-1.099-1.719-1.282-.974-.304-1.83-.798-2.934-1.342-3.663.193-6.181 1.197-8.05 2.08-2.204 1.042-4.639 2.494-7.881 4.093-4.457 2.199-11.362 4.117-14.766 7.634-3.839 3.967-5.541 6.889-6.334 9.148-.793 2.259-1.729 4.182-1.706 7.78.064 9.981.238 13.121 1.53 15.655 1.719 3.37 3.427 7.147 4.7 9.089 1.281 1.955 2.815 4.266 4.455 6.53 1.461 2.015 2.028 5.591 4.883 9.521 1.463 2.014 2.296 4.153 4.459 5.675 3.111 2.19 5.076 3.559 10.133 3.101 3.361-.304 7.043-.54 10.552-1.098 2.695-.428 6.081-.197 9.827-1.772 2.622-1.102 5.59-1.496 9.946-4.886 2.195-1.708 4.012-3.485 5.119-5.37 1.221-2.079 2.72-4.284 2.374-7.141-.304-2.51.127-7.86-2.631-7.927-2.198-.053-4.422.844-6.773 1.836-1.891.799-2.858 3.773-5.066 4.211-1.219.242-2.438.103-3.416-.126-2.079-.489-5.024-.89-7.322-1.465-1.955-.489-4.467-.576-6.164-2.629-2.389-2.89-8.834-8.537-6.4-9.521 4.355-1.761 15.7-2.023 16.355-4.392.119-.43.078-.971-.249-1.342-1.345-1.527-3.992-3.073-4.086-8.238-.181-9.944.091-17.088.125-19.551zm-109.159 32.987c-.837-1.566-1.367-3.467-1.367-4.756.388 0 .765 0 1.109-.039s.646-.114.991-.191c1.41-.382 3.256-1.089 6.555-2.211 2.016-.685 4.326-2.205 6.966-3.16 1.371-.496 2.883-1.129 4.342-1.714 2.299-.921 6.134-2.131 9.639-3.848 1.787-.875 2.875-1.69 7.293-3.052 6.533-2.014 9.071-3.092 11.841-3.845 6.428-1.748 9.41-2.331 11.028-3.311 2.334-1.412 6.049-3.082 6.127-1.82.073 1.185.012 2.723-.307 4-.305 1.22-.872 2.873-1.143 4.458-.305 1.79-1.19 3.127-1.294 7.403-.076 3.102-.135 8.76-.037 11.858.114 3.628.413 4.462.381 5.774-.118 4.79-.222 6.498-.765 9.855-.116.721-.333 1.117-1.31 1.173-2.627.151-5.072.033-6.35-.269-1.446-.343-3.176-.552-4.759-1.029-1.258-.379-5.429-1.832-7.845-3.314-1.183-.726-2.645-1.799-7.379-1.942-7.592-.228-9.415-.392-10.865-.8-1.22-.342-2.547-.545-4.267-1.448-1.524-.8-2.937-2.166-7.432-1.52-1.861.267-2.581 1.857-4.726 2.058-2.016.188-3.615.025-4.064-.578-.229-.308-.373-.686-.455-1.378-.386-3.276-1.212-5.056-1.907-6.354zm154.605 17.157c-10.468 3.227-12.876 4.532-14.575 4.532-.886.447-1.32.881-1.761 1.396-.441.516-.875 1.095-1.092 1.682-.217.588-.217 1.167 7.909 1.456 8.126.29 23.9.29 32.011.513 8.111.224 8.664.63 8.762 1.322.217 1.533.211 3.282 1.248 4.09 2.346 1.829 4.941 3.342 7.31 4.455 2.491 1.171 6.825 1.424 7.157 4.105.29 2.338.363 4.759 1.619 5.249.741.29 1.957.452 2.776.066 2.631-1.241 11.965-2.792 17.392-1.09 2.342.735 6.634 1.022 6.203 3.149-.221 1.094-.803 2.448-1.908 2.772-2.269.664-5.616.992-6.72 3.368-.509 1.094-1.783 2.944-.722 3.436 3.77 1.745 9.56.692 12.284 1.015 1.239.147 2.519.63 3.506 1.688 1.978 2.121 4.391 3.396 8.341 5.263 4.171 1.971 7.533 3.879 10.812 2.839 1.384-.438 2.614-1.063 3.061-2.124.217-.516.316-1.15-.006-1.608-1.39-1.977-4.504-3.784-4.085-6.797.081-.583.627-.949 1.247-1.167 2.491-.872 6.925-.538 7.157-3.234.29-3.361.678-6.048 1.686-6.854 1.095-.875 2.058-2.295 3.511-2.557 5.241-.945 12.712-1.048 14.836.375 2.192 1.469 4.368 3.716 4.304 6.219-.077 3.004-1.421 5.608-3.074 8.623-.362.66-.435 1.414.085 1.529 1.316.289 2.878-.179 4.537-.592 3.506-.873 6.126-1.197 8.694-1.752 2.706-.586 5.139-.676 7.747-1.463 2.414-.728 4.606-1.362 7.455-2.339 2.563-.88 6.117-1.935 8.843-3.217 2.491-1.171 6.393-2.681 9.359-4.094 3.069-1.462 5.515-3.055 8.549-4.091 3.011-1.029 6.422-2.663 9.067-3.73 3.434-1.386 5.822-2.34 8.475-3.14 2.414-.728 4.687-1.591 7.089-1.971a97.605 97.605 0 007.016-1.39c2.491-.586 8.631-1.013 13.531-1.242 4.747-.221 7.644-.708 10.374-.877 3.583-.221 6.527-.373 8.986-.951 2.491-.586 5.425-.789 8.117-1.39 3.583-.801 6.417.67 15.505-1.314 3.716-.811 7.49-1.681 7.727-4.326.366-4.089.134-8.158 2.491-8.538 2.269-.367 5.488-.017 10.088-3.59.943-.732 1.188-1.333 1.011-1.899-.366-1.166-1.15-3.418-3.368-4.747-1.094-.656-3.332-.696-5.999-1.02-2.998-.363-5.655-1.674-8.694-1.166-1.312.219-2.366.784-3.436 1.91-2.849 2.997-3.594 6.322-5.697 7.448-.949.509-3.553.987-6.221 2.783-2.92 1.967-5.652 2.208-6.959 4.201-.331.504-.486 1.118-.563-.334-.077-1.452.631-6.028-1.571-6.572-7.915-1.955-10.795-2.38-12.792-3.908-2.08-1.591-4.67-4.144-6.957-5.859-1.955-1.466-3.912-3.444-7.204-4.637-2.689-.974-5.345-1.913-9.795-1.887-10.959.064-14.13.507-16.993 1.04-2.629.488-5.645 2.057-11.846.972-3.473-.608-5.694-1.075-10.431-1.769-2.927-.428-5.594-1.007-9.168-.975-7.306.064-10.086.117-13.904 1.226-5.25 1.525-10.555 4.313-13.534 3.164-.489-.189-1.019-.704-.846-1.163.368-.974 1.117-2.029 2.638-2.748 5.825-2.751 11.65-4.426 14.517-4.935 2.754-.489 5.934-.401 22.239-1.159 3.936-.183 12.017.043 23.382-.366 5.089-.183 7.998-1.124 11.258-1.833 3.109-.675 5.123-2.479 7.621-3.54 2.444-1.038 4.939-1.546 8.24-2.561 2.999-.923 6.221-2.015 8.789-3.422 3.231-1.77 6.818-3.336 6.027-5.431-.368-.974-1.589-2.312-3.607-4.394-2.015-2.08-3.082-5.923-6.48-6.281-2.865-.302-5.568-.276-7.438.066-3.358.613-5.978 2.041-9.09 2.197-7.295.364-18.918-.662-27.046-.306-6.933.304-14.135.976-17.562 1.281-2.749.246-8.735-.005-12.692 1.223-2.747.853-5.458.909-8.298 1.463-2.504.489-4.917 1.135-10.135 1.77-3.485.425-7.17.365-10.314.916-4.895.856-10.488 1.421-14.658 1.645-8.053.434-14.179-.089-14.376 2.635-.238 3.299-.234 6.609.8 9.213 1.042 2.624 2.702 4.406 5.745 6.098 2.744 1.527 5.872 2.817 6.396 5.251.119.553.089 1.242-.373 1.646-.976.851-7.224 1.187-11.841 1.519-2.569.185-5.276 1.149-8.666 2.384-2.69.979-6.593 3.44-8.357 1.21-1.648-2.084-3.161-4.691-5.864-5.674-4.227-1.536-10.988-3.816-14.764-2.555l-.037.012c-1.269.423-2.677.893-3.068 2.196-.242.803.019 2.1-.429 2.989-1.534 3.05-2.786 6.532-5.069 7.802-2.198 1.223-13.961 1.904-21.364 2.254-3.908.185-7.181.265-9.942 1.223-3.002 1.041-6.491 1.722-9.159 2.687-4.212 1.525-7.029 2.561-14.98 5.013z" fill="#339F33"/><circle cx="69.5" cy="648.5" r="6.5" fill="#AA2929" stroke="#C9EBC9" stroke-width="2"/><path d="M99.4 659v-21h16.5v21h-2.4v-18.75h-11.7V659h-2.4zm21.299 0v-17.7h7.95c1.5 0 2.77.54 3.81 1.62 1.06 1.06 1.59 2.37 1.59 3.93s-.53 2.88-1.59 3.96c-1.04 1.06-2.31 1.59-3.81 1.59h-5.55v6.6h-2.4zm2.4-8.85h5.55c.86 0 1.57-.31 2.13-.93.58-.62.87-1.41.87-2.37 0-.96-.29-1.75-.87-2.37-.56-.62-1.27-.93-2.13-.93h-5.55v6.6zm28.836 6.57c-1.68 1.72-3.74 2.58-6.18 2.58-2.44 0-4.5-.86-6.18-2.58-1.68-1.72-2.52-3.91-2.52-6.57s.84-4.85 2.52-6.57c1.68-1.72 3.74-2.58 6.18-2.58 2.44 0 4.5.86 6.18 2.58 1.68 1.72 2.52 3.91 2.52 6.57s-.84 4.85-2.52 6.57zm-10.65-1.62c1.22 1.3 2.71 1.95 4.47 1.95 1.76 0 3.25-.65 4.47-1.95 1.22-1.3 1.83-2.95 1.83-4.95s-.61-3.65-1.83-4.95c-1.22-1.3-2.71-1.95-4.47-1.95-1.76 0-3.25.65-4.47 1.95-1.22 1.3-1.83 2.95-1.83 4.95s.61 3.65 1.83 4.95zm14.66 7.5v-5.85h.3c.6 0 1.08-.17 1.44-.51.38-.36.6-.84.66-1.44l1.2-13.5h11.55v15.45h1.95v5.85h-2.4V659h-12.3v3.6h-2.4zm4.05-5.85h8.7v-13.2h-6.9l-1.05 11.25c-.1.72-.24 1.23-.42 1.53-.1.18-.21.32-.33.42zm13.939 2.25l6.75-17.7h3.6l6.75 17.7h-2.55l-1.65-4.35h-8.7l-1.65 4.35h-2.55zm5.04-6.6h7.02l-3.21-8.55h-.6l-3.21 8.55zm14.469 6.6v-17.7h2.4v7.65h9.6v-7.65h2.4V659h-2.4v-7.8h-9.6v7.8h-2.4zm33.169-2.28c-1.68 1.72-3.74 2.58-6.18 2.58-2.44 0-4.5-.86-6.18-2.58-1.68-1.72-2.52-3.91-2.52-6.57s.84-4.85 2.52-6.57c1.68-1.72 3.74-2.58 6.18-2.58 2.44 0 4.5.86 6.18 2.58 1.68 1.72 2.52 3.91 2.52 6.57s-.84 4.85-2.52 6.57zm-10.65-1.62c1.22 1.3 2.71 1.95 4.47 1.95 1.76 0 3.25-.65 4.47-1.95 1.22-1.3 1.83-2.95 1.83-4.95s-.61-3.65-1.83-4.95c-1.22-1.3-2.71-1.95-4.47-1.95-1.76 0-3.25.65-4.47 1.95-1.22 1.3-1.83 2.95-1.83 4.95s.61 3.65 1.83 4.95z" fill="#C9EBC9"/></g><defs><clipPath id="clip0_0_103"><path fill="#fff" d="M0 0h1494v727H0z"/></clipPath></defs></svg>